<svg width="20" height="20" viewBox="0 0 20 20" fill="none" xmlns="http://www.w3.org/2000/svg">
<path d="M18.5965 15.2371L15.8167 12.4507C15.263 11.898 14.346 11.9148 13.7731 12.4893L12.3726 13.8926C12.2841 13.8437 12.1925 13.7927 12.0962 13.7385C11.2118 13.2474 10.0014 12.5742 8.72766 11.2967C7.45015 10.0164 6.77788 8.80136 6.28635 7.91439C6.23449 7.82043 6.18479 7.72983 6.13572 7.64379L7.07565 6.70313L7.53775 6.23941C8.11161 5.66409 8.12743 4.74536 7.57504 4.19103L4.79522 1.40429C4.24282 0.850751 3.32549 0.867544 2.75163 1.44286L1.96818 2.23259L1.98959 2.25389C1.72689 2.58985 1.50737 2.97733 1.34401 3.39519C1.19342 3.79293 1.09967 4.17248 1.0568 4.55281C0.689741 7.60269 2.0803 10.3901 5.85409 14.1724C11.0706 19.4004 15.2744 19.0055 15.4558 18.9862C15.8508 18.9389 16.2293 18.8443 16.614 18.6946C17.0273 18.5327 17.4136 18.313 17.7486 18.0503L17.7658 18.0655L18.5594 17.2866C19.1321 16.7114 19.1486 15.7923 18.5965 15.2371Z" stroke="white"/>
</svg>
