<svg width="78" height="90" viewBox="0 0 78 90" fill="none" xmlns="http://www.w3.org/2000/svg">
<g filter="url(#filter0_d)">
<path d="M28.7368 26.0164C28.5693 26.0164 28.4086 26.0822 28.2902 26.1995C28.1717 26.3167 28.1052 26.4756 28.1052 26.6414C28.1057 26.914 28.0244 27.1806 27.8718 27.4075C27.7191 27.6344 27.5019 27.8114 27.2475 27.9161C26.9932 28.0208 26.7132 28.0486 26.443 27.9958C26.1727 27.943 25.9243 27.8121 25.7293 27.6196C25.5342 27.4271 25.4012 27.1817 25.3471 26.9144C25.293 26.6471 25.3202 26.37 25.4253 26.118C25.5304 25.866 25.7087 25.6505 25.9375 25.4988C26.1664 25.3471 26.4356 25.2659 26.711 25.2656C26.8785 25.2656 27.0392 25.1998 27.1576 25.0826C27.2761 24.9653 27.3426 24.8064 27.3426 24.6406C27.3426 24.4749 27.2761 24.3159 27.1576 24.1987C27.0392 24.0815 26.8785 24.0156 26.711 24.0156C26.1853 24.0156 25.6714 24.1699 25.2343 24.4589C24.7971 24.748 24.4564 25.1588 24.2553 25.6394C24.0541 26.1201 24.0014 26.649 24.104 27.1593C24.2066 27.6695 24.4597 28.1382 24.8315 28.5061C25.2032 28.874 25.6768 29.1245 26.1925 29.226C26.7081 29.3275 27.2425 29.2754 27.7282 29.0763C28.2139 28.8772 28.6291 28.5401 28.9212 28.1075C29.2132 27.6749 29.3691 27.1663 29.3691 26.6461C29.3698 26.5635 29.3539 26.4817 29.3223 26.4053C29.2908 26.3289 29.2443 26.2594 29.1856 26.2008C29.1268 26.1423 29.0568 26.0958 28.9798 26.0642C28.9028 26.0325 28.8202 26.0163 28.7368 26.0164Z" fill="url(#paint0_linear)"/>
<path d="M28.7368 33.3656C28.5693 33.3656 28.4086 33.4314 28.2902 33.5486C28.1717 33.6658 28.1052 33.8248 28.1052 33.9906C28.1055 34.2631 28.0241 34.5297 27.8714 34.7565C27.7186 34.9833 27.5013 35.1601 27.247 35.2647C26.9926 35.3693 26.7127 35.3969 26.4425 35.3441C26.1723 35.2912 25.924 35.1602 25.729 34.9677C25.534 34.7752 25.4011 34.5298 25.3471 34.2625C25.293 33.9952 25.3203 33.7181 25.4254 33.4662C25.5305 33.2142 25.7088 32.9988 25.9376 32.8471C26.1664 32.6954 26.4356 32.6143 26.711 32.614C26.8785 32.614 27.0392 32.5482 27.1576 32.4309C27.2761 32.3137 27.3426 32.1548 27.3426 31.989C27.3426 31.8232 27.2761 31.6643 27.1576 31.5471C27.0392 31.4298 26.8785 31.364 26.711 31.364C26.1853 31.364 25.6714 31.5183 25.2343 31.8073C24.7971 32.0964 24.4564 32.5072 24.2553 32.9878C24.0541 33.4685 24.0014 33.9974 24.104 34.5076C24.2066 35.0179 24.4597 35.4866 24.8315 35.8545C25.2032 36.2224 25.6768 36.4729 26.1925 36.5744C26.7081 36.6759 27.2425 36.6238 27.7282 36.4247C28.2139 36.2256 28.6291 35.8884 28.9212 35.4559C29.2132 35.0233 29.3691 34.5147 29.3691 33.9945C29.3696 33.912 29.3537 33.8302 29.3221 33.7539C29.2906 33.6776 29.2441 33.6082 29.1853 33.5497C29.1265 33.4913 29.0566 33.4449 28.9796 33.4133C28.9026 33.3817 28.8201 33.3655 28.7368 33.3656Z" fill="url(#paint1_linear)"/>
<path d="M36.1624 34.7015H31.4375C31.27 34.7015 31.1094 34.7674 30.9909 34.8846C30.8725 35.0018 30.8059 35.1608 30.8059 35.3265C30.8059 35.4923 30.8725 35.6513 30.9909 35.7685C31.1094 35.8857 31.27 35.9515 31.4375 35.9515H36.1624C36.3299 35.9515 36.4905 35.8857 36.609 35.7685C36.7274 35.6513 36.794 35.4923 36.794 35.3265C36.794 35.1608 36.7274 35.0018 36.609 34.8846C36.4905 34.7674 36.3299 34.7015 36.1624 34.7015Z" fill="url(#paint2_linear)"/>
<path d="M36.1624 32.0289H31.4375C31.27 32.0289 31.1094 32.0947 30.9909 32.2119C30.8725 32.3291 30.8059 32.4881 30.8059 32.6539C30.8059 32.8196 30.8725 32.9786 30.9909 33.0958C31.1094 33.213 31.27 33.2789 31.4375 33.2789H36.1624C36.3299 33.2789 36.4905 33.213 36.609 33.0958C36.7274 32.9786 36.794 32.8196 36.794 32.6539C36.794 32.4881 36.7274 32.3291 36.609 32.2119C36.4905 32.0947 36.3299 32.0289 36.1624 32.0289Z" fill="url(#paint3_linear)"/>
<path d="M34.8124 42.0499H31.4375C31.27 42.0499 31.1094 42.1158 30.9909 42.233C30.8725 42.3502 30.8059 42.5092 30.8059 42.6749C30.8059 42.8407 30.8725 42.9997 30.9909 43.1169C31.1094 43.2341 31.27 43.2999 31.4375 43.2999H34.8124C34.9799 43.2999 35.1406 43.2341 35.259 43.1169C35.3774 42.9997 35.444 42.8407 35.444 42.6749C35.444 42.5092 35.3774 42.3502 35.259 42.233C35.1406 42.1158 34.9799 42.0499 34.8124 42.0499Z" fill="url(#paint4_linear)"/>
<path d="M36.1624 39.3781H31.4375C31.27 39.3781 31.1094 39.444 30.9909 39.5612C30.8725 39.6784 30.8059 39.8374 30.8059 40.0031C30.8059 40.1689 30.8725 40.3279 30.9909 40.4451C31.1094 40.5623 31.27 40.6281 31.4375 40.6281H36.1624C36.3299 40.6281 36.4905 40.5623 36.609 40.4451C36.7274 40.3279 36.794 40.1689 36.794 40.0031C36.794 39.8374 36.7274 39.6784 36.609 39.5612C36.4905 39.444 36.3299 39.3781 36.1624 39.3781Z" fill="url(#paint5_linear)"/>
<path d="M42.238 27.3531H31.4375C31.27 27.3531 31.1094 27.419 30.9909 27.5362C30.8725 27.6534 30.8059 27.8123 30.8059 27.9781C30.8059 28.1439 30.8725 28.3028 30.9909 28.42C31.1094 28.5373 31.27 28.6031 31.4375 28.6031H42.238C42.4055 28.6031 42.5662 28.5373 42.6846 28.42C42.8031 28.3028 42.8696 28.1439 42.8696 27.9781C42.8696 27.8123 42.8031 27.6534 42.6846 27.5362C42.5662 27.419 42.4055 27.3531 42.238 27.3531Z" fill="url(#paint6_linear)"/>
<path d="M39.5381 24.6805H31.4375C31.27 24.6805 31.1094 24.7463 30.9909 24.8635C30.8725 24.9807 30.8059 25.1397 30.8059 25.3055C30.8059 25.4712 30.8725 25.6302 30.9909 25.7474C31.1094 25.8646 31.27 25.9305 31.4375 25.9305H39.5381C39.7056 25.9305 39.8663 25.8646 39.9847 25.7474C40.1031 25.6302 40.1697 25.4712 40.1697 25.3055C40.1697 25.1397 40.1031 24.9807 39.9847 24.8635C39.8663 24.7463 39.7056 24.6805 39.5381 24.6805Z" fill="url(#paint7_linear)"/>
<path d="M28.7368 40.714C28.5693 40.714 28.4086 40.7799 28.2902 40.8971C28.1717 41.0143 28.1052 41.1733 28.1052 41.339C28.1055 41.6116 28.0241 41.8781 27.8714 42.1049C27.7186 42.3317 27.5013 42.5086 27.247 42.6132C26.9926 42.7178 26.7127 42.7454 26.4425 42.6925C26.1723 42.6397 25.924 42.5087 25.729 42.3162C25.534 42.1236 25.4011 41.8782 25.3471 41.611C25.293 41.3437 25.3203 41.0666 25.4254 40.8146C25.5305 40.5627 25.7088 40.3473 25.9376 40.1956C26.1664 40.0439 26.4356 39.9628 26.711 39.9625C26.8785 39.9625 27.0392 39.8966 27.1576 39.7794C27.2761 39.6622 27.3426 39.5032 27.3426 39.3375C27.3426 39.1717 27.2761 39.0127 27.1576 38.8955C27.0392 38.7783 26.8785 38.7125 26.711 38.7125C26.1853 38.7125 25.6714 38.8667 25.2343 39.1558C24.7971 39.4448 24.4564 39.8556 24.2553 40.3363C24.0541 40.8169 24.0014 41.3458 24.104 41.8561C24.2066 42.3664 24.4597 42.8351 24.8315 43.2029C25.2032 43.5708 25.6768 43.8213 26.1925 43.9228C26.7081 44.0243 27.2425 43.9722 27.7282 43.7732C28.2139 43.5741 28.6291 43.2369 28.9212 42.8043C29.2132 42.3718 29.3691 41.8632 29.3691 41.3429C29.3696 41.2605 29.3537 41.1787 29.3221 41.1024C29.2906 41.026 29.2441 40.9566 29.1853 40.8982C29.1265 40.8397 29.0566 40.7933 28.9796 40.7617C28.9026 40.7301 28.8201 40.7139 28.7368 40.714Z" fill="url(#paint8_linear)"/>
<path d="M44.9381 18H21.9855C21.4593 18 20.9547 18.2067 20.5824 18.5747C20.2101 18.9426 20.0006 19.4418 20 19.9625V48.021C20.0006 48.5413 20.2098 49.0401 20.5815 49.4081C20.9533 49.776 21.4574 49.9829 21.9831 49.9835H33.4618C33.6293 49.9835 33.7899 49.9177 33.9084 49.8005C34.0268 49.6833 34.0934 49.5243 34.0934 49.3585C34.0934 49.1928 34.0268 49.0338 33.9084 48.9166C33.7899 48.7994 33.6293 48.7335 33.4618 48.7335H21.9855C21.7953 48.7335 21.6129 48.6588 21.4783 48.5258C21.3438 48.3928 21.2681 48.2124 21.2679 48.0242V19.9625C21.2677 19.8691 21.2861 19.7765 21.322 19.6901C21.358 19.6037 21.4108 19.5252 21.4774 19.4591C21.5441 19.3929 21.6233 19.3404 21.7104 19.3045C21.7976 19.2686 21.8911 19.2501 21.9855 19.25H44.9381C45.0327 19.2499 45.1263 19.2683 45.2137 19.304C45.301 19.3398 45.3804 19.3923 45.4472 19.4585C45.514 19.5247 45.567 19.6033 45.603 19.6898C45.6391 19.7763 45.6575 19.8689 45.6573 19.9625V40.6726C45.6573 40.8384 45.7239 40.9973 45.8423 41.1146C45.9607 41.2318 46.1214 41.2976 46.2889 41.2976C46.4564 41.2976 46.617 41.2318 46.7355 41.1146C46.8539 40.9973 46.9205 40.8384 46.9205 40.6726V19.9625C46.9198 19.4423 46.7108 18.9436 46.3392 18.5758C45.9676 18.2079 45.4638 18.0008 44.9381 18Z" fill="url(#paint9_linear)"/>
<path d="M50.9143 43.3976C50.3285 43.3397 49.7422 43.5029 49.273 43.8547C49.0925 43.5459 48.8414 43.2832 48.5397 43.0878C48.2381 42.8925 47.8944 42.7698 47.5362 42.7297C46.9504 42.6717 46.3642 42.8349 45.8949 43.1867C45.7145 42.8778 45.4634 42.6151 45.1617 42.4197C44.8601 42.2243 44.5163 42.1017 44.1581 42.0617C43.713 42.0177 43.2645 42.1009 42.8658 42.3015V34.3281C42.8657 34.0067 42.7975 33.6889 42.6655 33.3953C42.5336 33.1016 42.3409 32.8386 42.0998 32.6232C41.8587 32.4079 41.5747 32.245 41.2661 32.145C40.9574 32.0451 40.631 32.0103 40.3079 32.043C39.1395 32.1594 38.2245 33.2047 38.2245 34.4234V42.4172L36.3646 44.2586C35.8796 44.7348 35.5266 45.3266 35.3397 45.9769C35.1528 46.6273 35.1382 47.3143 35.2972 47.9718L36.7096 53.9093C36.9825 55.0759 37.6479 56.1161 38.5966 56.8594C39.5453 57.6026 40.721 58.0048 41.931 58H47.6388C49.0596 57.9981 50.4216 57.439 51.4266 56.4451C52.4315 55.4512 52.9973 54.1036 53 52.6976V45.7781C53 44.5625 52.0827 43.514 50.9143 43.3976ZM51.7313 52.6945C51.7316 53.7692 51.3006 54.8 50.5332 55.5604C49.7659 56.3209 48.7248 56.7487 47.6388 56.75H41.931C41.0074 56.7526 40.1103 56.4449 39.3864 55.8772C38.6626 55.3095 38.155 54.5154 37.9467 53.625L36.5343 47.6875C36.426 47.2376 36.4362 46.7676 36.5641 46.3228C36.6919 45.8779 36.9331 45.473 37.2646 45.1469L38.2301 44.1914V46.3539C38.2301 46.5196 38.2966 46.6786 38.4151 46.7958C38.5335 46.913 38.6941 46.9789 38.8616 46.9789C39.0291 46.9789 39.1898 46.913 39.3082 46.7958C39.4267 46.6786 39.4932 46.5196 39.4932 46.3539V34.4211C39.4932 33.8375 39.9077 33.3398 40.4366 33.2875C40.5841 33.2717 40.7334 33.2868 40.8746 33.3319C41.0158 33.377 41.1458 33.4511 41.2561 33.5493C41.3664 33.6475 41.4546 33.7676 41.5149 33.9018C41.5751 34.036 41.6061 34.1813 41.6058 34.3281V45.3484C41.6058 45.5142 41.6723 45.6731 41.7908 45.7904C41.9092 45.9076 42.0699 45.9734 42.2374 45.9734C42.4049 45.9734 42.5655 45.9076 42.6839 45.7904C42.8024 45.6731 42.8689 45.5142 42.8689 45.3484V44.3468C42.8692 44.201 42.9002 44.0568 42.96 43.9235C43.0198 43.7901 43.1071 43.6706 43.2163 43.5726C43.3266 43.4741 43.4569 43.4 43.5985 43.3551C43.7401 43.3103 43.8896 43.2957 44.0373 43.3125C44.5662 43.3648 44.9847 43.8594 44.9847 44.4461V46.0203C44.9847 46.186 45.0512 46.345 45.1696 46.4622C45.2881 46.5794 45.4487 46.6453 45.6162 46.6453C45.7837 46.6453 45.9444 46.5794 46.0628 46.4622C46.1812 46.345 46.2478 46.186 46.2478 46.0203V45.0148C46.2476 44.8684 46.2786 44.7236 46.3387 44.5898C46.3988 44.456 46.4868 44.3362 46.5968 44.2383C46.7067 44.1403 46.8364 44.0664 46.9771 44.0213C47.1179 43.9762 47.2667 43.961 47.4138 43.9765C47.9427 44.0289 48.3572 44.5234 48.3572 45.1101V46.6843C48.3572 46.8501 48.4238 47.0091 48.5422 47.1263C48.6606 47.2435 48.8213 47.3093 48.9888 47.3093C49.1563 47.3093 49.3169 47.2435 49.4354 47.1263C49.5538 47.0091 49.6203 46.8501 49.6203 46.6843V45.6828C49.6205 45.5368 49.6514 45.3924 49.7113 45.259C49.7711 45.1255 49.8584 45.0059 49.9677 44.9078C50.0779 44.8086 50.2082 44.7338 50.3499 44.6883C50.4916 44.6429 50.6415 44.628 50.7895 44.6445C51.3193 44.6968 51.7369 45.1914 51.7369 45.7781V52.6968L51.7313 52.6945Z" fill="url(#paint10_linear)"/>
</g>
<defs>
<filter id="filter0_d" x="-5" y="0" width="83" height="90" filterUnits="userSpaceOnUse" color-interpolation-filters="sRGB">
<feFlood flood-opacity="0" result="BackgroundImageFix"/>
<feColorMatrix in="SourceAlpha" type="matrix" values="0 0 0 0 0 0 0 0 0 0 0 0 0 0 0 0 0 0 127 0"/>
<feOffset dy="7"/>
<feGaussianBlur stdDeviation="12.5"/>
<feColorMatrix type="matrix" values="0 0 0 0 0.973799 0 0 0 0 0.813345 0 0 0 0 0.535802 0 0 0 0.59 0"/>
<feBlend mode="normal" in2="BackgroundImageFix" result="effect1_dropShadow"/>
<feBlend mode="normal" in="SourceGraphic" in2="effect1_dropShadow" result="shape"/>
</filter>
<linearGradient id="paint0_linear" x1="19.5791" y1="-2.52177" x2="56.8872" y2="-0.737961" gradientUnits="userSpaceOnUse">
<stop stop-color="#DBB777"/>
<stop offset="1" stop-color="#A98341"/>
</linearGradient>
<linearGradient id="paint1_linear" x1="19.5791" y1="-2.52177" x2="56.8872" y2="-0.737961" gradientUnits="userSpaceOnUse">
<stop stop-color="#DBB777"/>
<stop offset="1" stop-color="#A98341"/>
</linearGradient>
<linearGradient id="paint2_linear" x1="19.5791" y1="-2.52177" x2="56.8872" y2="-0.737961" gradientUnits="userSpaceOnUse">
<stop stop-color="#DBB777"/>
<stop offset="1" stop-color="#A98341"/>
</linearGradient>
<linearGradient id="paint3_linear" x1="19.5791" y1="-2.52177" x2="56.8872" y2="-0.737961" gradientUnits="userSpaceOnUse">
<stop stop-color="#DBB777"/>
<stop offset="1" stop-color="#A98341"/>
</linearGradient>
<linearGradient id="paint4_linear" x1="19.5791" y1="-2.52177" x2="56.8872" y2="-0.737961" gradientUnits="userSpaceOnUse">
<stop stop-color="#DBB777"/>
<stop offset="1" stop-color="#A98341"/>
</linearGradient>
<linearGradient id="paint5_linear" x1="19.5791" y1="-2.52177" x2="56.8872" y2="-0.737961" gradientUnits="userSpaceOnUse">
<stop stop-color="#DBB777"/>
<stop offset="1" stop-color="#A98341"/>
</linearGradient>
<linearGradient id="paint6_linear" x1="19.5791" y1="-2.52177" x2="56.8872" y2="-0.737961" gradientUnits="userSpaceOnUse">
<stop stop-color="#DBB777"/>
<stop offset="1" stop-color="#A98341"/>
</linearGradient>
<linearGradient id="paint7_linear" x1="19.5791" y1="-2.52177" x2="56.8872" y2="-0.737961" gradientUnits="userSpaceOnUse">
<stop stop-color="#DBB777"/>
<stop offset="1" stop-color="#A98341"/>
</linearGradient>
<linearGradient id="paint8_linear" x1="19.5791" y1="-2.52177" x2="56.8872" y2="-0.737961" gradientUnits="userSpaceOnUse">
<stop stop-color="#DBB777"/>
<stop offset="1" stop-color="#A98341"/>
</linearGradient>
<linearGradient id="paint9_linear" x1="19.5791" y1="-2.52177" x2="56.8872" y2="-0.737961" gradientUnits="userSpaceOnUse">
<stop stop-color="#DBB777"/>
<stop offset="1" stop-color="#A98341"/>
</linearGradient>
<linearGradient id="paint10_linear" x1="19.5791" y1="-2.52177" x2="56.8872" y2="-0.737961" gradientUnits="userSpaceOnUse">
<stop stop-color="#DBB777"/>
<stop offset="1" stop-color="#A98341"/>
</linearGradient>
</defs>
</svg>
