<svg width="20" height="20" viewBox="0 0 20 20" fill="none" xmlns="http://www.w3.org/2000/svg">
<path d="M13.6163 0H6.18924C2.77154 0 0 2.77159 0 6.18935V13.6166C0 17.0343 2.77154 19.8059 6.18924 19.8059H13.6163C17.034 19.8059 19.8056 17.0343 19.8056 13.6166V6.18935C19.8056 2.77159 17.034 0 13.6163 0ZM17.9488 13.6166C17.9488 16.0057 16.0054 17.9491 13.6163 17.9491H6.18924C3.80019 17.9491 1.85677 16.0057 1.85677 13.6166V6.18935C1.85677 3.80026 3.80019 1.85681 6.18924 1.85681H13.6163C16.0054 1.85681 17.9488 3.80026 17.9488 6.18935V13.6166Z" fill="#D3AE6E"/>
<path d="M9.90305 4.95166C7.16864 4.95166 4.95166 7.16869 4.95166 9.90314C4.95166 12.6376 7.16864 14.8546 9.90305 14.8546C12.6375 14.8546 14.8544 12.6376 14.8544 9.90314C14.8544 7.16869 12.6375 4.95166 9.90305 4.95166ZM9.90305 12.9978C8.1973 12.9978 6.80843 11.6089 6.80843 9.90314C6.80843 8.19612 8.1973 6.80847 9.90305 6.80847C11.6088 6.80847 12.9977 8.19612 12.9977 9.90314C12.9977 11.6089 11.6088 12.9978 9.90305 12.9978Z" fill="#D3AE6E"/>
<path d="M15.2257 5.23998C15.5901 5.23998 15.8855 4.94458 15.8855 4.5802C15.8855 4.21581 15.5901 3.92041 15.2257 3.92041C14.8613 3.92041 14.5659 4.21581 14.5659 4.5802C14.5659 4.94458 14.8613 5.23998 15.2257 5.23998Z" fill="#D3AE6E"/>
</svg>
