<svg width="123" height="131" viewBox="0 0 123 131" fill="none" xmlns="http://www.w3.org/2000/svg">
<g filter="url(#filter0_d)">
<path d="M75.625 18C74.7549 18 74.043 18.7119 74.043 19.582V26.8594C74.043 27.7295 74.7549 28.4414 75.625 28.4414C76.4951 28.4414 77.207 27.7295 77.207 26.8594V19.582C77.207 18.7119 76.4951 18 75.625 18Z" fill="url(#paint0_linear)"/>
<path d="M39.2383 67.3594C38.3682 67.3594 37.6562 68.0713 37.6562 68.9414C37.6562 69.8115 38.3682 70.5234 39.2383 70.5234C40.1084 70.5234 40.8203 69.8115 40.8203 68.9414C40.8203 68.0713 40.1084 67.3594 39.2383 67.3594Z" fill="url(#paint1_linear)"/>
<path d="M97.7734 64.1953C97.7734 60.699 94.9416 57.8672 91.4453 57.8672H79.6275C81.4627 53.1844 82.1904 47.6789 82.048 42.7588C82.0164 41.8254 81.9848 41.2875 81.9373 40.9395C81.8582 37.5223 79.0422 34.7695 75.6092 34.7695C72.1129 34.7695 69.2811 37.6014 69.2811 41.0977V42.6797C69.2811 52.6781 56.435 58.3102 46.7371 60.7148C46.0094 59.0379 44.3324 57.8672 42.3865 57.8672H26.582C25.7119 57.8672 25 58.5791 25 59.4492V97.418C25 98.2881 25.7119 99 26.582 99H42.4023C44.3324 99 45.9936 97.8451 46.7371 96.184C47.5439 96.3896 48.2875 96.5795 48.9678 96.7693C54.4891 98.209 57.5266 99 64.9305 99H81.9531C85.4494 99 88.2812 96.1682 88.2812 92.6719C88.2812 91.3746 87.8857 90.1564 87.2055 89.1598C89.6418 88.3055 91.4453 85.9641 91.4453 83.1797C91.4453 81.8824 91.0656 80.6643 90.3854 79.6518C92.8217 78.7975 94.6094 76.4719 94.6094 73.6875C94.6094 72.3902 94.2139 71.1721 93.5336 70.1754C95.9857 69.3211 97.7734 66.9797 97.7734 64.1953ZM43.9844 94.2539C43.9844 95.124 43.2725 95.8359 42.4023 95.8359H28.1641V61.0312H42.4023C43.2725 61.0312 43.9844 61.7432 43.9844 62.6133V94.2539ZM91.4453 67.3594C88.0598 67.3594 87.2371 67.3594 83.5352 67.3594C82.665 67.3594 81.9531 68.0713 81.9531 68.9414C81.9531 69.8115 82.665 70.5234 83.5352 70.5234H88.2812C90.0215 70.5234 91.4453 71.9473 91.4453 73.6875C91.4453 75.4277 90.0215 76.8516 88.2812 76.8516H80.3711C79.501 76.8516 78.7891 77.5635 78.7891 78.4336C78.7891 79.3037 79.501 80.0156 80.3711 80.0156H85.1172C86.8416 80.0156 88.2812 81.392 88.2812 83.1797C88.2812 84.9199 86.8574 86.3438 85.1172 86.3438C81.7316 86.3438 80.909 86.3438 77.207 86.3438C76.3369 86.3438 75.625 87.0557 75.625 87.9258C75.625 88.7959 76.3369 89.5078 77.207 89.5078H81.9531C83.6934 89.5078 85.1172 90.9316 85.1172 92.6719C85.1172 94.4121 83.6934 95.8359 81.9531 95.8359H64.9463C57.9537 95.8359 55.2168 95.124 49.7746 93.7002C48.9836 93.4945 48.0977 93.2572 47.1484 93.0199V63.8789C58.6023 61.1578 72.4609 54.4975 72.4609 42.6797V41.0977C72.4609 39.3574 73.8848 37.9336 75.625 37.9336C77.3652 37.9336 78.7891 39.3574 78.7891 41.0977C78.7891 41.7779 79.6434 50.226 76.2104 57.8672H70.8789C70.0088 57.8672 69.2969 58.5791 69.2969 59.4492C69.2969 60.3193 70.0088 61.0312 70.8789 61.0312C71.9863 61.0312 89.6418 61.0312 91.4453 61.0312C93.1855 61.0312 94.6094 62.4551 94.6094 64.1953C94.6094 65.9355 93.1855 67.3594 91.4453 67.3594Z" fill="url(#paint2_linear)"/>
<path d="M39.2383 73.6875C38.3682 73.6875 37.6562 74.3994 37.6562 75.2695V87.9258C37.6562 88.7959 38.3682 89.5078 39.2383 89.5078C40.1084 89.5078 40.8203 88.7959 40.8203 87.9258V75.2695C40.8203 74.3994 40.1084 73.6875 39.2383 73.6875Z" fill="url(#paint3_linear)"/>
<path d="M62.9688 37.9336H56.6406C55.7705 37.9336 55.0586 38.6455 55.0586 39.5156C55.0586 40.3857 55.7705 41.0977 56.6406 41.0977H62.9688C63.8389 41.0977 64.5508 40.3857 64.5508 39.5156C64.5508 38.6455 63.8389 37.9336 62.9688 37.9336Z" fill="url(#paint4_linear)"/>
<path d="M94.6094 37.9336H88.2812C87.4111 37.9336 86.6992 38.6455 86.6992 39.5156C86.6992 40.3857 87.4111 41.0977 88.2812 41.0977H94.6094C95.4795 41.0977 96.1914 40.3857 96.1914 39.5156C96.1914 38.6455 95.4795 37.9336 94.6094 37.9336Z" fill="url(#paint5_linear)"/>
<path d="M90.1638 24.9768C89.5469 24.3598 88.5502 24.3598 87.9332 24.9768L83.456 29.4539C82.839 30.0709 82.839 31.0676 83.456 31.6846C84.073 32.3016 85.0697 32.3016 85.6867 31.6846L90.1638 27.2074C90.7808 26.5904 90.7808 25.5937 90.1638 24.9768Z" fill="url(#paint6_linear)"/>
<path d="M67.7938 29.4539L63.3166 24.9768C62.6996 24.3598 61.703 24.3598 61.086 24.9768C60.469 25.5937 60.469 26.5904 61.086 27.2074L65.5631 31.6846C66.1801 32.3016 67.1768 32.3016 67.7938 31.6846C68.4108 31.0676 68.4108 30.0709 67.7938 29.4539Z" fill="url(#paint7_linear)"/>
</g>
<defs>
<filter id="filter0_d" x="0" y="0" width="122.773" height="131" filterUnits="userSpaceOnUse" color-interpolation-filters="sRGB">
<feFlood flood-opacity="0" result="BackgroundImageFix"/>
<feColorMatrix in="SourceAlpha" type="matrix" values="0 0 0 0 0 0 0 0 0 0 0 0 0 0 0 0 0 0 127 0"/>
<feOffset dy="7"/>
<feGaussianBlur stdDeviation="12.5"/>
<feColorMatrix type="matrix" values="0 0 0 0 0.973799 0 0 0 0 0.813345 0 0 0 0 0.535802 0 0 0 0.59 0"/>
<feBlend mode="normal" in2="BackgroundImageFix" result="effect1_dropShadow"/>
<feBlend mode="normal" in="SourceGraphic" in2="effect1_dropShadow" result="shape"/>
</filter>
<linearGradient id="paint0_linear" x1="24.0718" y1="-23.5566" x2="106.311" y2="-19.2745" gradientUnits="userSpaceOnUse">
<stop stop-color="#DBB777"/>
<stop offset="1" stop-color="#A98341"/>
</linearGradient>
<linearGradient id="paint1_linear" x1="24.0718" y1="-23.5566" x2="106.311" y2="-19.2745" gradientUnits="userSpaceOnUse">
<stop stop-color="#DBB777"/>
<stop offset="1" stop-color="#A98341"/>
</linearGradient>
<linearGradient id="paint2_linear" x1="24.0718" y1="-23.5566" x2="106.311" y2="-19.2745" gradientUnits="userSpaceOnUse">
<stop stop-color="#DBB777"/>
<stop offset="1" stop-color="#A98341"/>
</linearGradient>
<linearGradient id="paint3_linear" x1="24.0718" y1="-23.5566" x2="106.311" y2="-19.2745" gradientUnits="userSpaceOnUse">
<stop stop-color="#DBB777"/>
<stop offset="1" stop-color="#A98341"/>
</linearGradient>
<linearGradient id="paint4_linear" x1="24.0718" y1="-23.5566" x2="106.311" y2="-19.2745" gradientUnits="userSpaceOnUse">
<stop stop-color="#DBB777"/>
<stop offset="1" stop-color="#A98341"/>
</linearGradient>
<linearGradient id="paint5_linear" x1="24.0718" y1="-23.5566" x2="106.311" y2="-19.2745" gradientUnits="userSpaceOnUse">
<stop stop-color="#DBB777"/>
<stop offset="1" stop-color="#A98341"/>
</linearGradient>
<linearGradient id="paint6_linear" x1="24.0718" y1="-23.5566" x2="106.311" y2="-19.2745" gradientUnits="userSpaceOnUse">
<stop stop-color="#DBB777"/>
<stop offset="1" stop-color="#A98341"/>
</linearGradient>
<linearGradient id="paint7_linear" x1="24.0718" y1="-23.5566" x2="106.311" y2="-19.2745" gradientUnits="userSpaceOnUse">
<stop stop-color="#DBB777"/>
<stop offset="1" stop-color="#A98341"/>
</linearGradient>
</defs>
</svg>
