<svg width="10" height="10" viewBox="0 0 10 10" fill="none" xmlns="http://www.w3.org/2000/svg">
<path d="M1.96568 6.64733C2.92604 7.82636 4.08212 8.75466 5.40161 9.41152C5.90399 9.65603 6.57585 9.94613 7.32437 9.99586C7.37077 9.99793 7.41516 10 7.46156 10C7.96394 10 8.36746 9.8218 8.69632 9.45504C8.69834 9.45296 8.70238 9.44882 8.70439 9.44467C8.82141 9.29963 8.95457 9.16908 9.09379 9.03025C9.18861 8.93701 9.28546 8.83962 9.37827 8.74016C9.80801 8.28015 9.80801 7.69581 9.37423 7.25031L8.16166 6.00497C7.95587 5.78533 7.70973 5.66929 7.45148 5.66929C7.19323 5.66929 6.94506 5.78533 6.73322 6.0029L6.01092 6.74472C5.94434 6.70535 5.87575 6.67012 5.81118 6.63697C5.73048 6.59552 5.65583 6.55615 5.58925 6.51264C4.93152 6.08371 4.33431 5.52424 3.76334 4.80522C3.47483 4.43017 3.28114 4.11521 3.14596 3.79403C3.33561 3.6179 3.51316 3.43349 3.68465 3.25321C3.74518 3.18898 3.80773 3.12474 3.87027 3.06051C4.08817 2.83672 4.20519 2.5777 4.20519 2.31455C4.20519 2.05139 4.09019 1.79237 3.87027 1.56859L3.26903 0.951098C3.19842 0.878574 3.13184 0.808123 3.06324 0.735599C2.93008 0.594695 2.79087 0.449648 2.65367 0.319105C2.44586 0.109822 2.20173 0 1.94348 0C1.68725 0 1.4411 0.109822 1.22522 0.321177L0.470649 1.09615C0.196258 1.37795 0.0409042 1.71985 0.00862296 2.11562C-0.0297111 2.61086 0.0590625 3.13717 0.289067 3.77331C0.642143 4.75756 1.17478 5.67136 1.96568 6.64733ZM0.500913 2.15914C0.525124 1.88355 0.62802 1.65354 0.821708 1.45462L1.57225 0.683796C1.68927 0.567758 1.81839 0.507667 1.94348 0.507667C2.06655 0.507667 2.19164 0.567758 2.30665 0.68794C2.44182 0.816411 2.56893 0.951098 2.70613 1.09407C2.77473 1.1666 2.84534 1.23912 2.91596 1.31372L3.51719 1.93121C3.64228 2.05968 3.70685 2.19022 3.70685 2.31869C3.70685 2.44716 3.64228 2.5777 3.51719 2.70618C3.45465 2.77041 3.3921 2.83672 3.32956 2.90095C3.14192 3.09573 2.9664 3.28015 2.77271 3.45628C2.76867 3.46042 2.76666 3.4625 2.76262 3.46664C2.59516 3.63862 2.62139 3.80232 2.66174 3.92665C2.66376 3.93286 2.66578 3.93701 2.66779 3.94322C2.82315 4.32656 3.03903 4.69126 3.37596 5.1264C3.98124 5.89308 4.61879 6.48777 5.32091 6.94571C5.40767 7.00373 5.50048 7.04932 5.58723 7.0949C5.66793 7.13634 5.74259 7.17571 5.80917 7.21923C5.81724 7.22337 5.82329 7.22752 5.83136 7.23166C5.89794 7.26689 5.9625 7.28346 6.02706 7.28346C6.18847 7.28346 6.29339 7.17779 6.32768 7.14256L7.08226 6.36759C7.19928 6.24741 7.32639 6.18317 7.45148 6.18317C7.60481 6.18317 7.7299 6.28056 7.80859 6.36759L9.02519 7.615C9.2673 7.86366 9.26528 8.13303 9.01914 8.39619C8.9344 8.48943 8.84562 8.57853 8.7508 8.67178C8.60957 8.81268 8.46228 8.95773 8.32912 9.12143C8.0971 9.37837 7.82069 9.49855 7.46358 9.49855C7.42928 9.49855 7.39297 9.49648 7.35867 9.49441C6.6969 9.45089 6.08154 9.18566 5.61951 8.9598C4.36458 8.3361 3.26298 7.45131 2.34902 6.32822C1.59646 5.39784 1.09005 4.5317 0.755128 3.6034C0.547317 3.03357 0.468631 2.57563 0.500913 2.15914Z" fill="white"/>
</svg>
