<svg width="123" height="124" viewBox="0 0 123 124" fill="none" xmlns="http://www.w3.org/2000/svg">
<g filter="url(#filter0_d)">
<path d="M96.7831 83.7122H93.1331V60.5955C93.1327 60.337 93.0499 60.0853 92.8969 59.877C92.7438 59.6687 92.5283 59.5146 92.2818 59.437C92.0352 59.3593 91.7703 59.3623 91.5255 59.4454C91.2807 59.5284 91.0687 59.6873 90.9203 59.8989L73.887 84.2323C73.7597 84.4146 73.6848 84.6282 73.6704 84.8501C73.656 85.0719 73.7027 85.2935 73.8054 85.4907C73.908 85.6879 74.0628 85.8532 74.2528 85.9686C74.4428 86.0841 74.6608 86.1452 74.8831 86.1455H90.6998V89.7955C90.6998 90.1182 90.828 90.4276 91.0561 90.6558C91.2843 90.884 91.5938 91.0121 91.9165 91.0121C92.2391 91.0121 92.5486 90.884 92.7768 90.6558C93.0049 90.4276 93.1331 90.1182 93.1331 89.7955V86.1455H96.7831C97.1058 86.1455 97.4153 86.0173 97.6434 85.7891C97.8716 85.561 97.9998 85.2515 97.9998 84.9288C97.9998 84.6061 97.8716 84.2967 97.6434 84.0685C97.4153 83.8403 97.1058 83.7122 96.7831 83.7122ZM90.6998 83.7122H77.2191L90.6998 64.4554V83.7122Z" fill="url(#paint0_linear)"/>
<path d="M74.8832 88.5789H60.4794L73.8628 72.8094C73.8933 72.7736 73.9217 72.736 73.9479 72.6969C75.1631 70.902 75.6432 68.7093 75.2892 66.5709C74.9352 64.4325 73.7741 62.5114 72.0454 61.2039C70.5909 60.159 68.8763 59.5357 67.0904 59.4025C65.3044 59.2694 63.5164 59.6315 61.923 60.4491C60.3296 61.2667 58.9927 62.508 58.0594 64.0365C57.1261 65.565 56.6326 67.3214 56.6332 69.1122C56.6332 69.4349 56.7614 69.7444 56.9896 69.9726C57.2178 70.2007 57.5272 70.3289 57.8499 70.3289C58.1726 70.3289 58.4821 70.2007 58.7102 69.9726C58.9384 69.7444 59.0666 69.4349 59.0666 69.1122C59.0662 67.7692 59.4364 66.4521 60.1363 65.3059C60.8363 64.1596 61.8388 63.2287 63.0337 62.6155C64.2286 62.0023 65.5695 61.7307 66.9089 61.8305C68.2482 61.9302 69.534 62.3976 70.6249 63.181C71.8369 64.1094 72.6498 65.4645 72.8984 66.9708C73.147 68.4771 72.8126 70.0215 71.9632 71.2901L56.9222 89.0078C56.7718 89.1848 56.6752 89.4012 56.6439 89.6313C56.6125 89.8615 56.6477 90.0958 56.7452 90.3066C56.8428 90.5174 56.9987 90.6959 57.1944 90.8209C57.3902 90.946 57.6176 91.0124 57.8499 91.0123H74.8832C75.2059 91.0123 75.5154 90.8841 75.7436 90.6559C75.9717 90.4277 76.0999 90.1183 76.0999 89.7956C76.0999 89.4729 75.9717 89.1634 75.7436 88.9353C75.5154 88.7071 75.2059 88.5789 74.8832 88.5789Z" fill="url(#paint1_linear)"/>
<path d="M57.8774 82.5184C57.8833 82.3587 57.8577 82.1994 57.802 82.0496C57.7463 81.8998 57.6617 81.7625 57.553 81.6454C57.4442 81.5283 57.3135 81.4338 57.1682 81.3673C57.023 81.3007 56.866 81.2635 56.7063 81.2576C49.0535 80.9732 41.7904 77.8092 36.3705 72.399C30.9507 66.9887 27.7739 59.7312 27.4759 52.0789H32.3C32.6227 52.0789 32.9321 51.9507 33.1603 51.7225C33.3885 51.4944 33.5167 51.1849 33.5167 50.8622C33.5167 50.5395 33.3885 50.2301 33.1603 50.0019C32.9321 49.7737 32.6227 49.6455 32.3 49.6455H27.4759C27.7695 42.0065 30.9358 34.7597 36.3415 29.3542C41.7473 23.9487 48.9942 20.7829 56.6333 20.4896V24.0955C56.6333 24.4182 56.7615 24.7277 56.9897 24.9559C57.2179 25.184 57.5273 25.3122 57.85 25.3122C58.1727 25.3122 58.4821 25.184 58.7103 24.9559C58.9385 24.7277 59.0667 24.4182 59.0667 24.0955V20.4896C66.6088 20.7814 73.7719 23.8714 79.1596 29.1573C84.5473 34.4432 87.7734 41.5462 88.2089 49.0813L83.4639 44.3363C83.2358 44.108 82.9263 43.9797 82.6036 43.9795C82.2809 43.9794 81.9713 44.1075 81.743 44.3356C81.5148 44.5636 81.3864 44.8731 81.3863 45.1958C81.3861 45.5185 81.5142 45.8281 81.7423 46.0564L88.5343 52.8484C88.6625 53.0027 88.8271 53.1224 89.0134 53.1967C89.1477 53.2293 89.282 53.2617 89.4164 53.294H89.4833C89.5759 53.2876 89.6674 53.2697 89.7556 53.2408C89.8068 53.2349 89.8576 53.2258 89.9076 53.2134C90.0722 53.1543 90.2221 53.0604 90.3472 52.9381L97.232 46.0564C97.4601 45.8281 97.5881 45.5185 97.588 45.1958C97.5878 44.8731 97.4595 44.5636 97.2312 44.3356C97.1182 44.2226 96.984 44.133 96.8363 44.072C96.6887 44.0109 96.5304 43.9795 96.3706 43.9795C96.0479 43.9797 95.7385 44.108 95.5104 44.3363L90.6437 49.1954C90.2251 40.7985 86.5981 32.883 80.5116 27.0832C74.4251 21.2835 66.344 18.0423 57.9367 18.0289C57.9063 18.0289 57.8804 18.0122 57.85 18.0122C57.8196 18.0122 57.7937 18.0274 57.7633 18.0289C39.6882 18.0548 25.0426 32.7004 25.0167 50.7755C25.0167 50.8059 25 50.8318 25 50.8622C25 50.8926 25.0152 50.9185 25.0167 50.9489C25.0471 68.5769 38.9993 83.0385 56.6166 83.6894H56.6607C56.9756 83.6896 57.2784 83.5677 57.5053 83.3493C57.7322 83.1309 57.8656 82.8331 57.8774 82.5184Z" fill="url(#paint2_linear)"/>
<path d="M74.1961 34.5163C73.968 34.2883 73.6586 34.1602 73.3361 34.1602C73.0135 34.1602 72.7042 34.2883 72.476 34.5163L59.3969 47.5954C58.9086 47.3771 58.3797 47.2642 57.8449 47.2642C57.31 47.2642 56.7811 47.3771 56.2928 47.5954L50.103 41.4056C49.873 41.1871 49.5667 41.0671 49.2495 41.0711C48.9322 41.0752 48.6291 41.203 48.4047 41.4274C48.1804 41.6517 48.0525 41.9549 48.0485 42.2721C48.0444 42.5894 48.1644 42.8957 48.383 43.1257L54.5606 49.3033C54.2908 49.8598 54.1668 50.4757 54.2002 51.0932C54.2336 51.7107 54.4234 52.3096 54.7517 52.8336C55.08 53.3577 55.5361 53.7898 56.0771 54.0893C56.6182 54.3888 57.2264 54.5459 57.8449 54.5459C58.4633 54.5459 59.0715 54.3888 59.6126 54.0893C60.1536 53.7898 60.6097 53.3577 60.938 52.8336C61.2663 52.3096 61.4561 51.7107 61.4895 51.0932C61.5229 50.4757 61.3989 49.8598 61.1291 49.3033L74.1915 36.2409C74.3054 36.1281 74.3959 35.994 74.4578 35.8462C74.5197 35.6984 74.5518 35.5398 74.5522 35.3795C74.5526 35.2193 74.5214 35.0605 74.4603 34.9124C74.3991 34.7642 74.3094 34.6296 74.1961 34.5163ZM58.711 51.7215C58.479 51.9427 58.1707 52.0662 57.8502 52.0662C57.5296 52.0662 57.2213 51.9427 56.9894 51.7215C56.8194 51.5512 56.7036 51.3345 56.6568 51.0985C56.61 50.8625 56.6341 50.6179 56.7262 50.3957C56.8184 50.1735 56.9743 49.9835 57.1744 49.8499C57.3744 49.7163 57.6096 49.645 57.8502 49.645C58.0908 49.645 58.3259 49.7163 58.526 49.8499C58.726 49.9835 58.882 50.1735 58.9741 50.3957C59.0662 50.6179 59.0904 50.8625 59.0436 51.0985C58.9967 51.3345 58.881 51.5512 58.711 51.7215Z" fill="url(#paint3_linear)"/>
</g>
<defs>
<filter id="filter0_d" x="0" y="0.012207" width="123" height="123" filterUnits="userSpaceOnUse" color-interpolation-filters="sRGB">
<feFlood flood-opacity="0" result="BackgroundImageFix"/>
<feColorMatrix in="SourceAlpha" type="matrix" values="0 0 0 0 0 0 0 0 0 0 0 0 0 0 0 0 0 0 127 0"/>
<feOffset dy="7"/>
<feGaussianBlur stdDeviation="12.5"/>
<feColorMatrix type="matrix" values="0 0 0 0 0.973799 0 0 0 0 0.813345 0 0 0 0 0.535802 0 0 0 0.59 0"/>
<feBlend mode="normal" in2="BackgroundImageFix" result="effect1_dropShadow"/>
<feBlend mode="normal" in="SourceGraphic" in2="effect1_dropShadow" result="shape"/>
</filter>
<linearGradient id="paint0_linear" x1="24.0689" y1="-19.4401" x2="106.511" y2="-14.6622" gradientUnits="userSpaceOnUse">
<stop stop-color="#DBB777"/>
<stop offset="1" stop-color="#A98341"/>
</linearGradient>
<linearGradient id="paint1_linear" x1="24.0689" y1="-19.4401" x2="106.511" y2="-14.6622" gradientUnits="userSpaceOnUse">
<stop stop-color="#DBB777"/>
<stop offset="1" stop-color="#A98341"/>
</linearGradient>
<linearGradient id="paint2_linear" x1="24.0689" y1="-19.4401" x2="106.511" y2="-14.6622" gradientUnits="userSpaceOnUse">
<stop stop-color="#DBB777"/>
<stop offset="1" stop-color="#A98341"/>
</linearGradient>
<linearGradient id="paint3_linear" x1="24.0689" y1="-19.4401" x2="106.511" y2="-14.6622" gradientUnits="userSpaceOnUse">
<stop stop-color="#DBB777"/>
<stop offset="1" stop-color="#A98341"/>
</linearGradient>
</defs>
</svg>
