<svg width="111" height="123" viewBox="0 0 111 123" fill="none" xmlns="http://www.w3.org/2000/svg">
<g filter="url(#filter0_d)">
<path d="M40.8877 32.6299C40.5831 32.6299 40.291 32.7501 40.0756 32.964C39.8602 33.1779 39.7392 33.4681 39.7392 33.7706C39.74 34.2681 39.5923 34.7546 39.3147 35.1687C39.0371 35.5828 38.642 35.9059 38.1795 36.097C37.717 36.2881 37.2079 36.3387 36.7164 36.2423C36.225 36.146 35.7733 35.9071 35.4186 35.5558C35.0639 35.2045 34.8221 34.7566 34.7237 34.2688C34.6253 33.781 34.6748 33.2752 34.8659 32.8153C35.057 32.3555 35.3811 31.9622 35.7973 31.6853C36.2135 31.4084 36.703 31.2603 37.2039 31.2598C37.5085 31.2598 37.8006 31.1396 38.016 30.9257C38.2314 30.7118 38.3524 30.4217 38.3524 30.1191C38.3524 29.8166 38.2314 29.5265 38.016 29.3126C37.8006 29.0987 37.5085 28.9785 37.2039 28.9785C36.2479 28.9785 35.3133 29.2601 34.5184 29.7876C33.7235 30.3151 33.104 31.0648 32.7381 31.942C32.3723 32.8192 32.2766 33.7844 32.4631 34.7157C32.6496 35.6469 33.1099 36.5023 33.7859 37.1737C34.4619 37.845 35.3232 38.3023 36.2609 38.4875C37.1985 38.6727 38.1704 38.5777 39.0537 38.2143C39.9369 37.851 40.6918 37.2357 41.223 36.4462C41.7541 35.6567 42.0376 34.7286 42.0376 33.7791C42.0387 33.6285 42.0098 33.4791 41.9525 33.3397C41.8952 33.2002 41.8107 33.0734 41.7038 32.9665C41.5969 32.8597 41.4697 32.7749 41.3296 32.7172C41.1896 32.6594 41.0393 32.6297 40.8877 32.6299Z" fill="url(#paint0_linear)"/>
<path d="M40.8877 46.0422C40.5831 46.0422 40.291 46.1624 40.0756 46.3763C39.8602 46.5902 39.7392 46.8803 39.7392 47.1828C39.7398 47.6803 39.5918 48.1667 39.314 48.5806C39.0362 48.9945 38.6411 49.3173 38.1785 49.5082C37.716 49.6991 37.2069 49.7495 36.7155 49.653C36.2242 49.5565 35.7727 49.3175 35.4181 48.9661C35.0635 48.6148 34.8218 48.1669 34.7236 47.6791C34.6253 47.1914 34.6749 46.6856 34.866 46.2258C35.0572 45.766 35.3813 45.3729 35.7974 45.096C36.2136 44.8192 36.703 44.6712 37.2039 44.6706C37.5085 44.6706 37.8006 44.5504 38.016 44.3365C38.2314 44.1226 38.3524 43.8325 38.3524 43.53C38.3524 43.2275 38.2314 42.9373 38.016 42.7234C37.8006 42.5095 37.5085 42.3893 37.2039 42.3893C36.2479 42.3893 35.3133 42.6709 34.5184 43.1984C33.7235 43.7259 33.104 44.4756 32.7381 45.3528C32.3723 46.23 32.2766 47.1953 32.4631 48.1265C32.6496 49.0577 33.1099 49.9131 33.7859 50.5845C34.4619 51.2559 35.3232 51.7131 36.2609 51.8983C37.1985 52.0835 38.1704 51.9885 39.0537 51.6251C39.9369 51.2618 40.6918 50.6465 41.223 49.857C41.7541 49.0676 42.0376 48.1394 42.0376 47.1899C42.0385 47.0394 42.0095 46.8902 41.9521 46.7509C41.8947 46.6116 41.8101 46.485 41.7033 46.3783C41.5964 46.2716 41.4693 46.187 41.3293 46.1293C41.1893 46.0716 41.0392 46.042 40.8877 46.0422Z" fill="url(#paint1_linear)"/>
<path d="M54.391 48.4804H45.7989C45.4943 48.4804 45.2022 48.6005 44.9868 48.8144C44.7714 49.0283 44.6504 49.3185 44.6504 49.621C44.6504 49.9235 44.7714 50.2136 44.9868 50.4275C45.2022 50.6414 45.4943 50.7616 45.7989 50.7616H54.391C54.6956 50.7616 54.9878 50.6414 55.2031 50.4275C55.4185 50.2136 55.5395 49.9235 55.5395 49.621C55.5395 49.3185 55.4185 49.0283 55.2031 48.8144C54.9878 48.6005 54.6956 48.4804 54.391 48.4804Z" fill="url(#paint2_linear)"/>
<path d="M54.391 43.6027H45.7989C45.4943 43.6027 45.2022 43.7229 44.9868 43.9368C44.7714 44.1507 44.6504 44.4408 44.6504 44.7433C44.6504 45.0459 44.7714 45.336 44.9868 45.5499C45.2022 45.7638 45.4943 45.884 45.7989 45.884H54.391C54.6956 45.884 54.9878 45.7638 55.2031 45.5499C55.4185 45.336 55.5395 45.0459 55.5395 44.7433C55.5395 44.4408 55.4185 44.1507 55.2031 43.9368C54.9878 43.7229 54.6956 43.6027 54.391 43.6027Z" fill="url(#paint3_linear)"/>
<path d="M51.9361 61.8912H45.7989C45.4943 61.8912 45.2022 62.0114 44.9868 62.2253C44.7714 62.4392 44.6504 62.7293 44.6504 63.0318C44.6504 63.3344 44.7714 63.6245 44.9868 63.8384C45.2022 64.0523 45.4943 64.1725 45.7989 64.1725H51.9361C52.2407 64.1725 52.5329 64.0523 52.7482 63.8384C52.9636 63.6245 53.0846 63.3344 53.0846 63.0318C53.0846 62.7293 52.9636 62.4392 52.7482 62.2253C52.5329 62.0114 52.2407 61.8912 51.9361 61.8912Z" fill="url(#paint4_linear)"/>
<path d="M54.391 57.0151H45.7989C45.4943 57.0151 45.2022 57.1353 44.9868 57.3492C44.7714 57.5631 44.6504 57.8533 44.6504 58.1558C44.6504 58.4583 44.7714 58.7484 44.9868 58.9623C45.2022 59.1762 45.4943 59.2964 45.7989 59.2964H54.391C54.6956 59.2964 54.9878 59.1762 55.2031 58.9623C55.4185 58.7484 55.5395 58.4583 55.5395 58.1558C55.5395 57.8533 55.4185 57.5631 55.2031 57.3492C54.9878 57.1353 54.6956 57.0151 54.391 57.0151Z" fill="url(#paint5_linear)"/>
<path d="M65.4395 35.0694H45.7989C45.4943 35.0694 45.2022 35.1896 44.9868 35.4035C44.7714 35.6174 44.6504 35.9076 44.6504 36.2101C44.6504 36.5126 44.7714 36.8027 44.9868 37.0166C45.2022 37.2305 45.4943 37.3507 45.7989 37.3507H65.4395C65.7441 37.3507 66.0362 37.2305 66.2516 37.0166C66.467 36.8027 66.588 36.5126 66.588 36.2101C66.588 35.9076 66.467 35.6174 66.2516 35.4035C66.0362 35.1896 65.7441 35.0694 65.4395 35.0694Z" fill="url(#paint6_linear)"/>
<path d="M60.5297 30.1919H45.7989C45.4943 30.1919 45.2022 30.3121 44.9868 30.526C44.7714 30.7399 44.6504 31.03 44.6504 31.3325C44.6504 31.635 44.7714 31.9251 44.9868 32.1391C45.2022 32.353 45.4943 32.4731 45.7989 32.4731H60.5297C60.8343 32.4731 61.1264 32.353 61.3418 32.1391C61.5572 31.9251 61.6782 31.635 61.6782 31.3325C61.6782 31.03 61.5572 30.7399 61.3418 30.526C61.1264 30.3121 60.8343 30.1919 60.5297 30.1919Z" fill="url(#paint7_linear)"/>
<path d="M40.8877 59.4531C40.5831 59.4531 40.291 59.5733 40.0756 59.7872C39.8602 60.0011 39.7392 60.2913 39.7392 60.5938C39.7398 61.0912 39.5918 61.5776 39.314 61.9916C39.0362 62.4055 38.6411 62.7283 38.1785 62.9192C37.716 63.11 37.2069 63.1604 36.7155 63.0639C36.2242 62.9674 35.7727 62.7284 35.4181 62.3771C35.0635 62.0257 34.8218 61.5779 34.7236 61.0901C34.6253 60.6023 34.6749 60.0966 34.866 59.6368C35.0572 59.177 35.3813 58.7838 35.7974 58.507C36.2136 58.2302 36.703 58.0821 37.2039 58.0815C37.5085 58.0815 37.8006 57.9614 38.016 57.7475C38.2314 57.5336 38.3524 57.2434 38.3524 56.9409C38.3524 56.6384 38.2314 56.3483 38.016 56.1344C37.8006 55.9205 37.5085 55.8003 37.2039 55.8003C36.2479 55.8003 35.3133 56.0818 34.5184 56.6093C33.7235 57.1368 33.104 57.8866 32.7381 58.7638C32.3723 59.641 32.2766 60.6062 32.4631 61.5375C32.6496 62.4687 33.1099 63.3241 33.7859 63.9954C34.4619 64.6668 35.3232 65.124 36.2609 65.3093C37.1985 65.4945 38.1704 65.3994 39.0537 65.0361C39.9369 64.6727 40.6918 64.0574 41.223 63.268C41.7541 62.4785 42.0376 61.5504 42.0376 60.6009C42.0385 60.4504 42.0095 60.3012 41.9521 60.1619C41.8947 60.0226 41.8101 59.8959 41.7033 59.7892C41.5964 59.6825 41.4693 59.5979 41.3293 59.5402C41.1893 59.4826 41.0392 59.453 40.8877 59.4531Z" fill="url(#paint8_linear)"/>
<path d="M70.3496 18H28.6106C27.6537 18 26.736 18.3772 26.059 19.0488C25.382 19.7203 25.0011 20.6313 25 21.5816V72.7885C25.0011 73.738 25.3814 74.6484 26.0575 75.3198C26.7336 75.9912 27.6502 76.3689 28.6063 76.3701H49.4801C49.7847 76.3701 50.0768 76.2499 50.2922 76.036C50.5076 75.8221 50.6286 75.5319 50.6286 75.2294C50.6286 74.9269 50.5076 74.6368 50.2922 74.4229C50.0768 74.209 49.7847 74.0888 49.4801 74.0888H28.6106C28.2647 74.0888 27.933 73.9525 27.6883 73.7097C27.4436 73.467 27.306 73.1377 27.3056 72.7942V21.5816C27.3052 21.4111 27.3387 21.2422 27.4041 21.0845C27.4695 20.9268 27.5655 20.7835 27.6867 20.6628C27.8079 20.542 27.9519 20.4462 28.1104 20.3807C28.2689 20.3152 28.4389 20.2814 28.6106 20.2812H70.3496C70.5215 20.2811 70.6918 20.3146 70.8506 20.3799C71.0095 20.4452 71.1538 20.541 71.2753 20.6618C71.3968 20.7826 71.4931 20.926 71.5587 21.0838C71.6242 21.2417 71.6578 21.4108 71.6574 21.5816V59.3776C71.6574 59.6801 71.7784 59.9702 71.9938 60.1841C72.2092 60.398 72.5013 60.5182 72.8059 60.5182C73.1105 60.5182 73.4026 60.398 73.618 60.1841C73.8334 59.9702 73.9544 59.6801 73.9544 59.3776V21.5816C73.9532 20.6323 73.5731 19.7222 72.8974 19.0508C72.2216 18.3794 71.3054 18.0015 70.3496 18Z" fill="url(#paint9_linear)"/>
<path d="M81.2171 64.3508C80.1519 64.245 79.0858 64.5429 78.2324 65.1848C77.9042 64.6213 77.4475 64.1419 76.899 63.7854C76.3505 63.4288 75.7255 63.2049 75.0741 63.1317C74.0089 63.0259 72.9428 63.3239 72.0894 63.9658C71.7614 63.4021 71.3047 62.9226 70.7562 62.5661C70.2077 62.2095 69.5826 61.9857 68.9311 61.9127C68.1217 61.8323 67.3061 61.9842 66.581 62.3504V47.7989C66.5808 47.2123 66.4568 46.6324 66.2169 46.0964C65.977 45.5605 65.6265 45.0805 65.1881 44.6874C64.7498 44.2944 64.2333 43.9971 63.672 43.8147C63.1107 43.6323 62.5171 43.5688 61.9296 43.6284C59.8049 43.8409 58.141 45.7486 58.141 47.9728V62.5614L54.7587 65.922C53.8768 66.7911 53.2349 67.8711 52.895 69.058C52.5551 70.2449 52.5285 71.4987 52.8178 72.6987L55.3861 83.5347C55.8824 85.6637 57.0923 87.562 58.8176 88.9184C60.5428 90.2749 62.6809 91.0088 64.8812 91H75.2607C77.8443 90.9967 80.3212 89.9762 82.1487 88.1624C83.9761 86.3485 85.005 83.8892 85.0099 81.3233V68.6951C85.0099 66.4766 83.3418 64.5632 81.2171 64.3508ZM82.7029 81.3176C82.7033 83.2789 81.9197 85.1601 80.5242 86.5479C79.1287 87.9357 77.2355 88.7165 75.2607 88.7188H64.8812C63.2017 88.7237 61.5702 88.1621 60.2539 87.126C58.9376 86.0899 58.0145 84.6407 57.6357 83.0157L55.0674 72.1797C54.8703 71.3586 54.8889 70.501 55.1215 69.6891C55.354 68.8772 55.7926 68.1383 56.3953 67.5431L58.1511 65.7994V69.7459C58.1511 70.0484 58.2721 70.3386 58.4875 70.5525C58.7029 70.7664 58.995 70.8865 59.2996 70.8865C59.6042 70.8865 59.8963 70.7664 60.1117 70.5525C60.3271 70.3386 60.4481 70.0484 60.4481 69.7459V47.9685C60.4481 46.9035 61.2018 45.9952 62.1636 45.8997C62.4319 45.8709 62.7033 45.8985 62.9601 45.9808C63.2168 46.0632 63.4533 46.1983 63.6539 46.3776C63.8545 46.5568 64.0148 46.776 64.1244 47.0209C64.234 47.2658 64.2903 47.5309 64.2898 47.7989V67.9109C64.2898 68.2134 64.4108 68.5036 64.6261 68.7175C64.8415 68.9314 65.1336 69.0516 65.4382 69.0516C65.7428 69.0516 66.035 68.9314 66.2504 68.7175C66.4657 68.5036 66.5867 68.2134 66.5867 67.9109V66.0831C66.5872 65.8169 66.6436 65.5537 66.7524 65.3104C66.8611 65.0671 67.0199 64.849 67.2184 64.6701C67.4191 64.4903 67.656 64.355 67.9135 64.2731C68.1709 64.1913 68.4429 64.1648 68.7114 64.1953C69.6733 64.2909 70.4342 65.1934 70.4342 66.2642V69.1371C70.4342 69.4396 70.5552 69.7297 70.7706 69.9437C70.9859 70.1576 71.2781 70.2777 71.5827 70.2777C71.8873 70.2777 72.1794 70.1576 72.3948 69.9437C72.6102 69.7297 72.7312 69.4396 72.7312 69.1371V67.3021C72.7308 67.0349 72.7872 66.7706 72.8965 66.5264C73.0059 66.2823 73.1657 66.0637 73.3658 65.8849C73.5658 65.7062 73.8015 65.5713 74.0574 65.489C74.3134 65.4067 74.584 65.3788 74.8516 65.4073C75.8134 65.5028 76.5671 66.4053 76.5671 67.4761V70.349C76.5671 70.6515 76.6881 70.9417 76.9035 71.1556C77.1189 71.3695 77.411 71.4896 77.7156 71.4896C78.0202 71.4896 78.3123 71.3695 78.5277 71.1556C78.7431 70.9417 78.8641 70.6515 78.8641 70.349V68.5212C78.8643 68.2547 78.9207 67.9913 79.0294 67.7477C79.1382 67.5041 79.297 67.2858 79.4958 67.1068C79.6961 66.9257 79.933 66.7892 80.1908 66.7063C80.4485 66.6235 80.721 66.5962 80.9902 66.6263C81.9535 66.7218 82.713 67.6244 82.713 68.6951V81.3218L82.7029 81.3176Z" fill="url(#paint10_linear)"/>
</g>
<defs>
<filter id="filter0_d" x="0" y="0" width="110.01" height="123" filterUnits="userSpaceOnUse" color-interpolation-filters="sRGB">
<feFlood flood-opacity="0" result="BackgroundImageFix"/>
<feColorMatrix in="SourceAlpha" type="matrix" values="0 0 0 0 0 0 0 0 0 0 0 0 0 0 0 0 0 0 127 0"/>
<feOffset dy="7"/>
<feGaussianBlur stdDeviation="12.5"/>
<feColorMatrix type="matrix" values="0 0 0 0 0.973799 0 0 0 0 0.813345 0 0 0 0 0.535802 0 0 0 0.59 0"/>
<feBlend mode="normal" in2="BackgroundImageFix" result="effect1_dropShadow"/>
<feBlend mode="normal" in="SourceGraphic" in2="effect1_dropShadow" result="shape"/>
</filter>
<linearGradient id="paint0_linear" x1="24.2346" y1="-19.4523" x2="92.0799" y2="-16.22" gradientUnits="userSpaceOnUse">
<stop stop-color="#DBB777"/>
<stop offset="1" stop-color="#A98341"/>
</linearGradient>
<linearGradient id="paint1_linear" x1="24.2346" y1="-19.4523" x2="92.0799" y2="-16.22" gradientUnits="userSpaceOnUse">
<stop stop-color="#DBB777"/>
<stop offset="1" stop-color="#A98341"/>
</linearGradient>
<linearGradient id="paint2_linear" x1="24.2346" y1="-19.4523" x2="92.0799" y2="-16.22" gradientUnits="userSpaceOnUse">
<stop stop-color="#DBB777"/>
<stop offset="1" stop-color="#A98341"/>
</linearGradient>
<linearGradient id="paint3_linear" x1="24.2346" y1="-19.4523" x2="92.0799" y2="-16.22" gradientUnits="userSpaceOnUse">
<stop stop-color="#DBB777"/>
<stop offset="1" stop-color="#A98341"/>
</linearGradient>
<linearGradient id="paint4_linear" x1="24.2346" y1="-19.4523" x2="92.0799" y2="-16.22" gradientUnits="userSpaceOnUse">
<stop stop-color="#DBB777"/>
<stop offset="1" stop-color="#A98341"/>
</linearGradient>
<linearGradient id="paint5_linear" x1="24.2346" y1="-19.4523" x2="92.0799" y2="-16.22" gradientUnits="userSpaceOnUse">
<stop stop-color="#DBB777"/>
<stop offset="1" stop-color="#A98341"/>
</linearGradient>
<linearGradient id="paint6_linear" x1="24.2346" y1="-19.4523" x2="92.0799" y2="-16.22" gradientUnits="userSpaceOnUse">
<stop stop-color="#DBB777"/>
<stop offset="1" stop-color="#A98341"/>
</linearGradient>
<linearGradient id="paint7_linear" x1="24.2346" y1="-19.4523" x2="92.0799" y2="-16.22" gradientUnits="userSpaceOnUse">
<stop stop-color="#DBB777"/>
<stop offset="1" stop-color="#A98341"/>
</linearGradient>
<linearGradient id="paint8_linear" x1="24.2346" y1="-19.4523" x2="92.0799" y2="-16.22" gradientUnits="userSpaceOnUse">
<stop stop-color="#DBB777"/>
<stop offset="1" stop-color="#A98341"/>
</linearGradient>
<linearGradient id="paint9_linear" x1="24.2346" y1="-19.4523" x2="92.0799" y2="-16.22" gradientUnits="userSpaceOnUse">
<stop stop-color="#DBB777"/>
<stop offset="1" stop-color="#A98341"/>
</linearGradient>
<linearGradient id="paint10_linear" x1="24.2346" y1="-19.4523" x2="92.0799" y2="-16.22" gradientUnits="userSpaceOnUse">
<stop stop-color="#DBB777"/>
<stop offset="1" stop-color="#A98341"/>
</linearGradient>
</defs>
</svg>
