<?xml version="1.0" encoding="UTF-8"?><!DOCTYPE svg PUBLIC "-//W3C//DTD SVG 1.1//EN" "http://www.w3.org/Graphics/SVG/1.1/DTD/svg11.dtd"><svg xmlns="http://www.w3.org/2000/svg" xmlns:xlink="http://www.w3.org/1999/xlink"><defs>
<filter id="filter0_d" x="-5" y="0" width="90" height="90" filterUnits="userSpaceOnUse" color-interpolation-filters="sRGB">
<feFlood flood-opacity="0" result="BackgroundImageFix"/>
<feColorMatrix in="SourceAlpha" type="matrix" values="0 0 0 0 0 0 0 0 0 0 0 0 0 0 0 0 0 0 127 0"/>
<feOffset dy="7"/>
<feGaussianBlur stdDeviation="12.5"/>
<feColorMatrix type="matrix" values="0 0 0 0 0.973799 0 0 0 0 0.813345 0 0 0 0 0.535802 0 0 0 0.59 0"/>
<feBlend mode="normal" in2="BackgroundImageFix" result="effect1_dropShadow"/>
<feBlend mode="normal" in="SourceGraphic" in2="effect1_dropShadow" result="shape"/>
</filter>
<linearGradient id="paint0_linear" x1="19.4898" y1="-2.52177" x2="64.6635" y2="0.0962693" gradientUnits="userSpaceOnUse">
<stop stop-color="#DBB777"/>
<stop offset="1" stop-color="#A98341"/>
</linearGradient>

<filter id="filter0_d" x="-5" y="0" width="83" height="90" filterUnits="userSpaceOnUse" color-interpolation-filters="sRGB">
<feFlood flood-opacity="0" result="BackgroundImageFix"/>
<feColorMatrix in="SourceAlpha" type="matrix" values="0 0 0 0 0 0 0 0 0 0 0 0 0 0 0 0 0 0 127 0"/>
<feOffset dy="7"/>
<feGaussianBlur stdDeviation="12.5"/>
<feColorMatrix type="matrix" values="0 0 0 0 0.973799 0 0 0 0 0.813345 0 0 0 0 0.535802 0 0 0 0.59 0"/>
<feBlend mode="normal" in2="BackgroundImageFix" result="effect1_dropShadow"/>
<feBlend mode="normal" in="SourceGraphic" in2="effect1_dropShadow" result="shape"/>
</filter>
<linearGradient id="paint0_linear" x1="19.5791" y1="-2.52177" x2="56.8872" y2="-0.737961" gradientUnits="userSpaceOnUse">
<stop stop-color="#DBB777"/>
<stop offset="1" stop-color="#A98341"/>
</linearGradient>
<linearGradient id="paint1_linear" x1="19.5791" y1="-2.52177" x2="56.8872" y2="-0.737961" gradientUnits="userSpaceOnUse">
<stop stop-color="#DBB777"/>
<stop offset="1" stop-color="#A98341"/>
</linearGradient>
<linearGradient id="paint2_linear" x1="19.5791" y1="-2.52177" x2="56.8872" y2="-0.737961" gradientUnits="userSpaceOnUse">
<stop stop-color="#DBB777"/>
<stop offset="1" stop-color="#A98341"/>
</linearGradient>
<linearGradient id="paint3_linear" x1="19.5791" y1="-2.52177" x2="56.8872" y2="-0.737961" gradientUnits="userSpaceOnUse">
<stop stop-color="#DBB777"/>
<stop offset="1" stop-color="#A98341"/>
</linearGradient>
<linearGradient id="paint4_linear" x1="19.5791" y1="-2.52177" x2="56.8872" y2="-0.737961" gradientUnits="userSpaceOnUse">
<stop stop-color="#DBB777"/>
<stop offset="1" stop-color="#A98341"/>
</linearGradient>
<linearGradient id="paint5_linear" x1="19.5791" y1="-2.52177" x2="56.8872" y2="-0.737961" gradientUnits="userSpaceOnUse">
<stop stop-color="#DBB777"/>
<stop offset="1" stop-color="#A98341"/>
</linearGradient>
<linearGradient id="paint6_linear" x1="19.5791" y1="-2.52177" x2="56.8872" y2="-0.737961" gradientUnits="userSpaceOnUse">
<stop stop-color="#DBB777"/>
<stop offset="1" stop-color="#A98341"/>
</linearGradient>
<linearGradient id="paint7_linear" x1="19.5791" y1="-2.52177" x2="56.8872" y2="-0.737961" gradientUnits="userSpaceOnUse">
<stop stop-color="#DBB777"/>
<stop offset="1" stop-color="#A98341"/>
</linearGradient>
<linearGradient id="paint8_linear" x1="19.5791" y1="-2.52177" x2="56.8872" y2="-0.737961" gradientUnits="userSpaceOnUse">
<stop stop-color="#DBB777"/>
<stop offset="1" stop-color="#A98341"/>
</linearGradient>
<linearGradient id="paint9_linear" x1="19.5791" y1="-2.52177" x2="56.8872" y2="-0.737961" gradientUnits="userSpaceOnUse">
<stop stop-color="#DBB777"/>
<stop offset="1" stop-color="#A98341"/>
</linearGradient>
<linearGradient id="paint10_linear" x1="19.5791" y1="-2.52177" x2="56.8872" y2="-0.737961" gradientUnits="userSpaceOnUse">
<stop stop-color="#DBB777"/>
<stop offset="1" stop-color="#A98341"/>
</linearGradient>

<filter id="filter0_d" x="-5" y="0" width="89.5314" height="94.0001" filterUnits="userSpaceOnUse" color-interpolation-filters="sRGB">
<feFlood flood-opacity="0" result="BackgroundImageFix"/>
<feColorMatrix in="SourceAlpha" type="matrix" values="0 0 0 0 0 0 0 0 0 0 0 0 0 0 0 0 0 0 127 0"/>
<feOffset dy="7"/>
<feGaussianBlur stdDeviation="12.5"/>
<feColorMatrix type="matrix" values="0 0 0 0 0.973799 0 0 0 0 0.813345 0 0 0 0 0.535802 0 0 0 0.59 0"/>
<feBlend mode="normal" in2="BackgroundImageFix" result="effect1_dropShadow"/>
<feBlend mode="normal" in="SourceGraphic" in2="effect1_dropShadow" result="shape"/>
</filter>
<linearGradient id="paint0_linear" x1="19.4958" y1="-4.57401" x2="64.169" y2="-2.24792" gradientUnits="userSpaceOnUse">
<stop stop-color="#DBB777"/>
<stop offset="1" stop-color="#A98341"/>
</linearGradient>
<linearGradient id="paint1_linear" x1="19.4958" y1="-4.57401" x2="64.169" y2="-2.24792" gradientUnits="userSpaceOnUse">
<stop stop-color="#DBB777"/>
<stop offset="1" stop-color="#A98341"/>
</linearGradient>
<linearGradient id="paint2_linear" x1="19.4958" y1="-4.57401" x2="64.169" y2="-2.24792" gradientUnits="userSpaceOnUse">
<stop stop-color="#DBB777"/>
<stop offset="1" stop-color="#A98341"/>
</linearGradient>
<linearGradient id="paint3_linear" x1="19.4958" y1="-4.57401" x2="64.169" y2="-2.24792" gradientUnits="userSpaceOnUse">
<stop stop-color="#DBB777"/>
<stop offset="1" stop-color="#A98341"/>
</linearGradient>
<linearGradient id="paint4_linear" x1="19.4958" y1="-4.57401" x2="64.169" y2="-2.24792" gradientUnits="userSpaceOnUse">
<stop stop-color="#DBB777"/>
<stop offset="1" stop-color="#A98341"/>
</linearGradient>
<linearGradient id="paint5_linear" x1="19.4958" y1="-4.57401" x2="64.169" y2="-2.24792" gradientUnits="userSpaceOnUse">
<stop stop-color="#DBB777"/>
<stop offset="1" stop-color="#A98341"/>
</linearGradient>
<linearGradient id="paint6_linear" x1="19.4958" y1="-4.57401" x2="64.169" y2="-2.24792" gradientUnits="userSpaceOnUse">
<stop stop-color="#DBB777"/>
<stop offset="1" stop-color="#A98341"/>
</linearGradient>
<linearGradient id="paint7_linear" x1="19.4958" y1="-4.57401" x2="64.169" y2="-2.24792" gradientUnits="userSpaceOnUse">
<stop stop-color="#DBB777"/>
<stop offset="1" stop-color="#A98341"/>
</linearGradient>

<filter id="filter0_d" x="-5" y="0" width="91.0859" height="89.6508" filterUnits="userSpaceOnUse" color-interpolation-filters="sRGB">
<feFlood flood-opacity="0" result="BackgroundImageFix"/>
<feColorMatrix in="SourceAlpha" type="matrix" values="0 0 0 0 0 0 0 0 0 0 0 0 0 0 0 0 0 0 127 0"/>
<feOffset dy="7"/>
<feGaussianBlur stdDeviation="12.5"/>
<feColorMatrix type="matrix" values="0 0 0 0 0.973799 0 0 0 0 0.813345 0 0 0 0 0.535802 0 0 0 0.59 0"/>
<feBlend mode="normal" in2="BackgroundImageFix" result="effect1_dropShadow"/>
<feBlend mode="normal" in="SourceGraphic" in2="effect1_dropShadow" result="shape"/>
</filter>
<linearGradient id="paint0_linear" x1="25.4729" y1="49.7461" x2="28.3393" y2="49.9207" gradientUnits="userSpaceOnUse">
<stop stop-color="#DBB777"/>
<stop offset="1" stop-color="#A98341"/>
</linearGradient>
<linearGradient id="paint1_linear" x1="20.1117" y1="32.0908" x2="21.8713" y2="32.1434" gradientUnits="userSpaceOnUse">
<stop stop-color="#DBB777"/>
<stop offset="1" stop-color="#A98341"/>
</linearGradient>
<linearGradient id="paint2_linear" x1="22.6076" y1="45.9349" x2="25.0787" y2="46.0528" gradientUnits="userSpaceOnUse">
<stop stop-color="#DBB777"/>
<stop offset="1" stop-color="#A98341"/>
</linearGradient>
<linearGradient id="paint3_linear" x1="20.7172" y1="41.5108" x2="22.7844" y2="41.5866" gradientUnits="userSpaceOnUse">
<stop stop-color="#DBB777"/>
<stop offset="1" stop-color="#A98341"/>
</linearGradient>
<linearGradient id="paint4_linear" x1="21.262" y1="27.8376" x2="23.4727" y2="27.9263" gradientUnits="userSpaceOnUse">
<stop stop-color="#DBB777"/>
<stop offset="1" stop-color="#A98341"/>
</linearGradient>
<linearGradient id="paint5_linear" x1="19.9822" y1="36.8689" x2="21.5648" y2="36.9123" gradientUnits="userSpaceOnUse">
<stop stop-color="#DBB777"/>
<stop offset="1" stop-color="#A98341"/>
</linearGradient>
<linearGradient id="paint6_linear" x1="35.0171" y1="18.3185" x2="38.3838" y2="18.7065" gradientUnits="userSpaceOnUse">
<stop stop-color="#DBB777"/>
<stop offset="1" stop-color="#A98341"/>
</linearGradient>
<linearGradient id="paint7_linear" x1="23.488" y1="24.0579" x2="26.1121" y2="24.1937" gradientUnits="userSpaceOnUse">
<stop stop-color="#DBB777"/>
<stop offset="1" stop-color="#A98341"/>
</linearGradient>
<linearGradient id="paint8_linear" x1="39.7306" y1="18.2702" x2="43.0821" y2="18.6727" gradientUnits="userSpaceOnUse">
<stop stop-color="#DBB777"/>
<stop offset="1" stop-color="#A98341"/>
</linearGradient>
<linearGradient id="paint9_linear" x1="26.6805" y1="21.1383" x2="29.6195" y2="21.3325" gradientUnits="userSpaceOnUse">
<stop stop-color="#DBB777"/>
<stop offset="1" stop-color="#A98341"/>
</linearGradient>
<linearGradient id="paint10_linear" x1="30.6377" y1="19.1265" x2="33.8636" y2="19.4027" gradientUnits="userSpaceOnUse">
<stop stop-color="#DBB777"/>
<stop offset="1" stop-color="#A98341"/>
</linearGradient>
<linearGradient id="paint11_linear" x1="38.0981" y1="55.6835" x2="41.4113" y2="56.1229" gradientUnits="userSpaceOnUse">
<stop stop-color="#DBB777"/>
<stop offset="1" stop-color="#A98341"/>
</linearGradient>
<linearGradient id="paint12_linear" x1="56.2615" y1="40.8826" x2="58.2382" y2="40.9523" gradientUnits="userSpaceOnUse">
<stop stop-color="#DBB777"/>
<stop offset="1" stop-color="#A98341"/>
</linearGradient>
<linearGradient id="paint13_linear" x1="56.7396" y1="31.5203" x2="58.5586" y2="31.5789" gradientUnits="userSpaceOnUse">
<stop stop-color="#DBB777"/>
<stop offset="1" stop-color="#A98341"/>
</linearGradient>
<linearGradient id="paint14_linear" x1="24.0135" y1="-0.0268796" x2="65.3418" y2="2.4684" gradientUnits="userSpaceOnUse">
<stop stop-color="#DBB777"/>
<stop offset="1" stop-color="#A98341"/>
</linearGradient>
<linearGradient id="paint15_linear" x1="54.1407" y1="45.3173" x2="56.5756" y2="45.4289" gradientUnits="userSpaceOnUse">
<stop stop-color="#DBB777"/>
<stop offset="1" stop-color="#A98341"/>
</linearGradient>
<linearGradient id="paint16_linear" x1="57.2581" y1="36.0561" x2="58.7789" y2="36.0949" gradientUnits="userSpaceOnUse">
<stop stop-color="#DBB777"/>
<stop offset="1" stop-color="#A98341"/>
</linearGradient>
<linearGradient id="paint17_linear" x1="33.4436" y1="54.8178" x2="36.8321" y2="55.1727" gradientUnits="userSpaceOnUse">
<stop stop-color="#DBB777"/>
<stop offset="1" stop-color="#A98341"/>
</linearGradient>
<linearGradient id="paint18_linear" x1="42.7728" y1="54.5903" x2="46.0083" y2="54.9065" gradientUnits="userSpaceOnUse">
<stop stop-color="#DBB777"/>
<stop offset="1" stop-color="#A98341"/>
</linearGradient>
<linearGradient id="paint19_linear" x1="29.176" y1="52.7753" x2="32.2914" y2="53.0174" gradientUnits="userSpaceOnUse">
<stop stop-color="#DBB777"/>
<stop offset="1" stop-color="#A98341"/>
</linearGradient>
<linearGradient id="paint20_linear" x1="51.0349" y1="49.2398" x2="53.8303" y2="49.4034" gradientUnits="userSpaceOnUse">
<stop stop-color="#DBB777"/>
<stop offset="1" stop-color="#A98341"/>
</linearGradient>
<linearGradient id="paint21_linear" x1="47.1855" y1="52.4036" x2="50.2751" y2="52.6358" gradientUnits="userSpaceOnUse">
<stop stop-color="#DBB777"/>
<stop offset="1" stop-color="#A98341"/>
</linearGradient>
</defs><symbol id="arrow-left" viewBox="0 0 7 10">
<path d="M6 1L2 5L6 9" stroke="#D3AE6E" stroke-width="2"/>
</symbol><symbol id="arrow-right" viewBox="0 0 7 10">
<path d="M1 9L5 5L1 1" stroke="#D3AE6E" stroke-width="2"/>
</symbol><symbol id="cash" viewBox="0 0 85 90">
<g filter="url(#filter0_d)">
<path d="M60 36.6336H58.0611V27.8054C58.0585 26.7888 57.6491 25.8146 56.9225 25.0962C56.1959 24.3778 55.2113 23.9737 54.1844 23.9724H51.5577L48.8755 19.1851C48.7272 18.9205 48.5278 18.6875 48.2885 18.4994C48.0492 18.3112 47.7748 18.1716 47.481 18.0885C47.1872 18.0054 46.8797 17.9805 46.5761 18.0151C46.2726 18.0498 45.9789 18.1433 45.7119 18.2904L35.3958 23.9724H23.8767C22.8498 23.9737 21.8652 24.3778 21.1386 25.0962C20.412 25.8146 20.0026 26.7888 20 27.8054V54.161C20.0013 55.1786 20.4101 56.1541 21.1368 56.8738C21.8635 57.5934 22.8488 57.9984 23.8767 58H54.1844C55.2125 57.9987 56.1981 57.5939 56.925 56.8742C57.652 56.1545 58.061 55.1788 58.0623 54.161V46.421H60V36.6336ZM54.1844 25.5025C54.7558 25.5046 55.3063 25.7152 55.7306 26.094C56.1549 26.4729 56.4232 26.9933 56.4841 27.5558H53.5702L52.4216 25.5085L54.1844 25.5025ZM46.4624 19.6318C46.6428 19.5368 46.8534 19.5149 47.0499 19.5706C47.2464 19.6263 47.4133 19.7553 47.5157 19.9304L51.7966 27.5486H32.0801L46.4624 19.6318ZM56.5094 54.161C56.5081 54.771 56.2627 55.3556 55.8269 55.7868C55.3911 56.218 54.8005 56.4606 54.1844 56.4615H23.8767C23.2599 56.4609 22.6686 56.2181 22.2325 55.7863C21.7964 55.3546 21.5511 54.7692 21.5504 54.1586V27.8054C21.5511 27.1948 21.7964 26.6095 22.2325 26.1777C22.6686 25.746 23.2599 25.5031 23.8767 25.5025H32.6074L28.8888 27.5558H24.3617C24.1614 27.5636 23.9719 27.6479 23.833 27.7909C23.6941 27.934 23.6165 28.1248 23.6165 28.3232C23.6165 28.5217 23.6941 28.7124 23.833 28.8555C23.9719 28.9985 24.1614 29.0828 24.3617 29.0907H56.5106V36.6336H50.8398C49.5735 36.6349 48.3594 37.1333 47.4639 38.0196C46.5684 38.9059 46.0646 40.1077 46.063 41.3613V41.6921C46.0627 42.9471 46.5656 44.1508 47.4613 45.0388C48.357 45.9268 49.5721 46.4266 50.8398 46.4281H56.5106V54.167L56.5094 54.161ZM58.4484 44.8861H50.8398C49.9843 44.8855 49.164 44.5488 48.5591 43.9499C47.9542 43.3511 47.6141 42.539 47.6134 41.6921V41.3625C47.6141 40.5156 47.9542 39.7035 48.5591 39.1047C49.164 38.5058 49.9843 38.1691 50.8398 38.1685H58.4484V44.8861ZM53.2191 41.5906C53.2191 41.9258 53.1187 42.2535 52.9306 42.5323C52.7424 42.811 52.475 43.0282 52.1622 43.1565C51.8493 43.2848 51.5051 43.3184 51.173 43.253C50.8409 43.1876 50.5358 43.0261 50.2964 42.7891C50.0569 42.5521 49.8938 42.25 49.8278 41.9213C49.7617 41.5925 49.7956 41.2517 49.9252 40.942C50.0548 40.6323 50.2742 40.3676 50.5558 40.1813C50.8374 39.9951 51.1684 39.8957 51.507 39.8957C51.9611 39.8957 52.3966 40.0742 52.7176 40.3921C53.0387 40.71 53.2191 41.1411 53.2191 41.5906Z" fill="url(#paint0_linear)"/>
</g>

</symbol><symbol id="checked" viewBox="0 0 8 6">
<path fill-rule="evenodd" clip-rule="evenodd" d="M7.1661 1.16555L2.60041 5.73124L0.034729 3.16555L1.1661 2.03418L2.60041 3.46849L6.03473 0.0341797L7.1661 1.16555Z" fill="#D3AE6E"/>
</symbol><symbol id="doc" viewBox="0 0 78 90">
<g filter="url(#filter0_d)">
<path d="M28.7368 26.0164C28.5693 26.0164 28.4086 26.0822 28.2902 26.1995C28.1717 26.3167 28.1052 26.4756 28.1052 26.6414C28.1057 26.914 28.0244 27.1806 27.8718 27.4075C27.7191 27.6344 27.5019 27.8114 27.2475 27.9161C26.9932 28.0208 26.7132 28.0486 26.443 27.9958C26.1727 27.943 25.9243 27.8121 25.7293 27.6196C25.5342 27.4271 25.4012 27.1817 25.3471 26.9144C25.293 26.6471 25.3202 26.37 25.4253 26.118C25.5304 25.866 25.7087 25.6505 25.9375 25.4988C26.1664 25.3471 26.4356 25.2659 26.711 25.2656C26.8785 25.2656 27.0392 25.1998 27.1576 25.0826C27.2761 24.9653 27.3426 24.8064 27.3426 24.6406C27.3426 24.4749 27.2761 24.3159 27.1576 24.1987C27.0392 24.0815 26.8785 24.0156 26.711 24.0156C26.1853 24.0156 25.6714 24.1699 25.2343 24.4589C24.7971 24.748 24.4564 25.1588 24.2553 25.6394C24.0541 26.1201 24.0014 26.649 24.104 27.1593C24.2066 27.6695 24.4597 28.1382 24.8315 28.5061C25.2032 28.874 25.6768 29.1245 26.1925 29.226C26.7081 29.3275 27.2425 29.2754 27.7282 29.0763C28.2139 28.8772 28.6291 28.5401 28.9212 28.1075C29.2132 27.6749 29.3691 27.1663 29.3691 26.6461C29.3698 26.5635 29.3539 26.4817 29.3223 26.4053C29.2908 26.3289 29.2443 26.2594 29.1856 26.2008C29.1268 26.1423 29.0568 26.0958 28.9798 26.0642C28.9028 26.0325 28.8202 26.0163 28.7368 26.0164Z" fill="url(#paint0_linear)"/>
<path d="M28.7368 33.3656C28.5693 33.3656 28.4086 33.4314 28.2902 33.5486C28.1717 33.6658 28.1052 33.8248 28.1052 33.9906C28.1055 34.2631 28.0241 34.5297 27.8714 34.7565C27.7186 34.9833 27.5013 35.1601 27.247 35.2647C26.9926 35.3693 26.7127 35.3969 26.4425 35.3441C26.1723 35.2912 25.924 35.1602 25.729 34.9677C25.534 34.7752 25.4011 34.5298 25.3471 34.2625C25.293 33.9952 25.3203 33.7181 25.4254 33.4662C25.5305 33.2142 25.7088 32.9988 25.9376 32.8471C26.1664 32.6954 26.4356 32.6143 26.711 32.614C26.8785 32.614 27.0392 32.5482 27.1576 32.4309C27.2761 32.3137 27.3426 32.1548 27.3426 31.989C27.3426 31.8232 27.2761 31.6643 27.1576 31.5471C27.0392 31.4298 26.8785 31.364 26.711 31.364C26.1853 31.364 25.6714 31.5183 25.2343 31.8073C24.7971 32.0964 24.4564 32.5072 24.2553 32.9878C24.0541 33.4685 24.0014 33.9974 24.104 34.5076C24.2066 35.0179 24.4597 35.4866 24.8315 35.8545C25.2032 36.2224 25.6768 36.4729 26.1925 36.5744C26.7081 36.6759 27.2425 36.6238 27.7282 36.4247C28.2139 36.2256 28.6291 35.8884 28.9212 35.4559C29.2132 35.0233 29.3691 34.5147 29.3691 33.9945C29.3696 33.912 29.3537 33.8302 29.3221 33.7539C29.2906 33.6776 29.2441 33.6082 29.1853 33.5497C29.1265 33.4913 29.0566 33.4449 28.9796 33.4133C28.9026 33.3817 28.8201 33.3655 28.7368 33.3656Z" fill="url(#paint1_linear)"/>
<path d="M36.1624 34.7015H31.4375C31.27 34.7015 31.1094 34.7674 30.9909 34.8846C30.8725 35.0018 30.8059 35.1608 30.8059 35.3265C30.8059 35.4923 30.8725 35.6513 30.9909 35.7685C31.1094 35.8857 31.27 35.9515 31.4375 35.9515H36.1624C36.3299 35.9515 36.4905 35.8857 36.609 35.7685C36.7274 35.6513 36.794 35.4923 36.794 35.3265C36.794 35.1608 36.7274 35.0018 36.609 34.8846C36.4905 34.7674 36.3299 34.7015 36.1624 34.7015Z" fill="url(#paint2_linear)"/>
<path d="M36.1624 32.0289H31.4375C31.27 32.0289 31.1094 32.0947 30.9909 32.2119C30.8725 32.3291 30.8059 32.4881 30.8059 32.6539C30.8059 32.8196 30.8725 32.9786 30.9909 33.0958C31.1094 33.213 31.27 33.2789 31.4375 33.2789H36.1624C36.3299 33.2789 36.4905 33.213 36.609 33.0958C36.7274 32.9786 36.794 32.8196 36.794 32.6539C36.794 32.4881 36.7274 32.3291 36.609 32.2119C36.4905 32.0947 36.3299 32.0289 36.1624 32.0289Z" fill="url(#paint3_linear)"/>
<path d="M34.8124 42.0499H31.4375C31.27 42.0499 31.1094 42.1158 30.9909 42.233C30.8725 42.3502 30.8059 42.5092 30.8059 42.6749C30.8059 42.8407 30.8725 42.9997 30.9909 43.1169C31.1094 43.2341 31.27 43.2999 31.4375 43.2999H34.8124C34.9799 43.2999 35.1406 43.2341 35.259 43.1169C35.3774 42.9997 35.444 42.8407 35.444 42.6749C35.444 42.5092 35.3774 42.3502 35.259 42.233C35.1406 42.1158 34.9799 42.0499 34.8124 42.0499Z" fill="url(#paint4_linear)"/>
<path d="M36.1624 39.3781H31.4375C31.27 39.3781 31.1094 39.444 30.9909 39.5612C30.8725 39.6784 30.8059 39.8374 30.8059 40.0031C30.8059 40.1689 30.8725 40.3279 30.9909 40.4451C31.1094 40.5623 31.27 40.6281 31.4375 40.6281H36.1624C36.3299 40.6281 36.4905 40.5623 36.609 40.4451C36.7274 40.3279 36.794 40.1689 36.794 40.0031C36.794 39.8374 36.7274 39.6784 36.609 39.5612C36.4905 39.444 36.3299 39.3781 36.1624 39.3781Z" fill="url(#paint5_linear)"/>
<path d="M42.238 27.3531H31.4375C31.27 27.3531 31.1094 27.419 30.9909 27.5362C30.8725 27.6534 30.8059 27.8123 30.8059 27.9781C30.8059 28.1439 30.8725 28.3028 30.9909 28.42C31.1094 28.5373 31.27 28.6031 31.4375 28.6031H42.238C42.4055 28.6031 42.5662 28.5373 42.6846 28.42C42.8031 28.3028 42.8696 28.1439 42.8696 27.9781C42.8696 27.8123 42.8031 27.6534 42.6846 27.5362C42.5662 27.419 42.4055 27.3531 42.238 27.3531Z" fill="url(#paint6_linear)"/>
<path d="M39.5381 24.6805H31.4375C31.27 24.6805 31.1094 24.7463 30.9909 24.8635C30.8725 24.9807 30.8059 25.1397 30.8059 25.3055C30.8059 25.4712 30.8725 25.6302 30.9909 25.7474C31.1094 25.8646 31.27 25.9305 31.4375 25.9305H39.5381C39.7056 25.9305 39.8663 25.8646 39.9847 25.7474C40.1031 25.6302 40.1697 25.4712 40.1697 25.3055C40.1697 25.1397 40.1031 24.9807 39.9847 24.8635C39.8663 24.7463 39.7056 24.6805 39.5381 24.6805Z" fill="url(#paint7_linear)"/>
<path d="M28.7368 40.714C28.5693 40.714 28.4086 40.7799 28.2902 40.8971C28.1717 41.0143 28.1052 41.1733 28.1052 41.339C28.1055 41.6116 28.0241 41.8781 27.8714 42.1049C27.7186 42.3317 27.5013 42.5086 27.247 42.6132C26.9926 42.7178 26.7127 42.7454 26.4425 42.6925C26.1723 42.6397 25.924 42.5087 25.729 42.3162C25.534 42.1236 25.4011 41.8782 25.3471 41.611C25.293 41.3437 25.3203 41.0666 25.4254 40.8146C25.5305 40.5627 25.7088 40.3473 25.9376 40.1956C26.1664 40.0439 26.4356 39.9628 26.711 39.9625C26.8785 39.9625 27.0392 39.8966 27.1576 39.7794C27.2761 39.6622 27.3426 39.5032 27.3426 39.3375C27.3426 39.1717 27.2761 39.0127 27.1576 38.8955C27.0392 38.7783 26.8785 38.7125 26.711 38.7125C26.1853 38.7125 25.6714 38.8667 25.2343 39.1558C24.7971 39.4448 24.4564 39.8556 24.2553 40.3363C24.0541 40.8169 24.0014 41.3458 24.104 41.8561C24.2066 42.3664 24.4597 42.8351 24.8315 43.2029C25.2032 43.5708 25.6768 43.8213 26.1925 43.9228C26.7081 44.0243 27.2425 43.9722 27.7282 43.7732C28.2139 43.5741 28.6291 43.2369 28.9212 42.8043C29.2132 42.3718 29.3691 41.8632 29.3691 41.3429C29.3696 41.2605 29.3537 41.1787 29.3221 41.1024C29.2906 41.026 29.2441 40.9566 29.1853 40.8982C29.1265 40.8397 29.0566 40.7933 28.9796 40.7617C28.9026 40.7301 28.8201 40.7139 28.7368 40.714Z" fill="url(#paint8_linear)"/>
<path d="M44.9381 18H21.9855C21.4593 18 20.9547 18.2067 20.5824 18.5747C20.2101 18.9426 20.0006 19.4418 20 19.9625V48.021C20.0006 48.5413 20.2098 49.0401 20.5815 49.4081C20.9533 49.776 21.4574 49.9829 21.9831 49.9835H33.4618C33.6293 49.9835 33.7899 49.9177 33.9084 49.8005C34.0268 49.6833 34.0934 49.5243 34.0934 49.3585C34.0934 49.1928 34.0268 49.0338 33.9084 48.9166C33.7899 48.7994 33.6293 48.7335 33.4618 48.7335H21.9855C21.7953 48.7335 21.6129 48.6588 21.4783 48.5258C21.3438 48.3928 21.2681 48.2124 21.2679 48.0242V19.9625C21.2677 19.8691 21.2861 19.7765 21.322 19.6901C21.358 19.6037 21.4108 19.5252 21.4774 19.4591C21.5441 19.3929 21.6233 19.3404 21.7104 19.3045C21.7976 19.2686 21.8911 19.2501 21.9855 19.25H44.9381C45.0327 19.2499 45.1263 19.2683 45.2137 19.304C45.301 19.3398 45.3804 19.3923 45.4472 19.4585C45.514 19.5247 45.567 19.6033 45.603 19.6898C45.6391 19.7763 45.6575 19.8689 45.6573 19.9625V40.6726C45.6573 40.8384 45.7239 40.9973 45.8423 41.1146C45.9607 41.2318 46.1214 41.2976 46.2889 41.2976C46.4564 41.2976 46.617 41.2318 46.7355 41.1146C46.8539 40.9973 46.9205 40.8384 46.9205 40.6726V19.9625C46.9198 19.4423 46.7108 18.9436 46.3392 18.5758C45.9676 18.2079 45.4638 18.0008 44.9381 18Z" fill="url(#paint9_linear)"/>
<path d="M50.9143 43.3976C50.3285 43.3397 49.7422 43.5029 49.273 43.8547C49.0925 43.5459 48.8414 43.2832 48.5397 43.0878C48.2381 42.8925 47.8944 42.7698 47.5362 42.7297C46.9504 42.6717 46.3642 42.8349 45.8949 43.1867C45.7145 42.8778 45.4634 42.6151 45.1617 42.4197C44.8601 42.2243 44.5163 42.1017 44.1581 42.0617C43.713 42.0177 43.2645 42.1009 42.8658 42.3015V34.3281C42.8657 34.0067 42.7975 33.6889 42.6655 33.3953C42.5336 33.1016 42.3409 32.8386 42.0998 32.6232C41.8587 32.4079 41.5747 32.245 41.2661 32.145C40.9574 32.0451 40.631 32.0103 40.3079 32.043C39.1395 32.1594 38.2245 33.2047 38.2245 34.4234V42.4172L36.3646 44.2586C35.8796 44.7348 35.5266 45.3266 35.3397 45.9769C35.1528 46.6273 35.1382 47.3143 35.2972 47.9718L36.7096 53.9093C36.9825 55.0759 37.6479 56.1161 38.5966 56.8594C39.5453 57.6026 40.721 58.0048 41.931 58H47.6388C49.0596 57.9981 50.4216 57.439 51.4266 56.4451C52.4315 55.4512 52.9973 54.1036 53 52.6976V45.7781C53 44.5625 52.0827 43.514 50.9143 43.3976ZM51.7313 52.6945C51.7316 53.7692 51.3006 54.8 50.5332 55.5604C49.7659 56.3209 48.7248 56.7487 47.6388 56.75H41.931C41.0074 56.7526 40.1103 56.4449 39.3864 55.8772C38.6626 55.3095 38.155 54.5154 37.9467 53.625L36.5343 47.6875C36.426 47.2376 36.4362 46.7676 36.5641 46.3228C36.6919 45.8779 36.9331 45.473 37.2646 45.1469L38.2301 44.1914V46.3539C38.2301 46.5196 38.2966 46.6786 38.4151 46.7958C38.5335 46.913 38.6941 46.9789 38.8616 46.9789C39.0291 46.9789 39.1898 46.913 39.3082 46.7958C39.4267 46.6786 39.4932 46.5196 39.4932 46.3539V34.4211C39.4932 33.8375 39.9077 33.3398 40.4366 33.2875C40.5841 33.2717 40.7334 33.2868 40.8746 33.3319C41.0158 33.377 41.1458 33.4511 41.2561 33.5493C41.3664 33.6475 41.4546 33.7676 41.5149 33.9018C41.5751 34.036 41.6061 34.1813 41.6058 34.3281V45.3484C41.6058 45.5142 41.6723 45.6731 41.7908 45.7904C41.9092 45.9076 42.0699 45.9734 42.2374 45.9734C42.4049 45.9734 42.5655 45.9076 42.6839 45.7904C42.8024 45.6731 42.8689 45.5142 42.8689 45.3484V44.3468C42.8692 44.201 42.9002 44.0568 42.96 43.9235C43.0198 43.7901 43.1071 43.6706 43.2163 43.5726C43.3266 43.4741 43.4569 43.4 43.5985 43.3551C43.7401 43.3103 43.8896 43.2957 44.0373 43.3125C44.5662 43.3648 44.9847 43.8594 44.9847 44.4461V46.0203C44.9847 46.186 45.0512 46.345 45.1696 46.4622C45.2881 46.5794 45.4487 46.6453 45.6162 46.6453C45.7837 46.6453 45.9444 46.5794 46.0628 46.4622C46.1812 46.345 46.2478 46.186 46.2478 46.0203V45.0148C46.2476 44.8684 46.2786 44.7236 46.3387 44.5898C46.3988 44.456 46.4868 44.3362 46.5968 44.2383C46.7067 44.1403 46.8364 44.0664 46.9771 44.0213C47.1179 43.9762 47.2667 43.961 47.4138 43.9765C47.9427 44.0289 48.3572 44.5234 48.3572 45.1101V46.6843C48.3572 46.8501 48.4238 47.0091 48.5422 47.1263C48.6606 47.2435 48.8213 47.3093 48.9888 47.3093C49.1563 47.3093 49.3169 47.2435 49.4354 47.1263C49.5538 47.0091 49.6203 46.8501 49.6203 46.6843V45.6828C49.6205 45.5368 49.6514 45.3924 49.7113 45.259C49.7711 45.1255 49.8584 45.0059 49.9677 44.9078C50.0779 44.8086 50.2082 44.7338 50.3499 44.6883C50.4916 44.6429 50.6415 44.628 50.7895 44.6445C51.3193 44.6968 51.7369 45.1914 51.7369 45.7781V52.6968L51.7313 52.6945Z" fill="url(#paint10_linear)"/>
</g>

</symbol><symbol id="fb" viewBox="0 0 11 22">
<path d="M8.99175 3.65292H11V0.154917C10.6535 0.10725 9.46196 0 8.07424 0C5.17874 0 3.19523 1.82142 3.19523 5.16908V8.25H0V12.1605H3.19523V22H7.11274V12.1614H10.1787L10.6654 8.25092H7.11182V5.55683C7.11274 4.42658 7.41705 3.65292 8.99175 3.65292Z" fill="white"/>
</symbol><symbol id="insta" viewBox="0 0 18 18">
<path d="M17.9508 5.29207C17.9087 4.33565 17.754 3.67813 17.5324 3.10837C17.3039 2.50359 16.9522 1.96214 16.4916 1.51202C16.0414 1.0549 15.4964 0.699693 14.8986 0.474704C14.3256 0.253148 13.6715 0.0984845 12.7151 0.0563161C11.7515 0.0105764 11.4456 0 9.00179 0C6.55794 0 6.25205 0.0105764 5.29207 0.0527448C4.33565 0.0949132 3.67813 0.249714 3.10851 0.471132C2.50359 0.699693 1.96214 1.05133 1.51202 1.51202C1.0549 1.96214 0.699831 2.50717 0.474704 3.10494C0.253148 3.67813 0.0984845 4.33208 0.0563161 5.28849C0.0105764 6.25205 0 6.55794 0 9.00179C0 11.4456 0.0105764 11.7515 0.0527448 12.7115C0.0949132 13.6679 0.249714 14.3254 0.47127 14.8952C0.699831 15.5 1.0549 16.0414 1.51202 16.4916C1.96214 16.9487 2.50717 17.3039 3.10494 17.5289C3.67813 17.7504 4.33208 17.9051 5.28863 17.9473C6.24848 17.9896 6.55451 18 8.99835 18C11.4422 18 11.7481 17.9896 12.7081 17.9473C13.6645 17.9051 14.322 17.7504 14.8916 17.5289C16.1013 17.0612 17.0577 16.1048 17.5254 14.8952C17.7469 14.322 17.9017 13.6679 17.9438 12.7115C17.986 11.7515 17.9966 11.4456 17.9966 9.00179C17.9966 6.55794 17.993 6.25205 17.9508 5.29207ZM16.3299 12.6412C16.2911 13.5203 16.1435 13.995 16.0204 14.3114C15.718 15.0956 15.0956 15.718 14.3114 16.0204C13.995 16.1435 13.5168 16.2911 12.6412 16.3297C11.6918 16.3721 11.407 16.3825 9.00536 16.3825C6.60368 16.3825 6.31537 16.3721 5.3694 16.3297C4.49032 16.2911 4.01561 16.1435 3.69914 16.0204C3.30891 15.8762 2.95371 15.6476 2.6654 15.3487C2.36651 15.0569 2.13795 14.7052 1.99373 14.315C1.87066 13.9985 1.723 13.5203 1.6844 12.6448C1.6421 11.6953 1.63166 11.4105 1.63166 9.00879C1.63166 6.60711 1.6421 6.3188 1.6844 5.37297C1.723 4.49389 1.87066 4.01918 1.99373 3.70271C2.13795 3.31235 2.36651 2.95728 2.66897 2.66883C2.96072 2.36995 3.31235 2.14139 3.70271 1.9973C4.01918 1.87423 4.49746 1.72657 5.37297 1.68783C6.32238 1.64567 6.60725 1.63509 9.00879 1.63509C11.414 1.63509 11.6988 1.64567 12.6448 1.68783C13.5238 1.72657 13.9985 1.87423 14.315 1.9973C14.7052 2.14139 15.0604 2.36995 15.3487 2.66883C15.6476 2.96072 15.8762 3.31235 16.0204 3.70271C16.1435 4.01918 16.2911 4.49732 16.3299 5.37297C16.3721 6.32238 16.3826 6.60711 16.3826 9.00879C16.3826 11.4105 16.3721 11.6918 16.3299 12.6412Z" fill="white"/>
<path d="M9.00214 4.37784C6.44937 4.37784 4.37817 6.4489 4.37817 9.0018C4.37817 11.5547 6.44937 13.6258 9.00214 13.6258C11.555 13.6258 13.6261 11.5547 13.6261 9.0018C13.6261 6.4489 11.555 4.37784 9.00214 4.37784ZM9.00214 12.0013C7.34603 12.0013 6.00269 10.658 6.00269 9.0018C6.00269 7.34556 7.34603 6.00235 9.00214 6.00235C10.6584 6.00235 12.0016 7.34556 12.0016 9.0018C12.0016 10.658 10.6584 12.0013 9.00214 12.0013Z" fill="white"/>
<path d="M14.8884 4.19481C14.8884 4.79094 14.405 5.27429 13.8087 5.27429C13.2126 5.27429 12.7292 4.79094 12.7292 4.19481C12.7292 3.59855 13.2126 3.11533 13.8087 3.11533C14.405 3.11533 14.8884 3.59855 14.8884 4.19481Z" fill="white"/>
</symbol><symbol id="like" viewBox="0 0 85 94">
<g filter="url(#filter0_d)">
<path d="M47.5001 18C47.0274 18 46.6407 18.3867 46.6407 18.8594V22.8125C46.6407 23.2852 47.0274 23.6719 47.5001 23.6719C47.9727 23.6719 48.3594 23.2852 48.3594 22.8125V18.8594C48.3594 18.3867 47.9727 18 47.5001 18Z" fill="url(#paint0_linear)"/>
<path d="M27.7344 44.8126C27.2617 44.8126 26.875 45.1993 26.875 45.6719C26.875 46.1446 27.2617 46.5313 27.7344 46.5313C28.2071 46.5313 28.5938 46.1446 28.5938 45.6719C28.5938 45.1993 28.2071 44.8126 27.7344 44.8126Z" fill="url(#paint1_linear)"/>
<path d="M59.5314 43.0938C59.5314 41.1946 57.9931 39.6563 56.0938 39.6563H49.6743C50.6712 37.1125 51.0665 34.1219 50.9891 31.4493C50.972 30.9422 50.9548 30.65 50.929 30.461C50.886 28.6047 49.3563 27.1094 47.4915 27.1094C45.5923 27.1094 44.054 28.6477 44.054 30.5469V31.4063C44.054 36.8375 37.0758 39.8969 31.8078 41.2032C31.4125 40.2922 30.5016 39.6563 29.4446 39.6563H20.8594C20.3867 39.6563 20 40.043 20 40.5157V61.1407C20 61.6134 20.3867 62.0001 20.8594 62.0001H29.4531C30.5016 62.0001 31.4039 61.3728 31.8078 60.4704C32.2461 60.5821 32.65 60.6853 33.0196 60.7884C36.0188 61.5704 37.6688 62.0001 41.6907 62.0001H50.9376C52.8368 62.0001 54.3751 60.4618 54.3751 58.5626C54.3751 57.8579 54.1602 57.1962 53.7907 56.6548C55.1142 56.1907 56.0938 54.9188 56.0938 53.4063C56.0938 52.7017 55.8876 52.0399 55.5181 51.4899C56.8415 51.0259 57.8126 49.7626 57.8126 48.2501C57.8126 47.5454 57.5978 46.8837 57.2282 46.3423C58.5603 45.8782 59.5314 44.6063 59.5314 43.0938ZM30.3125 59.422C30.3125 59.8946 29.9258 60.2814 29.4531 60.2814H21.7188V41.3751H29.4531C29.9258 41.3751 30.3125 41.7618 30.3125 42.2344V59.422ZM56.0938 44.8126C54.2548 44.8126 53.8079 44.8126 51.797 44.8126C51.3243 44.8126 50.9376 45.1993 50.9376 45.6719C50.9376 46.1446 51.3243 46.5313 51.797 46.5313H54.3751C55.3204 46.5313 56.0938 47.3048 56.0938 48.2501C56.0938 49.1954 55.3204 49.9688 54.3751 49.9688H50.0782C49.6055 49.9688 49.2188 50.3556 49.2188 50.8282C49.2188 51.3009 49.6055 51.6876 50.0782 51.6876H52.6563C53.5931 51.6876 54.3751 52.4352 54.3751 53.4063C54.3751 54.3517 53.6017 55.1251 52.6563 55.1251C50.8173 55.1251 50.3704 55.1251 48.3594 55.1251C47.8868 55.1251 47.5001 55.5118 47.5001 55.9845C47.5001 56.4571 47.8868 56.8438 48.3594 56.8438H50.9376C51.8829 56.8438 52.6563 57.6173 52.6563 58.5626C52.6563 59.5079 51.8829 60.2814 50.9376 60.2814H41.6993C37.9008 60.2814 36.4141 59.8946 33.4578 59.1212C33.0282 59.0095 32.5469 58.8806 32.0313 58.7517V42.9219C38.2532 41.4438 45.7813 37.8258 45.7813 31.4063V30.5469C45.7813 29.6016 46.5548 28.8282 47.5001 28.8282C48.4454 28.8282 49.2188 29.6016 49.2188 30.5469C49.2188 30.9164 49.6829 35.5055 47.818 39.6563H44.9219C44.4493 39.6563 44.0626 40.043 44.0626 40.5157C44.0626 40.9883 44.4493 41.3751 44.9219 41.3751C45.5235 41.3751 55.1142 41.3751 56.0938 41.3751C57.0392 41.3751 57.8126 42.1485 57.8126 43.0938C57.8126 44.0391 57.0392 44.8126 56.0938 44.8126Z" fill="url(#paint2_linear)"/>
<path d="M27.7344 48.2501C27.2617 48.2501 26.875 48.6368 26.875 49.1095V55.9845C26.875 56.4571 27.2617 56.8438 27.7344 56.8438C28.2071 56.8438 28.5938 56.4571 28.5938 55.9845V49.1095C28.5938 48.6368 28.2071 48.2501 27.7344 48.2501Z" fill="url(#paint3_linear)"/>
<path d="M40.6251 28.8282H37.1875C36.7149 28.8282 36.3282 29.2149 36.3282 29.6875C36.3282 30.1602 36.7149 30.5469 37.1875 30.5469H40.6251C41.0977 30.5469 41.4844 30.1602 41.4844 29.6875C41.4844 29.2149 41.0977 28.8282 40.6251 28.8282Z" fill="url(#paint4_linear)"/>
<path d="M57.8126 28.8282H54.3751C53.9024 28.8282 53.5157 29.2149 53.5157 29.6875C53.5157 30.1602 53.9024 30.5469 54.3751 30.5469H57.8126C58.2853 30.5469 58.672 30.1602 58.672 29.6875C58.672 29.2149 58.2853 28.8282 57.8126 28.8282Z" fill="url(#paint5_linear)"/>
<path d="M55.3977 21.7899C55.0626 21.4547 54.5212 21.4547 54.186 21.7899L51.754 24.2219C51.4188 24.557 51.4188 25.0985 51.754 25.4336C52.0891 25.7688 52.6305 25.7688 52.9657 25.4336L55.3977 23.0016C55.7329 22.6664 55.7329 22.125 55.3977 21.7899Z" fill="url(#paint6_linear)"/>
<path d="M43.2461 24.2219L40.814 21.7899C40.4789 21.4547 39.9375 21.4547 39.6023 21.7899C39.2671 22.125 39.2671 22.6664 39.6023 23.0016L42.0343 25.4336C42.3695 25.7688 42.9109 25.7688 43.2461 25.4336C43.5812 25.0985 43.5812 24.557 43.2461 24.2219Z" fill="url(#paint7_linear)"/>
</g>

</symbol><symbol id="map-point" viewBox="0 0 15 19">
<path d="M7.23259 0.00483583C3.4973 0.137288 0.394193 3.0824 0.0356977 6.84169C-0.0375434 7.59355 0.00485941 8.32204 0.135922 9.01936C0.135922 9.01936 0.147487 9.10117 0.186035 9.25699C0.301678 9.77901 0.475144 10.2854 0.691012 10.7607C1.4427 12.5605 3.18121 15.5718 7.08226 18.8481C7.32125 19.0506 7.67204 19.0506 7.91489 18.8481C11.8159 15.5757 13.5545 12.5644 14.31 10.7568C14.5297 10.2815 14.6993 9.77901 14.815 9.2531C14.8497 9.10117 14.8651 9.01546 14.8651 9.01546C14.9537 8.54799 15 8.06882 15 7.57797C15 3.30055 11.496 -0.147094 7.23259 0.00483583ZM7.49858 11.349C5.48637 11.349 3.8558 9.7011 3.8558 7.66757C3.8558 5.63404 5.48637 3.98618 7.49858 3.98618C9.51078 3.98618 11.1414 5.63404 11.1414 7.66757C11.1414 9.7011 9.51078 11.349 7.49858 11.349Z" fill="#D3AE6E"/>
</symbol><symbol id="menu-toggle" viewBox="0 0 29 16">
<rect y="0.581543" width="22.2558" height="1.34884" fill="#D3AE6E"/>
<rect y="7.32568" width="29" height="1.34884" fill="#D3AE6E"/>
<rect y="14.0698" width="18.5465" height="1.34884" fill="#D3AE6E"/>
</symbol><symbol id="phone" viewBox="0 0 10 10">
<path d="M1.96568 6.64733C2.92604 7.82636 4.08212 8.75466 5.40161 9.41152C5.90399 9.65603 6.57585 9.94613 7.32437 9.99586C7.37077 9.99793 7.41516 10 7.46156 10C7.96394 10 8.36746 9.8218 8.69632 9.45504C8.69834 9.45296 8.70238 9.44882 8.70439 9.44467C8.82141 9.29963 8.95457 9.16908 9.09379 9.03025C9.18861 8.93701 9.28546 8.83962 9.37827 8.74016C9.80801 8.28015 9.80801 7.69581 9.37423 7.25031L8.16166 6.00497C7.95587 5.78533 7.70973 5.66929 7.45148 5.66929C7.19323 5.66929 6.94506 5.78533 6.73322 6.0029L6.01092 6.74472C5.94434 6.70535 5.87575 6.67012 5.81118 6.63697C5.73048 6.59552 5.65583 6.55615 5.58925 6.51264C4.93152 6.08371 4.33431 5.52424 3.76334 4.80522C3.47483 4.43017 3.28114 4.11521 3.14596 3.79403C3.33561 3.6179 3.51316 3.43349 3.68465 3.25321C3.74518 3.18898 3.80773 3.12474 3.87027 3.06051C4.08817 2.83672 4.20519 2.5777 4.20519 2.31455C4.20519 2.05139 4.09019 1.79237 3.87027 1.56859L3.26903 0.951098C3.19842 0.878574 3.13184 0.808123 3.06324 0.735599C2.93008 0.594695 2.79087 0.449648 2.65367 0.319105C2.44586 0.109822 2.20173 0 1.94348 0C1.68725 0 1.4411 0.109822 1.22522 0.321177L0.470649 1.09615C0.196258 1.37795 0.0409042 1.71985 0.00862296 2.11562C-0.0297111 2.61086 0.0590625 3.13717 0.289067 3.77331C0.642143 4.75756 1.17478 5.67136 1.96568 6.64733ZM0.500913 2.15914C0.525124 1.88355 0.62802 1.65354 0.821708 1.45462L1.57225 0.683796C1.68927 0.567758 1.81839 0.507667 1.94348 0.507667C2.06655 0.507667 2.19164 0.567758 2.30665 0.68794C2.44182 0.816411 2.56893 0.951098 2.70613 1.09407C2.77473 1.1666 2.84534 1.23912 2.91596 1.31372L3.51719 1.93121C3.64228 2.05968 3.70685 2.19022 3.70685 2.31869C3.70685 2.44716 3.64228 2.5777 3.51719 2.70618C3.45465 2.77041 3.3921 2.83672 3.32956 2.90095C3.14192 3.09573 2.9664 3.28015 2.77271 3.45628C2.76867 3.46042 2.76666 3.4625 2.76262 3.46664C2.59516 3.63862 2.62139 3.80232 2.66174 3.92665C2.66376 3.93286 2.66578 3.93701 2.66779 3.94322C2.82315 4.32656 3.03903 4.69126 3.37596 5.1264C3.98124 5.89308 4.61879 6.48777 5.32091 6.94571C5.40767 7.00373 5.50048 7.04932 5.58723 7.0949C5.66793 7.13634 5.74259 7.17571 5.80917 7.21923C5.81724 7.22337 5.82329 7.22752 5.83136 7.23166C5.89794 7.26689 5.9625 7.28346 6.02706 7.28346C6.18847 7.28346 6.29339 7.17779 6.32768 7.14256L7.08226 6.36759C7.19928 6.24741 7.32639 6.18317 7.45148 6.18317C7.60481 6.18317 7.7299 6.28056 7.80859 6.36759L9.02519 7.615C9.2673 7.86366 9.26528 8.13303 9.01914 8.39619C8.9344 8.48943 8.84562 8.57853 8.7508 8.67178C8.60957 8.81268 8.46228 8.95773 8.32912 9.12143C8.0971 9.37837 7.82069 9.49855 7.46358 9.49855C7.42928 9.49855 7.39297 9.49648 7.35867 9.49441C6.6969 9.45089 6.08154 9.18566 5.61951 8.9598C4.36458 8.3361 3.26298 7.45131 2.34902 6.32822C1.59646 5.39784 1.09005 4.5317 0.755128 3.6034C0.547317 3.03357 0.468631 2.57563 0.500913 2.15914Z" fill="white"/>
</symbol><symbol id="phone2" viewBox="0 0 18 18">
<path d="M17.9617 13.9467C17.9108 13.7933 17.5869 13.5673 16.9901 13.2693C16.8285 13.1753 16.5981 13.0477 16.3001 12.8857C16.0018 12.7237 15.731 12.5745 15.4883 12.4381C15.245 12.3018 15.0171 12.1697 14.8042 12.042C14.7702 12.0165 14.6636 11.942 14.4847 11.8181C14.3055 11.6947 14.1544 11.603 14.0306 11.5432C13.9071 11.4838 13.7855 11.4539 13.6662 11.4539C13.4958 11.4539 13.2829 11.5754 13.0273 11.8181C12.7717 12.0612 12.5372 12.3252 12.3243 12.611C12.1112 12.8966 11.8853 13.1606 11.6469 13.4035C11.4082 13.6465 11.212 13.7679 11.0588 13.7679C10.9818 13.7679 10.8859 13.7464 10.771 13.7041C10.6561 13.6615 10.5687 13.625 10.5086 13.5956C10.4492 13.5656 10.3471 13.5061 10.2021 13.4163C10.0569 13.3268 9.97609 13.2778 9.95907 13.2693C8.79146 12.6214 7.79007 11.8799 6.95472 11.045C6.11963 10.2095 5.378 9.20828 4.73028 8.0406C4.72177 8.02354 4.67264 7.94254 4.58322 7.79774C4.49366 7.6528 4.43397 7.55066 4.40415 7.49084C4.37433 7.43124 4.3381 7.34384 4.29556 7.22881C4.25302 7.11378 4.23166 7.01796 4.23166 6.94117C4.23166 6.78785 4.35315 6.59173 4.59607 6.35308C4.83895 6.11455 5.10324 5.88861 5.38866 5.6757C5.67431 5.46279 5.93832 5.22834 6.18129 4.97276C6.42418 4.71704 6.54562 4.50409 6.54562 4.33367C6.54562 4.21443 6.51579 4.09286 6.45619 3.96932C6.39655 3.84552 6.30493 3.69444 6.18129 3.51538C6.05761 3.33641 5.98306 3.22998 5.95744 3.19572C5.82973 2.98281 5.69777 2.75486 5.56124 2.51195C5.42471 2.26908 5.27568 1.99836 5.11367 1.70011C4.9518 1.40199 4.82404 1.17179 4.73019 1.00988C4.43205 0.413419 4.20623 0.0894181 4.05277 0.0384628C3.99308 0.0128956 3.90352 0 3.78432 0C3.55406 0 3.25369 0.0425374 2.88296 0.127881C2.5121 0.21309 2.22028 0.302463 2.00717 0.396359C1.58101 0.57524 1.12933 1.09509 0.651982 1.95574C0.217312 2.75669 0 3.54946 0 4.33344C0 4.56337 0.0149114 4.78707 0.0447342 5.00459C0.074557 5.22189 0.127844 5.46695 0.20464 5.73973C0.281302 6.01242 0.343142 6.21499 0.389891 6.3469C0.436685 6.4789 0.524049 6.71536 0.651938 7.05638C0.779647 7.3973 0.856443 7.606 0.882012 7.68271C1.18029 8.51796 1.53399 9.26362 1.94305 9.91991C2.61608 11.0107 3.53454 12.1381 4.6979 13.3015C5.8613 14.4647 6.98848 15.3831 8.07948 16.0564C8.73571 16.4653 9.48169 16.819 10.3169 17.1175C10.3936 17.1429 10.6023 17.2195 10.9431 17.3477C11.2841 17.4754 11.5207 17.5628 11.6527 17.6097C11.7847 17.6566 11.9873 17.7185 12.2598 17.7953C12.5329 17.8721 12.7777 17.9254 12.995 17.9554C13.2125 17.9848 13.4363 18 13.6662 18C14.4502 18 15.2431 17.7826 16.0442 17.348C16.9048 16.8708 17.4246 16.4191 17.6036 15.9926C17.6977 15.7798 17.7868 15.4879 17.8721 15.117C17.9575 14.7464 18 14.4461 18 14.2159C18.0003 14.0962 17.9874 14.0069 17.9617 13.9467Z" fill="#D3AE6E"/>
</symbol><symbol id="vk" viewBox="0 0 22 12">
<path d="M20.8439 10.7032C20.7874 10.6086 20.4377 9.84878 18.7551 8.28709C16.9936 6.65178 17.2302 6.91732 19.3519 4.0897C20.6441 2.36763 21.1607 1.31598 20.999 0.866405C20.8452 0.437859 19.8948 0.550911 19.8948 0.550911L16.7346 0.569315C16.7346 0.569315 16.5006 0.537766 16.3258 0.641616C16.1562 0.744151 16.0471 0.980772 16.0471 0.980772C16.0471 0.980772 15.5463 2.31373 14.8785 3.44688C13.4706 5.83806 12.9066 5.96426 12.6766 5.81572C12.1416 5.46999 12.2756 4.42491 12.2756 3.6835C12.2756 1.36594 12.6266 0.399737 11.5908 0.149971C11.2463 0.0671538 10.9939 0.0119424 10.1145 0.00274048C8.98661 -0.00909055 8.03093 0.00668415 7.49065 0.27091C7.13046 0.447061 6.85309 0.840114 7.02266 0.862462C7.23168 0.890068 7.70492 0.989974 7.956 1.33176C8.2807 1.77214 8.26886 2.76331 8.26886 2.76331C8.26886 2.76331 8.45553 5.49102 7.83375 5.83018C7.40651 6.06285 6.82154 5.5883 5.56613 3.41796C4.92331 2.30716 4.43693 1.07805 4.43693 1.07805C4.43693 1.07805 4.34359 0.849316 4.17664 0.727062C3.9742 0.578517 3.69026 0.531193 3.69026 0.531193L0.685178 0.549597C0.685178 0.549597 0.234285 0.562743 0.0686505 0.758612C-0.07858 0.933448 0.0568195 1.29364 0.0568195 1.29364C0.0568195 1.29364 2.40988 6.79769 5.07317 9.57272C7.51694 12.1164 10.2907 11.9494 10.2907 11.9494H11.5474C11.5474 11.9494 11.9273 11.9074 12.1205 11.6984C12.2993 11.5064 12.2927 11.1463 12.2927 11.1463C12.2927 11.1463 12.2678 9.45967 13.0512 9.21122C13.8229 8.96671 14.8141 10.8413 15.8644 11.563C16.6584 12.1085 17.2618 11.9889 17.2618 11.9889L20.071 11.9494C20.071 11.9494 21.5406 11.8587 20.8439 10.7032Z" fill="white"/>
</symbol><symbol id="world" viewBox="0 0 87 90">
<g filter="url(#filter0_d)">
<path d="M27.8326 52.308C27.8221 52.2975 27.8011 52.287 27.7907 52.2766C27.3718 51.9308 26.953 51.5537 26.5655 51.1661C26.3247 50.9251 25.9268 50.9251 25.6859 51.1661C25.4451 51.407 25.4451 51.8051 25.6859 52.0565C26.1048 52.4756 26.5236 52.8632 26.9949 53.2404C27.2566 53.4708 27.6545 53.4499 27.8849 53.1985C28.1153 52.9366 28.0943 52.5385 27.8326 52.308Z" fill="url(#paint0_linear)"/>
<path d="M21.2569 33.6704C20.9323 33.5552 20.5762 33.7333 20.461 34.058C20.4401 34.1104 20.4296 34.1523 20.4296 34.2047C20.304 34.7809 20.2097 35.3571 20.1364 35.9438C20.0946 36.2895 20.3249 36.5933 20.6705 36.6457H20.7542C21.0684 36.6457 21.3406 36.4047 21.3825 36.0904C21.4453 35.5457 21.5396 35.0009 21.6548 34.4666C21.7595 34.1418 21.5919 33.7856 21.2569 33.6704Z" fill="url(#paint1_linear)"/>
<path d="M24.7122 48.9766C24.3876 48.5366 24.084 48.0756 23.8012 47.6042C23.6232 47.3108 23.2358 47.2061 22.9426 47.3842C22.6494 47.5623 22.5447 47.9499 22.7227 48.2432C23.0264 48.7461 23.351 49.2385 23.6965 49.7099C23.906 49.9823 24.3039 50.0347 24.5761 49.8147C24.8379 49.6156 24.9007 49.2489 24.7122 48.9766Z" fill="url(#paint2_linear)"/>
<path d="M22.524 45.0059C22.325 44.5031 22.1366 43.9793 21.9795 43.445C21.8853 43.1097 21.5292 42.9212 21.2046 43.0155C21.1941 43.0155 21.1941 43.0155 21.1837 43.0259C20.8591 43.1307 20.6706 43.4764 20.7648 43.8012C20.9324 44.3669 21.1209 44.9221 21.3407 45.4774C21.4664 45.8021 21.8434 45.9593 22.168 45.8336C22.4926 45.7079 22.6497 45.3307 22.524 45.0059Z" fill="url(#paint3_linear)"/>
<path d="M22.9009 29.3543C22.5867 29.1971 22.2098 29.3228 22.0527 29.6371C21.7909 30.1609 21.5501 30.7057 21.3302 31.2505C21.2045 31.5752 21.3616 31.9314 21.6862 32.0676C22.0108 32.1933 22.3773 32.0362 22.503 31.7114C22.7019 31.1981 22.9218 30.6952 23.1731 30.2029C23.3302 29.8886 23.2045 29.5114 22.9009 29.3543Z" fill="url(#paint4_linear)"/>
<path d="M21.393 40.6374C21.3301 40.0927 21.2778 39.5374 21.2568 38.9927C21.2464 38.647 20.9532 38.3746 20.6076 38.3851C20.2621 38.3955 19.9898 38.6889 20.0003 39.0346C20.0003 39.6213 20.0631 40.2079 20.1469 40.7946C20.1888 41.0984 20.4506 41.3289 20.7542 41.3394H20.8485C21.194 41.2975 21.4349 40.9832 21.393 40.6374Z" fill="url(#paint5_linear)"/>
<path d="M38.0634 19.6636C38.032 19.3179 37.7179 19.0664 37.3723 19.0979C36.786 19.1607 36.1996 19.2445 35.6236 19.3493C35.2781 19.3807 35.0268 19.6845 35.0582 20.0407C35.0896 20.3864 35.3933 20.6379 35.7493 20.6064V20.5855H35.875C36.4195 20.4807 36.964 20.3969 37.5085 20.3445C37.8436 20.3236 38.0949 20.0093 38.0634 19.6636Z" fill="url(#paint6_linear)"/>
<path d="M25.6236 25.5516C25.3619 25.3211 24.9639 25.342 24.7336 25.6039C24.3461 26.044 23.9796 26.5049 23.6341 26.9868C23.4351 27.2697 23.498 27.6573 23.7702 27.8668C23.8749 27.9402 24.0006 27.9821 24.1367 27.9821V27.9925C24.3357 27.9925 24.5242 27.8982 24.6498 27.7306C24.9744 27.2906 25.32 26.8506 25.676 26.442C25.9168 26.1906 25.8854 25.7925 25.6236 25.5516Z" fill="url(#paint7_linear)"/>
<path d="M42.1994 19.2029C41.6235 19.1191 41.0266 19.0563 40.4402 19.0144C40.0946 18.9934 39.791 19.2553 39.77 19.601C39.7491 19.9467 40.0109 20.2506 40.3564 20.2715C40.9114 20.3134 41.4559 20.3763 42.0004 20.4601H42.0947C42.4402 20.481 42.7439 20.2296 42.7648 19.8734C42.8067 19.5277 42.5449 19.2344 42.1994 19.2029Z" fill="url(#paint8_linear)"/>
<path d="M29.194 22.5658C28.9951 22.3039 28.6286 22.2305 28.3459 22.4086C27.8642 22.7439 27.393 23.1001 26.9427 23.4772C26.6705 23.6972 26.639 24.0953 26.8589 24.3677C27.0788 24.6401 27.4767 24.6715 27.749 24.4515C28.1679 24.0953 28.6076 23.7601 29.0684 23.4563C29.3406 23.2363 29.4035 22.8382 29.194 22.5658Z" fill="url(#paint9_linear)"/>
<path d="M33.5187 20.5855C33.4244 20.2503 33.0789 20.0512 32.7438 20.1455C32.7124 20.156 32.681 20.1665 32.66 20.1769C32.1155 20.376 31.5605 20.596 31.037 20.8579C30.7228 21.0046 30.5867 21.3817 30.7333 21.696C30.838 21.916 31.0579 22.0627 31.2987 22.0627C31.393 22.0627 31.4768 22.0417 31.5605 21.9998C32.0527 21.7693 32.5658 21.5493 33.0789 21.3607C33.4139 21.2665 33.6129 20.9103 33.5187 20.5855Z" fill="url(#paint10_linear)"/>
<path d="M41.1102 56.9384C41.0892 56.5927 40.7856 56.3308 40.44 56.3518C39.8955 56.3937 39.3405 56.4041 38.7856 56.3937C38.44 56.3832 38.1468 56.6556 38.1363 57.0013C38.1259 57.347 38.3981 57.6403 38.7437 57.6508H39.2777C39.6966 57.6508 40.1154 57.6508 40.5133 57.6089C40.8693 57.588 41.1311 57.2842 41.1102 56.9384Z" fill="url(#paint11_linear)"/>
<path d="M57.561 42.3761C57.2259 42.2923 56.8804 42.4913 56.7966 42.8265C56.6605 43.3608 56.5034 43.8846 56.3149 44.398C56.2102 44.7228 56.3777 45.0685 56.6919 45.1942C57.0165 45.3094 57.383 45.1418 57.4982 44.817C57.6971 44.2618 57.8647 43.6961 58.0113 43.1408C58.095 42.8056 57.8961 42.4599 57.561 42.3761Z" fill="url(#paint12_linear)"/>
<path d="M58.3571 35.179C58.2628 34.6028 58.1372 34.0162 57.9906 33.4504C57.8859 33.1152 57.5403 32.9266 57.2052 33.0314C56.8911 33.1257 56.7026 33.4504 56.7759 33.7647C56.912 34.2886 57.0272 34.8333 57.1215 35.3781C57.1738 35.6714 57.4356 35.8914 57.7288 35.8914H57.8335C58.1791 35.8495 58.4199 35.5247 58.3571 35.179Z" fill="url(#paint13_linear)"/>
<path d="M61.0269 27.9714C60.9955 27.9085 60.9536 27.8457 60.9117 27.7933L59.8018 26.6409C59.6447 26.4838 59.4143 26.4209 59.1944 26.4942L57.1944 27.1019L54.8489 24.6085L60.1159 21.6752C60.4196 21.539 60.5557 21.1723 60.4196 20.8685C60.3882 20.8056 60.3463 20.7428 60.3044 20.6904L58.8279 19.2132C58.6709 19.0561 58.43 19.0037 58.2206 19.0666L51.5504 21.0885L49.2886 18.6999C48.7127 18.0399 47.7807 17.8199 46.9745 18.1551H46.9326C46.3252 18.4066 45.8436 18.8885 45.5922 19.4961C45.5294 19.6532 45.4875 19.8209 45.4561 19.9885L45.2048 19.9047C44.8697 19.7999 44.5242 19.978 44.409 20.3132C44.3043 20.6485 44.4823 20.9942 44.8174 21.1094C45.142 21.2142 45.4666 21.3294 45.7807 21.4552C45.875 21.6123 45.9902 21.7485 46.1158 21.8742L48.4823 24.1161L47.8017 26.358C41.1734 21.6123 31.9586 23.1628 27.2256 29.7943C22.4926 36.4257 24.0319 45.6553 30.6707 50.3906C37.3095 55.1258 46.5242 53.5858 51.2572 46.9439C55.0373 41.6534 54.9012 34.5086 50.9326 29.3543L52.0007 27.4266L54.4928 29.7733L53.896 31.7533C53.8227 31.9733 53.8855 32.2143 54.0426 32.3714C54.0426 32.3714 55.2677 33.5867 55.2991 33.6286C55.5923 33.7962 55.9588 33.7019 56.1264 33.4086C56.1264 33.4086 56.1264 33.3981 56.1368 33.3981L57.7704 30.3914L60.7233 28.7781C61.0374 28.6419 61.1735 28.2752 61.0269 27.9714ZM29.7597 28.799C32.2832 26.2742 35.7073 24.8495 39.2781 24.8599C39.5608 24.8599 39.833 24.8704 40.1158 24.8809C42.4927 27.0704 41.7912 29.0714 40.1995 30.8733C39.2571 31.8686 38.2519 32.8009 37.1838 33.66C35.6341 34.98 34.1995 36.2057 33.655 37.4314C33.0058 38.8876 33.4874 40.2077 36.0843 41.36C37.3828 41.9362 38.0948 42.3867 38.3671 42.722L38.3775 42.7324C38.3671 42.7324 38.3566 42.7429 38.3461 42.7429C37.7178 42.9839 37.0477 43.0991 36.367 43.0781C33.2047 43.2143 30.9639 41.1924 29.2152 39.6315C27.9586 38.5105 26.9115 37.5781 25.8329 37.5781C26.0214 34.2676 27.4141 31.1457 29.7597 28.799ZM52.786 38.3429C52.786 44.1782 49.0373 49.3639 43.4875 51.1763C43.3304 50.1915 43.5085 49.1858 44.0006 48.3268C44.6603 47.2582 45.5189 46.3258 46.5137 45.561C50.3776 42.3343 50.5975 40.5324 50.7651 39.1496C50.8698 38.2695 50.9535 37.62 52.6813 36.6667C52.7546 37.2219 52.786 37.7772 52.786 38.3429ZM52.0111 33.8067C52.1996 34.3305 52.3567 34.8752 52.4719 35.42C49.8331 36.761 49.7179 37.7143 49.5609 39.0238C49.4143 40.1972 49.2362 41.7267 45.7388 44.6496C44.6184 45.5086 43.6655 46.5563 42.9325 47.761C42.2938 48.8925 42.0634 50.223 42.3043 51.5011C35.0372 53.1668 27.8015 48.6201 26.1366 41.3496C25.9481 40.5219 25.8329 39.6734 25.8015 38.8143C26.4717 38.8143 27.3303 39.6105 28.3879 40.5534C30.3042 42.2715 32.7649 44.4505 36.4194 44.3248C37.278 44.3353 38.1367 44.1782 38.9325 43.8429C39.2676 43.6963 39.5189 43.4029 39.6236 43.0572C39.7178 42.6696 39.6027 42.2505 39.3199 41.9677C38.922 41.4858 38.0634 40.92 36.5765 40.2496C34.8068 39.4638 34.4194 38.6991 34.7649 37.9238C35.1838 36.9391 36.5346 35.8286 37.9691 34.5714C39.0896 33.6705 40.1367 32.6857 41.1105 31.6381C42.8592 29.6476 43.7598 27.4685 41.9796 25.0904C43.9587 25.499 45.8226 26.3371 47.4247 27.5628L46.4614 30.7476C46.3881 30.9676 46.4509 31.2086 46.608 31.3657C46.608 31.3657 48.1682 32.9162 48.2205 32.9476C48.5137 33.1152 48.8802 33.0209 49.0478 32.7276C49.0478 32.7276 49.0478 32.7171 49.0582 32.7171L50.2729 30.5171C51.0164 31.5228 51.5923 32.6333 52.0111 33.8067ZM57.6237 29.1238L57.0792 29.3962C56.9536 29.459 56.8593 29.5533 56.807 29.679L56.5347 30.2238L55.4876 32.1095L55.1839 31.7743L55.7913 29.7628C55.8646 29.5324 55.7808 29.2704 55.5923 29.1133L52.2834 26.0019C52.0426 25.7714 51.6551 25.7714 51.4248 26.0123C51.4143 26.0228 51.4143 26.0228 51.4038 26.0333C51.3619 26.0752 48.3881 31.439 48.3881 31.439L47.7389 30.7895L49.7703 24.1057C49.8436 23.8647 49.7703 23.6133 49.5713 23.4561L46.943 20.9837C46.6498 20.7323 46.5556 20.3342 46.7022 19.978C46.8383 19.6742 47.0792 19.4332 47.3828 19.297H47.4038C47.7493 19.1609 48.1472 19.2656 48.3881 19.5485L50.9012 22.2094C51.0583 22.3771 51.2991 22.4399 51.519 22.3771L58.2206 20.3552L58.8698 21.0047L53.5504 23.9276C53.2572 24.0847 53.1525 24.4618 53.3096 24.7552C53.3096 24.7552 53.3096 24.7657 53.3201 24.7657C53.341 24.8076 56.5452 28.2228 56.5452 28.2228C56.7023 28.3904 56.9431 28.4533 57.163 28.3904L59.1735 27.7828L59.4876 28.0971L57.6237 29.1238Z" fill="url(#paint14_linear)"/>
<path d="M56.0112 46.7973C56.0007 46.7869 55.9902 46.7869 55.9798 46.7869C55.6761 46.6297 55.3096 46.7345 55.142 47.0383C54.8803 47.5202 54.5871 47.9916 54.2834 48.4421C54.0844 48.725 54.1473 49.1231 54.4405 49.3221C54.7232 49.5212 55.1211 49.4583 55.3201 49.165C55.6447 48.6831 55.9588 48.1697 56.2415 47.6564C56.4091 47.3631 56.3044 46.9754 56.0112 46.7973Z" fill="url(#paint15_linear)"/>
<path d="M57.9899 37.6201C57.6444 37.6201 57.3616 37.8925 57.3512 38.2382C57.3512 38.2487 57.3512 38.2592 57.3512 38.2592V38.3325C57.3512 38.8773 57.3302 39.4325 57.2779 39.9878C57.2464 40.3335 57.4978 40.6373 57.8433 40.6687H57.9061C58.2412 40.6687 58.5135 40.4173 58.5344 40.082C58.5868 39.4954 58.6182 38.9087 58.6182 38.322V38.2382C58.6182 37.903 58.3355 37.6201 57.9899 37.6201Z" fill="url(#paint16_linear)"/>
<path d="M35.9372 56.0792C35.3927 55.9849 34.8482 55.8697 34.3246 55.7125C34 55.5973 33.6335 55.7649 33.5184 56.1001C33.4032 56.4354 33.5707 56.7916 33.9058 56.9068C33.9267 56.9173 33.9581 56.9173 33.9791 56.9278C34.5445 57.0849 35.1205 57.2211 35.6964 57.3468H35.8116C36.1571 57.3782 36.4713 57.1268 36.5027 56.7811C36.5341 56.4144 36.2828 56.1106 35.9372 56.0792Z" fill="url(#paint17_linear)"/>
<path d="M45.6547 55.8802C45.5395 55.5764 45.2044 55.3983 44.8903 55.4926V55.5135C44.3667 55.6812 43.8327 55.8278 43.2986 55.9326C42.9636 56.0059 42.7437 56.3412 42.8274 56.6869C42.9112 57.0326 43.2358 57.2421 43.5814 57.1583C44.1468 57.0326 44.7227 56.865 45.2777 56.6869C45.6128 56.5716 45.7699 56.2154 45.6547 55.8802Z" fill="url(#paint18_linear)"/>
<path d="M31.6231 54.707C31.1205 54.4556 30.6388 54.1937 30.1571 53.9213C29.8535 53.7432 29.4765 53.848 29.2985 54.1413C29.1205 54.4451 29.2252 54.8222 29.5184 55.0003C30.021 55.2937 30.5446 55.5765 31.0786 55.8384C31.3928 55.9851 31.7697 55.8489 31.9163 55.5346C32.0629 55.2203 31.9373 54.8537 31.6231 54.707Z" fill="url(#paint19_linear)"/>
<path d="M53.3411 50.6629C53.0898 50.4324 52.7023 50.4429 52.4615 50.6943C52.0845 51.1134 51.6866 51.4801 51.2782 51.8467C51.0164 52.0772 50.9955 52.4753 51.2259 52.7372C51.4562 52.9991 51.8541 53.0201 52.1159 52.7896C52.5348 52.402 52.9746 51.9829 53.3725 51.5534C53.6133 51.2915 53.5924 50.8934 53.3411 50.6629Z" fill="url(#paint20_linear)"/>
<path d="M49.8748 53.7956C49.6968 53.5023 49.3094 53.3975 49.0162 53.5756C49.0057 53.5861 48.9952 53.5861 48.9848 53.5965V53.5756C48.524 53.8689 48.0423 54.1413 47.5607 54.4137C47.257 54.5708 47.1313 54.948 47.2884 55.2623C47.4455 55.5661 47.8224 55.6918 48.1366 55.5346C48.6601 55.2623 49.1732 54.9689 49.6654 54.6546C49.9481 54.4765 50.0528 54.0994 49.8748 53.7956Z" fill="url(#paint21_linear)"/>
</g>

</symbol><symbol id="wp" viewBox="0 0 23 23">
<path fill-rule="evenodd" clip-rule="evenodd" d="M19.1273 3.84108C17.11 1.82144 14.4272 0.708704 11.5691 0.70752C5.67968 0.70752 0.886549 5.50052 0.88418 11.3915C0.88339 13.2747 1.37534 15.113 2.31041 16.7333L0.794556 22.27L6.45879 20.7842C8.01952 21.6355 9.7766 22.0842 11.5647 22.0847H11.5692C17.458 22.0847 22.2516 17.2913 22.2539 11.4001C22.2551 8.54498 21.1447 5.86059 19.1273 3.84108ZM11.5691 20.2803H11.5654C9.97191 20.2796 8.40907 19.8513 7.04536 19.0424L6.72121 18.8498L3.35997 19.7316L4.25714 16.4544L4.04591 16.1184C3.1569 14.7045 2.68746 13.0702 2.68825 11.3922C2.69009 6.49573 6.6741 2.51212 11.5726 2.51212C13.9447 2.5129 16.1745 3.43784 17.8512 5.11649C19.5279 6.79514 20.4507 9.0264 20.4499 11.3994C20.4478 16.2962 16.4641 20.2803 11.5691 20.2803ZM16.4404 13.629C16.1735 13.4952 14.8608 12.8496 14.6161 12.7604C14.3715 12.6713 14.1933 12.6269 14.0155 12.8941C13.8375 13.1612 13.3259 13.7627 13.1701 13.9407C13.0143 14.1189 12.8587 14.1413 12.5917 14.0076C12.3246 13.874 11.4645 13.592 10.4446 12.6824C9.65105 11.9745 9.11528 11.1003 8.95946 10.8331C8.8039 10.5657 8.95814 10.4351 9.07659 10.2882C9.36559 9.92936 9.655 9.55309 9.74397 9.37503C9.83306 9.19683 9.78845 9.04088 9.72159 8.9073C9.655 8.77372 9.12107 7.45962 8.89865 6.9249C8.68176 6.40453 8.46185 6.4748 8.29787 6.46664C8.14231 6.45888 7.96424 6.4573 7.78618 6.4573C7.60825 6.4573 7.31897 6.52402 7.07418 6.79145C6.82953 7.05874 6.13991 7.70454 6.13991 9.01864C6.13991 10.3327 7.09656 11.6022 7.23001 11.7804C7.36346 11.9586 9.11265 14.6552 11.7907 15.8115C12.4277 16.0869 12.9249 16.251 13.3128 16.374C13.9524 16.5772 14.5342 16.5485 14.9943 16.4798C15.5073 16.4031 16.5737 15.8339 16.7964 15.2104C17.0188 14.5867 17.0188 14.0522 16.952 13.9407C16.8854 13.8294 16.7073 13.7627 16.4404 13.629Z" fill="white"/>
</symbol></svg>