<svg width="31" height="27" viewBox="0 0 31 27" fill="none" xmlns="http://www.w3.org/2000/svg">
<path d="M28.9016 1.09633L1.25302 12.065C0.357476 12.4203 0.411729 13.7286 1.33358 14.0057L8.35938 16.1178L10.9814 24.5879C11.2553 25.4726 12.3566 25.7408 12.9941 25.0781L16.6267 21.3022L23.754 26.6282C24.6262 27.28 25.8684 26.7958 26.0899 25.7176L30.8103 2.74193C31.0415 1.61651 29.9539 0.678861 28.9016 1.09633ZM25.4352 6.19521L12.5926 17.7568C12.4646 17.872 12.3831 18.0315 12.3641 18.2045L11.8696 22.6792C11.8535 22.8251 11.6529 22.8444 11.61 22.7042L9.57572 16.0308C9.48255 15.7253 9.60403 15.3943 9.87103 15.2257L25.0368 5.6501C25.3856 5.42973 25.7427 5.9185 25.4352 6.19521Z" fill="white"/>
</svg>
