<svg width="804" height="92" viewBox="0 0 804 92" fill="none" xmlns="http://www.w3.org/2000/svg">
<path d="M24.8135 15.528V78.748C24.8135 79.5987 24.8908 80.4107 25.0455 81.184C25.2002 81.9573 25.5482 82.6147 26.0895 83.156C26.5535 83.62 27.1722 83.9293 27.9455 84.084C28.7188 84.2387 29.4922 84.3547 30.2655 84.432C30.4975 84.432 30.6908 84.432 30.8455 84.432C31.0002 84.432 31.1548 84.432 31.3095 84.432L45.5775 84.316C46.1188 84.3933 46.6602 84.432 47.2015 84.432C47.8202 84.3547 48.4388 84.2387 49.0575 84.084C49.8308 84.0067 50.6042 83.852 51.3775 83.62C52.1508 83.388 52.8082 83.0787 53.3495 82.692C54.4322 81.996 55.2442 81.1067 55.7855 80.024C56.3268 78.9413 56.8295 77.7427 57.2935 76.428C57.3708 76.1187 57.4482 75.848 57.5255 75.616C57.6802 75.3067 57.7962 75.036 57.8735 74.804L59.3815 70.512V90H0.337503L3.0055 89.188C3.62417 89.1107 4.32017 88.956 5.0935 88.724C5.94417 88.492 6.79484 88.26 7.6455 88.028C8.41884 87.7187 9.19217 87.448 9.9655 87.216C10.7388 86.9067 11.4348 86.5973 12.0535 86.288C12.4402 86.1333 12.7882 85.94 13.0975 85.708C13.4068 85.476 13.6388 85.2827 13.7935 85.128C13.9482 84.896 14.0642 84.664 14.1415 84.432C14.2962 84.2 14.4508 83.968 14.6055 83.736C14.7602 83.272 14.8375 82.808 14.8375 82.344C14.9148 81.88 14.9535 81.416 14.9535 80.952C14.9535 80.6427 14.9535 80.3333 14.9535 80.024C14.9535 79.6373 14.9535 79.2507 14.9535 78.864V15.876C14.9535 15.7987 14.9535 15.6827 14.9535 15.528C14.9535 15.296 14.9922 15.064 15.0695 14.832C15.0695 14.6773 15.0695 14.484 15.0695 14.252C15.0695 14.02 15.0695 13.788 15.0695 13.556C15.0695 13.2467 15.0308 12.976 14.9535 12.744C14.9535 12.4347 14.9148 12.1253 14.8375 11.816C14.7602 11.352 14.6442 10.9267 14.4895 10.54C14.3348 10.076 14.1028 9.65066 13.7935 9.264C13.6388 9.10933 13.4068 8.916 13.0975 8.684C12.7882 8.45199 12.4402 8.25866 12.0535 8.104C11.4348 7.79466 10.7388 7.52399 9.9655 7.29199C9.19217 6.98266 8.41884 6.67333 7.6455 6.364C6.79484 6.132 5.94417 5.89999 5.0935 5.66799C4.32017 5.436 3.62417 5.24266 3.0055 5.08799L0.337503 4.16H39.6615L37.1095 5.204C36.6455 5.51333 36.1042 5.74533 35.4855 5.9C34.8668 6.05466 34.2095 6.20933 33.5135 6.364C33.3588 6.44133 33.2042 6.51866 33.0495 6.596C32.8948 6.596 32.7402 6.63466 32.5855 6.71199C31.2708 7.02133 29.9948 7.408 28.7575 7.872C27.5975 8.25867 26.7855 8.72266 26.3215 9.264C26.2442 9.41866 26.1282 9.57333 25.9735 9.728C25.8962 9.80533 25.8188 9.92133 25.7415 10.076C25.2775 10.9267 25.0068 11.816 24.9295 12.744C24.8522 13.5947 24.8135 14.5613 24.8135 15.644V15.528ZM78.0938 4.16H136.21L136.094 23.184L134.47 18.544C134.315 18.2347 134.16 17.8867 134.006 17.5C133.928 17.1133 133.812 16.7653 133.658 16.456C133.271 15.3733 132.846 14.4453 132.382 13.672C131.995 12.8213 131.338 12.0867 130.41 11.468C129.791 11.0813 129.095 10.772 128.322 10.54C127.548 10.308 126.775 10.1533 126.002 10.076C125.538 10.076 125.074 10.076 124.61 10.076C124.223 9.99866 123.798 9.95999 123.334 9.95999L109.066 9.84399C108.911 9.92133 108.756 9.95999 108.602 9.95999C108.447 9.95999 108.254 9.95999 108.022 9.95999C107.094 9.95999 106.166 9.99866 105.238 10.076C104.387 10.1533 103.73 10.424 103.266 10.888C102.956 11.1973 102.763 11.7387 102.686 12.512C102.608 13.208 102.57 13.9813 102.57 14.832C102.57 14.832 102.57 14.8707 102.57 14.948C102.57 14.948 102.57 14.9867 102.57 15.064C102.57 15.1413 102.57 15.2573 102.57 15.412C102.57 15.4893 102.57 15.5667 102.57 15.644V43.368H119.042C119.506 43.4453 119.97 43.484 120.434 43.484C120.898 43.484 121.362 43.484 121.826 43.484C122.754 43.484 123.604 43.4453 124.378 43.368C125.228 43.2133 126.002 42.8653 126.698 42.324C126.852 42.1693 127.007 42.0533 127.162 41.976C127.316 41.8213 127.432 41.6667 127.51 41.512C127.896 41.2027 128.167 40.8933 128.322 40.584C128.554 40.2747 128.786 39.888 129.018 39.424L131.454 34.32V61.58L130.41 58.912C130.332 58.68 130.216 58.4093 130.062 58.1C129.984 57.7907 129.907 57.4813 129.83 57.172C129.752 57.0173 129.675 56.9013 129.598 56.824C129.598 56.6693 129.559 56.5147 129.482 56.36C129.095 55.1227 128.631 53.9627 128.09 52.88C127.626 51.72 126.968 50.908 126.118 50.444C125.654 50.1347 125.19 49.9027 124.726 49.748C124.262 49.5933 123.798 49.4773 123.334 49.4C122.87 49.3227 122.367 49.284 121.826 49.284C121.362 49.284 120.82 49.284 120.202 49.284C120.124 49.284 120.008 49.284 119.854 49.284C119.776 49.284 119.699 49.284 119.622 49.284L102.57 49.168V77.704C102.57 78.0907 102.57 78.516 102.57 78.98C102.647 79.444 102.724 79.8693 102.802 80.256C102.956 81.1067 103.15 81.88 103.382 82.576C103.691 83.1947 104.078 83.62 104.542 83.852C105.16 84.1613 105.702 84.3547 106.166 84.432C106.707 84.5093 107.248 84.548 107.79 84.548C108.022 84.548 108.215 84.548 108.37 84.548C108.602 84.548 108.834 84.5093 109.066 84.432C109.22 84.432 109.414 84.432 109.646 84.432C109.878 84.432 110.11 84.432 110.342 84.432L129.366 84.316C129.598 84.3933 129.83 84.432 130.062 84.432C130.294 84.432 130.526 84.432 130.758 84.432C130.912 84.5093 131.106 84.548 131.338 84.548C131.57 84.548 131.802 84.548 132.034 84.548C132.42 84.548 132.807 84.5093 133.194 84.432C133.58 84.3547 133.967 84.2387 134.354 84.084C134.972 83.7747 135.475 83.156 135.862 82.228C136.326 81.3 136.751 80.256 137.138 79.096C137.215 78.864 137.292 78.632 137.37 78.4C137.447 78.0907 137.524 77.82 137.602 77.588C137.756 77.124 137.911 76.66 138.066 76.196C138.298 75.732 138.491 75.3067 138.646 74.92L140.154 71.208L139.574 90H78.0938L80.7618 89.188C81.3804 89.1107 82.0764 88.956 82.8498 88.724C83.7004 88.492 84.5511 88.26 85.4018 88.028C86.1751 87.7187 86.9484 87.448 87.7218 87.216C88.4951 86.9067 89.1911 86.5973 89.8098 86.288C90.1964 86.1333 90.5444 85.94 90.8538 85.708C91.1631 85.476 91.3951 85.2827 91.5498 85.128C91.9364 84.664 92.2071 84.1613 92.3618 83.62C92.5164 83.0013 92.6324 82.3827 92.7098 81.764C92.7098 81.532 92.7098 81.3 92.7098 81.068C92.7098 80.836 92.7098 80.604 92.7098 80.372C92.7098 79.9853 92.7098 79.6373 92.7098 79.328C92.7098 79.0187 92.7098 78.7093 92.7098 78.4V15.528C92.7098 15.2187 92.7098 14.8707 92.7098 14.484C92.7098 14.02 92.7098 13.6333 92.7098 13.324C92.7098 12.5507 92.6324 11.8547 92.4778 11.236C92.4004 10.54 92.0911 9.88266 91.5498 9.264C91.3951 9.10933 91.1631 8.916 90.8538 8.684C90.5444 8.45199 90.1964 8.25866 89.8098 8.104C89.1911 7.79466 88.4951 7.52399 87.7218 7.29199C86.9484 6.98266 86.1751 6.67333 85.4018 6.364C84.5511 6.132 83.7004 5.89999 82.8498 5.66799C82.0764 5.436 81.3804 5.24266 80.7618 5.08799L78.0938 4.16ZM199.751 38.96L211.699 17.268C211.854 17.1133 212.009 16.92 212.163 16.688C212.318 16.3787 212.473 16.0693 212.627 15.76C213.246 14.5227 213.749 13.324 214.135 12.164C214.599 11.004 214.793 10.2693 214.715 9.95999C214.406 9.18666 213.671 8.52933 212.511 7.988C211.429 7.36933 210.269 6.78933 209.031 6.24799C208.722 6.17066 208.413 6.09333 208.103 6.016C207.794 5.86133 207.485 5.70666 207.175 5.55199L204.043 4.16H236.987L234.435 5.08799C234.049 5.32 233.662 5.51333 233.275 5.66799C232.889 5.74533 232.502 5.86133 232.115 6.016C231.342 6.248 230.53 6.51867 229.679 6.828C228.906 7.06 228.094 7.36933 227.243 7.75599C226.702 8.06533 226.122 8.41333 225.503 8.79999C224.885 9.18666 224.266 9.65066 223.647 10.192C222.797 10.9653 221.946 11.8933 221.095 12.976C220.322 14.0587 219.549 15.2573 218.775 16.572L202.767 44.644L222.719 77.472C223.493 78.7867 224.227 80.024 224.923 81.184C225.697 82.2667 226.354 83.3107 226.895 84.316C227.282 85.0893 228.133 85.7853 229.447 86.404C230.762 87.0227 232.115 87.6027 233.507 88.144C233.894 88.2987 234.281 88.4533 234.667 88.608C235.054 88.7627 235.402 88.9173 235.711 89.072L238.147 90H205.783L208.683 88.84C208.761 88.9173 208.838 88.956 208.915 88.956C208.993 88.8787 209.109 88.8013 209.263 88.724C209.418 88.6467 209.573 88.5693 209.727 88.492C209.882 88.4147 210.037 88.376 210.191 88.376C211.197 87.912 212.125 87.4093 212.975 86.868C213.903 86.3267 214.522 85.5533 214.831 84.548C214.831 84.4707 214.831 84.3933 214.831 84.316C214.831 84.2387 214.831 84.1613 214.831 84.084C214.831 83.6973 214.715 83.1947 214.483 82.576C214.329 81.9573 214.097 81.3 213.787 80.604C213.71 80.372 213.594 80.14 213.439 79.908C213.285 79.5987 213.169 79.2893 213.091 78.98C212.937 78.6707 212.782 78.4 212.627 78.168C212.473 77.8587 212.318 77.588 212.163 77.356L197.779 53.228L184.091 77.356C183.859 77.82 183.627 78.284 183.395 78.748C183.163 79.1347 182.893 79.56 182.583 80.024C182.583 80.1013 182.545 80.14 182.467 80.14C182.467 80.14 182.467 80.1787 182.467 80.256C181.926 81.184 181.423 82.0733 180.959 82.924C180.573 83.7747 180.418 84.316 180.495 84.548C180.805 85.3213 181.423 85.9787 182.351 86.52C183.279 87.0613 184.323 87.6027 185.483 88.144C185.715 88.2213 185.986 88.3373 186.295 88.492C186.605 88.5693 186.914 88.6853 187.223 88.84L190.355 90H158.687L161.239 89.072C161.626 88.9947 162.013 88.9173 162.399 88.84C162.863 88.6853 163.289 88.5307 163.675 88.376C164.449 88.144 165.222 87.912 165.995 87.68C166.769 87.448 167.581 87.1387 168.431 86.752C168.973 86.4427 169.553 86.0947 170.171 85.708C170.79 85.244 171.409 84.7413 172.027 84.2C172.878 83.3493 173.69 82.4213 174.463 81.416C175.237 80.3333 176.01 79.1347 176.783 77.82L194.415 47.776L175.159 16.34C174.773 15.7213 174.347 15.1413 173.883 14.6C173.419 13.9813 172.955 13.4013 172.491 12.86C171.95 12.396 171.447 11.9707 170.983 11.584C170.519 11.12 170.094 10.6947 169.707 10.308C169.321 9.92133 168.779 9.53466 168.083 9.148C167.465 8.76133 166.769 8.336 165.995 7.872C165.531 7.71733 165.029 7.52399 164.487 7.29199C164.023 7.06 163.559 6.828 163.095 6.596C162.709 6.44133 162.322 6.28666 161.935 6.13199C161.626 5.9 161.317 5.70666 161.007 5.55199L158.455 4.16H193.487L190.471 5.436C190.162 5.59066 189.853 5.74533 189.543 5.9C189.234 6.05466 188.886 6.20933 188.499 6.364C187.494 6.828 186.566 7.408 185.715 8.104C184.865 8.8 184.323 9.612 184.091 10.54C184.014 10.6173 183.975 10.7333 183.975 10.888C183.975 11.0427 183.975 11.1973 183.975 11.352C183.975 11.7387 184.014 12.164 184.091 12.628C184.169 13.0147 184.285 13.44 184.439 13.904C184.594 14.2907 184.749 14.6773 184.903 15.064C185.058 15.4507 185.251 15.8373 185.483 16.224C185.483 16.3013 185.483 16.3787 185.483 16.456C185.561 16.5333 185.638 16.6107 185.715 16.688L199.751 38.96ZM374.293 72.252V63.668C374.293 62.972 374.177 62.3533 373.944 61.812C373.712 61.1933 373.364 60.6133 372.9 60.072C372.823 59.9947 372.746 59.9173 372.669 59.84C372.591 59.6853 372.514 59.5693 372.436 59.492C371.972 59.028 371.354 58.68 370.581 58.448C369.885 58.1387 369.111 57.868 368.261 57.636C367.951 57.5587 367.603 57.4813 367.217 57.404C366.907 57.3267 366.559 57.2493 366.173 57.172C365.863 57.0173 365.554 56.9013 365.245 56.824C365.012 56.7467 364.78 56.6693 364.549 56.592L360.837 54.62H394.36L390.417 56.824C390.262 56.9787 390.107 57.0947 389.953 57.172C389.798 57.2493 389.643 57.3267 389.488 57.404C389.179 57.5587 388.831 57.7133 388.444 57.868C388.135 57.9453 387.826 58.0227 387.517 58.1C386.743 58.4093 386.047 58.7573 385.429 59.144C384.81 59.4533 384.346 59.956 384.037 60.652C383.804 61.1933 383.611 62.3533 383.457 64.132C383.379 65.9107 383.341 67.844 383.341 69.932C383.341 70.0867 383.341 70.28 383.341 70.512C383.341 70.6667 383.341 70.8213 383.341 70.976C383.341 72.136 383.379 73.2573 383.457 74.34C383.534 75.3453 383.611 76.2733 383.688 77.124L384.385 83.388L377.656 86.056C377.27 86.288 376.845 86.4813 376.381 86.636C375.916 86.7907 375.452 86.9453 374.988 87.1C372.127 88.1827 368.57 89.1493 364.316 90C360.063 90.7733 354.998 91.1213 349.121 91.044C347.883 91.044 346.607 90.9667 345.292 90.812C343.978 90.6573 342.663 90.464 341.348 90.232C332.3 88.376 323.948 83.6973 316.292 76.196C308.714 68.6173 304.731 59.2987 304.344 48.24C304.344 48.0853 304.344 47.9693 304.344 47.892C304.344 47.7373 304.344 47.5827 304.344 47.428C304.344 47.3507 304.344 47.2347 304.344 47.08C304.344 46.9253 304.344 46.8093 304.344 46.732C304.344 33.6627 309.139 22.9133 318.728 14.484C328.395 5.97733 339.608 1.45333 352.369 0.911999C353.219 0.834662 354.07 0.795994 354.92 0.795994C355.771 0.795994 356.583 0.795994 357.356 0.795994C360.604 0.795994 363.582 0.989327 366.289 1.37599C369.073 1.76266 371.779 2.30399 374.408 2.99999C374.872 3.15466 375.375 3.348 375.917 3.57999C376.458 3.73466 376.999 3.88933 377.541 4.04399L382.413 5.55199L380.673 29.912L378.352 20.516C377.888 18.5053 377.308 16.6107 376.612 14.832C375.994 12.976 374.95 11.584 373.48 10.656C373.249 10.5013 372.901 10.3467 372.436 10.192C372.05 9.96 371.547 9.728 370.929 9.496C369.459 9.032 367.564 8.60666 365.245 8.22C363.002 7.756 360.643 7.44666 358.168 7.29199C357.395 7.21466 356.583 7.17599 355.732 7.17599C354.882 7.09866 354.07 7.06 353.296 7.06C352.987 7.06 352.639 7.06 352.252 7.06C351.943 7.06 351.595 7.06 351.208 7.06C340.923 7.67866 332.223 11.468 325.108 18.428C317.994 25.388 314.475 34.2427 314.552 44.992C314.552 45.0693 314.552 45.1853 314.552 45.34C314.552 45.4947 314.552 45.6107 314.552 45.688C314.552 45.8427 314.552 45.9973 314.552 46.152C314.552 46.2293 314.552 46.3453 314.552 46.5C315.016 58.564 318.922 68.076 326.268 75.036C333.615 81.996 342.856 85.3987 353.993 85.244C354.611 85.244 355.23 85.244 355.849 85.244C356.545 85.1667 357.202 85.0893 357.82 85.012C361.301 84.548 364.549 83.6973 367.564 82.46C370.581 81.2227 372.514 79.8693 373.364 78.4C373.519 78.168 373.635 77.9747 373.713 77.82C373.79 77.588 373.867 77.3947 373.944 77.24C374.099 76.6213 374.177 75.964 374.177 75.268C374.254 74.572 374.293 73.6053 374.293 72.368V72.252ZM453.179 50.096L450.859 50.56L463.735 64.828C465.127 66.452 466.403 67.96 467.563 69.352C468.8 70.6667 469.999 71.9813 471.159 73.296C471.468 73.6827 471.778 74.0693 472.087 74.456C472.474 74.7653 472.822 75.1133 473.131 75.5C474.059 76.5053 475.026 77.5107 476.031 78.516C477.114 79.5213 478.235 80.604 479.395 81.764C480.091 82.3827 480.671 82.9627 481.135 83.504C481.676 83.968 482.218 84.432 482.759 84.896C483.068 85.128 483.339 85.36 483.571 85.592C483.88 85.824 484.228 86.056 484.615 86.288C485.311 86.752 486.084 87.2547 486.935 87.796C487.863 88.26 489.023 88.84 490.415 89.536L493.547 90.928L489.719 91.856C489.564 91.9333 489.371 91.972 489.139 91.972C488.907 91.972 488.636 91.972 488.327 91.972C487.09 91.972 485.543 91.74 483.687 91.276C481.908 90.8893 480.052 90.3867 478.119 89.768C475.954 88.9173 473.324 86.9453 470.231 83.852C467.215 80.7587 464.083 77.4333 460.835 73.876C460.758 73.7987 460.68 73.76 460.603 73.76C460.526 73.6827 460.487 73.6053 460.487 73.528C459.791 72.832 459.134 72.136 458.515 71.44C457.896 70.744 457.278 70.048 456.659 69.352L439.723 51.256H436.591V78.748C436.591 80.0627 436.63 81.2227 436.707 82.228C436.862 83.156 437.326 84.084 438.099 85.012C438.563 85.6307 439.375 86.172 440.535 86.636C441.772 87.0227 443.048 87.3707 444.363 87.68C444.595 87.7573 444.788 87.8347 444.943 87.912C445.175 87.9893 445.407 88.028 445.639 88.028C446.258 88.1827 446.838 88.376 447.379 88.608C447.92 88.7627 448.423 88.9173 448.887 89.072L451.439 90H412.115L414.783 89.188C415.402 89.1107 416.098 88.956 416.871 88.724C417.722 88.492 418.572 88.26 419.423 88.028C420.274 87.7187 421.086 87.448 421.859 87.216C422.632 86.9067 423.29 86.5973 423.831 86.288C424.295 86.1333 424.643 85.94 424.875 85.708C425.184 85.476 425.416 85.2827 425.571 85.128C425.958 84.664 426.228 84.1613 426.383 83.62C426.538 83.0013 426.654 82.3827 426.731 81.764C426.731 81.3 426.731 80.8747 426.731 80.488C426.731 80.024 426.731 79.56 426.731 79.096C426.731 79.0187 426.731 78.9027 426.731 78.748C426.731 78.5933 426.731 78.4773 426.731 78.4V15.528C426.731 14.5227 426.654 13.5947 426.499 12.744C426.422 11.8933 426.074 11.0813 425.455 10.308C424.914 9.68933 424.024 9.10933 422.787 8.568C421.627 7.94933 420.39 7.36933 419.075 6.828C418.302 6.51867 417.528 6.248 416.755 6.016C416.059 5.70666 415.402 5.436 414.783 5.204L412.231 4.16H433.343C434.503 4.23733 435.586 4.276 436.591 4.276C437.596 4.19867 438.602 4.12133 439.607 4.04399C439.762 4.04399 439.916 4.04399 440.071 4.04399C440.226 4.04399 440.38 4.04399 440.535 4.04399C441.386 4.04399 442.236 4.04399 443.087 4.04399C443.938 3.96666 444.827 3.92799 445.755 3.92799C446.606 3.92799 447.456 3.96666 448.307 4.04399C449.235 4.04399 450.202 4.08266 451.207 4.16C451.826 4.23733 452.406 4.31466 452.947 4.392C453.566 4.46933 454.184 4.54666 454.803 4.62399C459.443 5.62933 463.735 8.06533 467.679 11.932C471.623 15.7987 473.595 21.1733 473.595 28.056C473.595 33.3147 472.28 37.452 469.651 40.468C467.099 43.484 464.276 45.7653 461.183 47.312C459.791 48.008 458.399 48.588 457.007 49.052C455.615 49.516 454.339 49.9027 453.179 50.212V50.096ZM447.843 9.37999C447.611 9.45733 447.379 9.496 447.147 9.496C446.992 9.496 446.838 9.45733 446.683 9.37999C446.451 9.37999 446.219 9.37999 445.987 9.37999C445.832 9.37999 445.639 9.37999 445.407 9.37999C445.33 9.37999 445.252 9.37999 445.175 9.37999C445.098 9.37999 445.02 9.37999 444.943 9.37999C443.474 9.37999 442.043 9.49599 440.651 9.728C439.336 9.88266 438.447 10.1147 437.983 10.424C437.287 10.888 436.862 11.5067 436.707 12.28C436.63 13.0533 436.591 13.8653 436.591 14.716C436.591 14.7933 436.591 14.8707 436.591 14.948C436.591 14.948 436.591 14.9867 436.591 15.064V46.384L442.043 46.268C448.152 46.268 453.411 44.6053 457.819 41.28C462.227 37.8773 464.392 33.4307 464.315 27.94C464.315 27.708 464.315 27.476 464.315 27.244C464.315 27.012 464.315 26.78 464.315 26.548C463.928 21.8307 462.227 18.0027 459.211 15.064C456.272 12.048 453.024 10.2693 449.467 9.728C449.235 9.65066 448.964 9.612 448.655 9.612C448.423 9.53467 448.152 9.496 447.843 9.496V9.37999ZM556.265 2.536C556.419 2.61333 556.574 2.652 556.729 2.652C556.961 2.652 557.193 2.652 557.425 2.652C557.579 2.652 557.734 2.652 557.889 2.652C558.121 2.652 558.314 2.652 558.469 2.652C570.61 2.652 581.127 6.63466 590.021 14.6C598.914 22.5653 603.515 33.276 603.825 46.732C603.979 60.2653 599.301 71.1307 589.789 79.328C580.277 87.448 569.063 91.4307 556.149 91.276C544.007 91.1987 533.683 86.868 525.177 78.284C516.747 69.6227 512.533 59.1053 512.533 46.732C512.533 34.668 516.825 24.4213 525.409 15.992C533.993 7.56266 544.278 3.116 556.265 2.652V2.536ZM556.149 9.032C545.631 9.41866 537.279 13.324 531.093 20.748C524.983 28.0947 521.967 36.6787 522.045 46.5C522.199 55.9347 525.525 64.5573 532.021 72.368C538.517 80.1787 546.791 84.3933 556.845 85.012C557.077 85.012 557.27 85.012 557.425 85.012C557.657 85.012 557.85 85.012 558.005 85.012C558.159 85.0893 558.314 85.128 558.469 85.128C558.701 85.128 558.933 85.128 559.165 85.128C568.599 85.128 576.797 81.764 583.757 75.036C590.717 68.2307 594.197 59.492 594.197 48.82C594.197 38.38 590.639 29.1387 583.525 21.096C576.487 13.0533 567.787 9.07066 557.425 9.148C557.347 9.148 557.231 9.148 557.077 9.148C556.999 9.148 556.922 9.148 556.845 9.148C556.69 9.148 556.574 9.148 556.497 9.148C556.419 9.148 556.303 9.148 556.149 9.148V9.032ZM703.089 20.052V56.36C703.089 69.7387 699.648 79.0187 692.765 84.2C685.882 89.304 678.033 91.8173 669.217 91.74C660.788 91.6627 653.209 88.9947 646.481 83.736C639.83 78.4773 636.505 69.8547 636.505 57.868V15.876C636.505 15.7987 636.505 15.6827 636.505 15.528C636.505 15.296 636.544 15.064 636.621 14.832C636.621 14.6773 636.621 14.484 636.621 14.252C636.621 14.02 636.621 13.788 636.621 13.556C636.621 13.2467 636.582 12.976 636.505 12.744C636.505 12.4347 636.466 12.1253 636.389 11.816C636.312 11.352 636.196 10.9267 636.041 10.54C635.886 10.076 635.654 9.65066 635.345 9.264C635.19 9.10933 634.958 8.916 634.649 8.684C634.34 8.45199 633.992 8.25866 633.605 8.104C632.986 7.79466 632.29 7.52399 631.517 7.29199C630.744 6.98266 629.97 6.67333 629.197 6.364C628.346 6.132 627.496 5.89999 626.645 5.66799C625.872 5.436 625.176 5.24266 624.557 5.08799L621.889 4.16H661.213L658.661 5.204C658.197 5.51333 657.656 5.74533 657.037 5.9C656.418 6.05466 655.761 6.20933 655.065 6.364C654.91 6.44133 654.756 6.51866 654.601 6.596C654.446 6.596 654.292 6.63466 654.137 6.71199C652.822 7.02133 651.546 7.408 650.309 7.872C649.149 8.25867 648.337 8.72266 647.873 9.264C647.796 9.41866 647.68 9.57333 647.525 9.728C647.448 9.80533 647.37 9.92133 647.293 10.076C646.829 10.9267 646.558 11.816 646.481 12.744C646.404 13.5947 646.365 14.5613 646.365 15.644V58.216C646.365 67.496 648.453 74.1467 652.629 78.168C656.882 82.1893 662.296 84.7027 668.869 85.708C669.488 85.7853 670.068 85.8627 670.609 85.94C671.15 85.94 671.692 85.94 672.233 85.94C678.652 85.94 684.297 83.5813 689.169 78.864C694.041 74.0693 696.477 67.6893 696.477 59.724V16.34C696.477 16.2627 696.477 16.1853 696.477 16.108C696.477 15.5667 696.477 15.0253 696.477 14.484C696.477 13.8653 696.4 13.2467 696.245 12.628C696.168 12.164 696.013 11.7 695.781 11.236C695.626 10.772 695.394 10.308 695.085 9.84399C694.93 9.68933 694.698 9.53466 694.389 9.37999C694.08 9.148 693.693 8.916 693.229 8.684C692.688 8.45199 692.03 8.22 691.257 7.988C690.561 7.67866 689.826 7.36933 689.053 7.06C688.125 6.82799 687.236 6.55733 686.385 6.24799C685.612 5.93866 684.916 5.668 684.297 5.436L681.629 4.16H717.821L715.501 5.436C714.882 5.82266 714.148 6.132 713.297 6.364C712.524 6.596 711.712 6.86666 710.861 7.17599C709.546 7.56266 708.27 7.988 707.033 8.452C705.873 8.83867 705.1 9.30266 704.713 9.84399C704.404 10.2307 704.133 10.9267 703.901 11.932C703.746 12.86 703.592 13.8653 703.437 14.948C703.282 16.108 703.166 17.1907 703.089 18.196C703.089 19.124 703.089 19.7813 703.089 20.168V20.052ZM803.642 30.492C803.642 30.6467 803.642 30.7627 803.642 30.84C803.642 30.9173 803.642 30.9947 803.642 31.072C803.642 31.072 803.642 31.1107 803.642 31.188C803.642 37.684 800.742 43.3293 794.942 48.124C789.219 52.9187 782.917 55.548 776.034 56.012C775.647 56.0893 775.261 56.128 774.874 56.128C774.565 56.128 774.217 56.128 773.83 56.128C772.825 56.128 771.819 56.0893 770.814 56.012C769.886 55.8573 768.919 55.664 767.914 55.432L763.738 54.388V78.748C763.738 80.0627 763.777 81.2227 763.854 82.228C764.009 83.156 764.473 84.084 765.246 85.012C765.71 85.6307 766.522 86.1333 767.682 86.52C768.842 86.9067 770.079 87.2933 771.394 87.68C771.626 87.7573 771.858 87.8347 772.09 87.912C772.322 87.912 772.554 87.9507 772.786 88.028C773.405 88.1827 773.985 88.376 774.526 88.608C775.067 88.7627 775.57 88.9173 776.034 89.072L778.586 90H739.262L741.93 89.188C742.549 89.1107 743.245 88.956 744.018 88.724C744.869 88.492 745.719 88.26 746.57 88.028C747.343 87.7187 748.117 87.448 748.89 87.216C749.663 86.9067 750.359 86.5973 750.978 86.288C751.365 86.1333 751.713 85.94 752.022 85.708C752.331 85.476 752.563 85.2827 752.718 85.128C752.95 84.7413 753.143 84.3933 753.298 84.084C753.53 83.6973 753.685 83.3107 753.762 82.924C753.839 82.5373 753.878 82.1507 753.878 81.764C753.955 81.3773 753.994 81.0293 753.994 80.72C753.994 80.488 753.994 80.2947 753.994 80.14C753.994 79.908 753.994 79.7147 753.994 79.56C753.917 79.328 753.878 79.1347 753.878 78.98C753.878 78.748 753.878 78.5547 753.878 78.4V15.528C753.878 14.5227 753.801 13.5947 753.646 12.744C753.569 11.8933 753.221 11.0813 752.602 10.308C752.061 9.68933 751.171 9.10933 749.934 8.568C748.774 7.94933 747.537 7.36933 746.222 6.828C745.449 6.51867 744.675 6.248 743.902 6.016C743.206 5.70666 742.549 5.436 741.93 5.204L739.378 4.16H760.49C761.65 4.23733 762.771 4.276 763.854 4.276C764.937 4.19867 765.981 4.16 766.986 4.16C767.218 4.16 767.411 4.16 767.566 4.16C767.721 4.16 767.875 4.16 768.03 4.16C768.881 4.08266 769.731 4.04399 770.582 4.04399C771.51 4.04399 772.438 4.04399 773.366 4.04399C774.139 4.04399 774.951 4.04399 775.802 4.04399C776.653 4.04399 777.503 4.08266 778.354 4.16C779.205 4.16 780.094 4.23733 781.022 4.392C781.95 4.54666 782.878 4.73999 783.806 4.972C788.601 6.13199 793.047 8.79999 797.146 12.976C801.245 17.152 803.41 23.0293 803.642 30.608V30.492ZM775.106 10.54C774.874 10.6173 774.642 10.656 774.41 10.656C774.178 10.656 773.907 10.656 773.598 10.656C773.211 10.656 772.825 10.656 772.438 10.656C772.129 10.656 771.781 10.656 771.394 10.656C770.079 10.7333 768.803 10.8493 767.566 11.004C766.406 11.1587 765.594 11.3907 765.13 11.7C764.434 12.164 764.009 12.7827 763.854 13.556C763.777 14.3293 763.738 15.1413 763.738 15.992C763.738 16.0693 763.738 16.1467 763.738 16.224C763.738 16.224 763.738 16.2627 763.738 16.34V48.704L767.218 49.168C768.146 49.4 769.035 49.5547 769.886 49.632C770.814 49.7093 771.703 49.748 772.554 49.748C778.509 49.748 783.574 48.0467 787.75 44.644C791.926 41.2413 794.014 36.4853 794.014 30.376C794.014 30.144 794.014 29.9507 794.014 29.796C794.014 29.564 794.014 29.3707 794.014 29.216C793.782 24.0347 792.313 20.0907 789.606 17.384C786.899 14.6 783.999 12.7053 780.906 11.7C779.901 11.3907 778.895 11.1587 777.89 11.004C776.962 10.8493 776.034 10.7333 775.106 10.656V10.54Z" fill="url(#paint0_linear)"/>
<defs>
<linearGradient id="paint0_linear" x1="-13.4847" y1="-70.7479" x2="813.437" y2="223.235" gradientUnits="userSpaceOnUse">
<stop stop-color="#DBB777"/>
<stop offset="1" stop-color="#A98341"/>
</linearGradient>
</defs>
</svg>
