<svg width="104" height="110" viewBox="0 0 104 110" fill="none" xmlns="http://www.w3.org/2000/svg">
<g filter="url(#filter0_d)">
<path d="M72.1873 27.9843C70.3302 27.7495 68.5151 27.3375 66.7935 26.7602C66.333 26.606 65.8349 26.8541 65.6807 27.3141C65.5264 27.7746 65.7745 28.2727 66.2346 28.4269C68.0661 29.0413 69.9946 29.4789 71.9671 29.7284C74.9252 30.1028 77.0364 32.8329 76.6729 35.8139C76.1964 39.7232 75.3239 45.5583 73.8737 51.1558C72.294 57.2528 70.44 61.4949 68.3632 63.7645C64.0982 68.425 58.751 72.5558 55.0166 75.2003C53.0542 76.5901 50.4175 76.5901 48.4555 75.2003C44.721 72.5558 39.3739 68.425 35.1089 63.7645C33.032 61.4949 31.1776 57.2528 29.5984 51.1558C28.1482 45.5583 27.2757 39.7232 26.7987 35.8139C26.4357 32.8329 28.5464 30.1028 31.5049 29.7284C40.0326 28.6499 45.6846 24.3652 48.9247 20.9608C49.6631 20.1854 50.6614 19.7578 51.7358 19.7578C52.8102 19.7578 53.8086 20.1854 54.5474 20.9608C56.8815 23.4135 59.5796 25.4135 62.5665 26.9053C63.0005 27.1223 63.5287 26.9461 63.7457 26.5117C63.9622 26.0772 63.786 25.5494 63.352 25.3329C60.5478 23.9322 58.014 22.0535 55.8204 19.7491C54.747 18.6212 53.2963 18 51.7358 18C50.1753 18 48.7246 18.6212 47.6512 19.7491C44.608 22.9466 39.2984 26.9708 31.2843 27.9843C27.3686 28.4796 24.5735 32.0877 25.0537 36.0267C25.8722 42.7403 28.3642 58.9982 33.8121 64.9514C38.1819 69.7264 43.6348 73.9406 47.4392 76.6349C48.7242 77.545 50.2298 78 51.7358 78C53.2414 77.9995 54.7474 77.545 56.0324 76.6349C59.8369 73.9406 65.2897 69.7264 69.6595 64.9514C75.1079 58.9982 77.5995 42.7403 78.4179 36.0267C78.8981 32.0877 76.103 28.4796 72.1873 27.9843Z" fill="url(#paint0_linear)"/>
<path d="M49.7528 26.2562C45.3065 30.1037 40.1159 32.6219 34.3257 33.7407C32.5615 34.0817 31.3704 35.7498 31.6139 37.5387C32.0236 40.5467 32.8613 46.1722 33.8661 50.0503C35.6976 57.121 37.4687 59.8131 38.3613 60.7881C41.2956 63.9943 46.7402 68.2785 49.7244 70.5467C50.3167 70.9967 51.0263 71.2215 51.7358 71.2215C52.4454 71.2215 53.1549 70.9967 53.7472 70.5467C56.7314 68.2785 62.176 63.9943 65.1103 60.7881C66.0029 59.8131 67.774 57.121 69.6055 50.0503C70.6108 46.1713 71.448 40.5463 71.8582 37.5387C72.1017 35.7498 70.9102 34.0817 69.1459 33.7407C63.3557 32.6219 58.1651 30.1037 53.7188 26.2562C52.5882 25.278 50.8835 25.278 49.7528 26.2562ZM70.1164 37.3012C69.7117 40.2707 68.8864 45.8179 67.904 49.6095C66.0524 56.757 64.3051 59.0642 63.8139 59.6016C60.8664 62.8219 55.0482 67.3497 52.6834 69.1469C52.1254 69.5712 51.3463 69.5712 50.7882 69.1469C48.4234 67.3497 42.6053 62.8215 39.6582 59.6016C39.1665 59.0642 37.4193 56.757 35.5676 49.6095C34.5857 45.8188 33.7604 40.2711 33.3557 37.3012C33.2376 36.4364 33.8102 35.6308 34.6589 35.4664C40.7559 34.2886 46.2211 31.6373 50.9031 27.5856C51.1403 27.3801 51.4383 27.2771 51.7358 27.2771C52.0334 27.2771 52.3314 27.3801 52.5685 27.5856C57.2505 31.6373 62.7157 34.2886 68.8127 35.4664C69.6614 35.6308 70.2341 36.4364 70.1164 37.3012Z" fill="url(#paint1_linear)"/>
<path d="M46.8616 45.4297C46.2006 44.8913 43.9694 43.7799 42.3718 45.8906C40.7747 48.0009 42.1718 49.8421 42.8328 50.3804L45.3816 52.4541C45.7579 52.7603 46.3118 52.704 46.6181 52.3273C46.9243 51.9505 46.8675 51.3971 46.4913 51.0904L43.9424 49.0167C43.6458 48.775 42.9976 47.9881 43.7355 46.9998C44.4734 46.012 45.4553 46.5512 45.752 46.7929L51.0295 51.0872C51.3779 51.3705 51.8837 51.3458 52.2028 51.0295L59.9257 43.3789C60.4874 42.8223 61.3965 42.8268 61.9531 43.3885C62.5093 43.9497 62.5047 44.8593 61.9435 45.4155L52.7448 54.5286C52.0165 55.2309 51.2145 54.9383 50.8313 54.622L49.371 53.4341C48.9943 53.1279 48.4409 53.1847 48.1342 53.5609C47.8279 53.9372 47.8847 54.4911 48.2614 54.7974L49.7217 55.9857C50.2889 56.4471 51.0039 56.7017 51.7354 56.7017C52.5827 56.7017 53.3806 56.3734 53.9821 55.7774L63.1804 46.6647C64.4306 45.426 64.4402 43.4013 63.2015 42.1512C61.9632 40.9015 59.9385 40.8919 58.6884 42.1301L51.5262 49.2255L46.8616 45.4297Z" fill="url(#paint2_linear)"/>
</g>
<defs>
<filter id="filter0_d" x="0" y="0" width="103.472" height="110" filterUnits="userSpaceOnUse" color-interpolation-filters="sRGB">
<feFlood flood-opacity="0" result="BackgroundImageFix"/>
<feColorMatrix in="SourceAlpha" type="matrix" values="0 0 0 0 0 0 0 0 0 0 0 0 0 0 0 0 0 0 127 0"/>
<feOffset dy="7"/>
<feGaussianBlur stdDeviation="12.5"/>
<feColorMatrix type="matrix" values="0 0 0 0 0.973799 0 0 0 0 0.813345 0 0 0 0 0.535802 0 0 0 0.59 0"/>
<feBlend mode="normal" in2="BackgroundImageFix" result="effect1_dropShadow"/>
<feBlend mode="normal" in="SourceGraphic" in2="effect1_dropShadow" result="shape"/>
</filter>
<linearGradient id="paint0_linear" x1="24.318" y1="-12.7827" x2="84.7473" y2="-9.66153" gradientUnits="userSpaceOnUse">
<stop stop-color="#DBB777"/>
<stop offset="1" stop-color="#A98341"/>
</linearGradient>
<linearGradient id="paint1_linear" x1="24.318" y1="-12.7827" x2="84.7473" y2="-9.66153" gradientUnits="userSpaceOnUse">
<stop stop-color="#DBB777"/>
<stop offset="1" stop-color="#A98341"/>
</linearGradient>
<linearGradient id="paint2_linear" x1="24.318" y1="-12.7827" x2="84.7473" y2="-9.66153" gradientUnits="userSpaceOnUse">
<stop stop-color="#DBB777"/>
<stop offset="1" stop-color="#A98341"/>
</linearGradient>
</defs>
</svg>
