<svg width="110" height="110" viewBox="0 0 110 110" fill="none" xmlns="http://www.w3.org/2000/svg">
<g filter="url(#filter0_d)">
<path d="M83.1552 38.6937C78.2534 23.1676 61.5313 14.4909 45.8705 19.3495C30.2118 24.2101 21.4605 40.7957 26.3613 56.3218L28.2855 55.7241C23.7163 41.2505 31.8749 25.7882 46.4732 21.2565C53.5451 19.0626 61.0555 19.7302 67.6184 23.1356C74.1842 26.5429 79.0185 32.2799 81.232 39.2915C83.4445 46.3029 82.7721 53.7492 79.337 60.2589C75.9028 66.7696 70.1172 71.5632 63.0453 73.7582C51.2087 77.4313 38.2342 72.7927 31.4859 62.4759L29.7945 63.5634C35.3726 72.0931 44.92 77.0046 54.8172 77.0035C57.7605 77.0035 60.737 76.5697 63.647 75.6642C71.232 73.3104 77.4381 68.168 81.1232 61.1855C84.8083 54.2029 85.5289 46.215 83.1552 38.6937Z" fill="url(#paint0_linear)"/>
<path d="M48.9165 31.9931L49.4951 30.078L39.4154 27.0795C39.0626 26.9736 38.6765 27.0696 38.4135 27.3304L36.3976 29.3294C36.1627 29.5622 36.0589 29.8951 36.1194 30.219C36.1799 30.5428 36.3976 30.8157 36.7009 30.9496L45.7727 34.9476L46.5912 33.1205L38.8611 29.7132L39.4135 29.1655L48.9165 31.9931Z" fill="url(#paint1_linear)"/>
<path d="M58.2795 26.0391C58.2795 25.4874 57.8289 25.0396 57.2716 25.0396C57.2705 25.0396 57.2705 25.0396 57.2696 25.0396C55.052 25.0396 52.9665 25.8961 51.3981 27.4514L42.8506 35.9262L39.3721 35.0636C39.0285 34.9786 38.6655 35.0775 38.4145 35.3264L36.3986 37.3254C36.1789 37.5432 36.0721 37.8491 36.1104 38.154C36.1487 38.4588 36.326 38.7307 36.5922 38.8887L41.4163 41.7592L44.3111 46.5427C44.4704 46.8066 44.7435 46.9825 45.052 47.0205C45.0923 47.0256 45.1337 47.0275 45.175 47.0275C45.4401 47.0275 45.6971 46.9236 45.8887 46.7357L47.9046 44.7368C48.1546 44.4879 48.2554 44.1281 48.1697 43.7872L47.3008 40.3419L55.9845 31.8162C57.4661 30.2779 58.2816 28.257 58.2795 26.0391ZM45.4733 39.3204C45.2203 39.5682 45.1185 39.9301 45.2042 40.2729L46.0741 43.7222L45.3746 44.4158L43.0149 40.5158C42.9292 40.3748 42.8113 40.2569 42.6692 40.173L38.7362 37.8332L39.4357 37.1395L42.9142 38.0021C43.2579 38.0871 43.6208 37.9882 43.8718 37.7393L52.8226 28.8638C53.7499 27.9433 54.9171 27.3466 56.1831 27.1297C55.9835 28.365 55.416 29.5104 54.5452 30.415L45.4733 39.3204Z" fill="url(#paint2_linear)"/>
<path d="M56.2203 43.8751L53.1964 33.7503L51.2631 34.318L54.1045 43.8313L53.4927 44.3671L50.1321 36.6369L48.2805 37.4285L52.1914 46.4241C52.3194 46.718 52.5815 46.9338 52.8969 47.0038C52.9706 47.0197 53.0441 47.0278 53.1177 47.0278C53.3607 47.0278 53.5985 46.9409 53.784 46.778L55.9209 44.9089C56.2152 44.6517 56.3311 44.2489 56.2203 43.8751Z" fill="url(#paint3_linear)"/>
<path d="M44.1992 73.1114C37.0205 76.4847 31.389 76.9205 28.7521 74.3068C24.182 69.7751 29.1452 56.6088 40.2963 43.6793L38.7642 42.3799C26.5336 56.5607 21.8295 70.2708 27.3259 75.7201C28.8611 77.2413 31.0292 78 33.7184 78C36.8531 78 40.6955 76.9696 45.0621 74.9175L44.1992 73.1114Z" fill="url(#paint4_linear)"/>
<path d="M78.3199 52.5527C78.1445 52.2279 77.8029 52.025 77.4308 52.025H74.0219L71.2763 46.5807C71.1049 46.2419 70.7561 46.028 70.3741 46.028H60.2944C59.7369 46.028 59.2864 46.4757 59.2864 47.0274V55.0235C59.2864 55.5762 59.737 56.023 60.2944 56.023H63.3182V67.0175C63.3182 67.5702 63.7687 68.0169 64.3262 68.0169H69.366C69.6331 68.0169 69.8892 67.9119 70.0797 67.723L74.1115 63.7251C74.301 63.5382 74.4069 63.2843 74.4069 63.0184V59.3233L78.2693 53.5782C78.4751 53.2723 78.4953 52.8775 78.3199 52.5527ZM72.5593 58.4668C72.4494 58.6307 72.39 58.8246 72.39 59.0215V62.6057L68.9488 66.018H65.3332V55.0235C65.3332 54.4707 64.8827 54.024 64.3253 54.024H61.3014V48.0271H69.7502L72.4959 53.4713C72.6672 53.8101 73.016 54.0241 73.3979 54.0241H75.5469L72.5593 58.4668Z" fill="url(#paint5_linear)"/>
<path d="M79.0226 44.029L75.281 37.5362C75.1016 37.2244 74.7669 37.0325 74.4061 37.0325H68.3583C68.0216 37.0325 67.7072 37.1993 67.5197 37.4772L65.8032 40.0309H63.3185V35.0335H68.3583C68.6265 35.0335 68.8815 34.9285 69.071 34.7406L72.8075 31.0355H77.43V29.0365H72.3902C72.122 29.0365 71.867 29.1415 71.6775 29.3294L67.941 33.0345H62.3106C61.7531 33.0345 61.3026 33.4823 61.3026 34.034V41.0304C61.3026 41.5821 61.7533 42.0299 62.3106 42.0299H66.3424C66.6791 42.0299 66.9936 41.863 67.181 41.5852L68.8976 39.0314H73.8216L77.5632 45.5242C77.7426 45.836 78.0772 46.028 78.438 46.028H82.4699V44.029H79.0226Z" fill="url(#paint6_linear)"/>
<path d="M54.2466 54.024H48.6162L45.8876 51.3184C45.6991 51.1304 45.4421 51.0255 45.175 51.0255H40.1352C39.5788 51.0255 39.1273 51.4724 39.1273 52.025V59.0214C39.1273 59.5742 39.5788 60.0209 40.1352 60.0209H44.167V70.0159C44.167 70.3948 44.3827 70.7406 44.7245 70.9104C44.8667 70.9804 45.0218 71.0154 45.1751 71.0154C45.3888 71.0154 45.6015 70.9485 45.7799 70.8155L49.8117 67.817C50.0657 67.6281 50.2149 67.3313 50.2149 67.0174V64.4987L54.8768 60.8016C55.1156 60.6118 55.2547 60.3249 55.2547 60.021V55.0236C55.2546 54.4708 54.803 54.024 54.2466 54.024ZM53.2387 59.5413L48.5768 63.2384C48.338 63.4284 48.1989 63.7151 48.1989 64.019V66.5178L46.183 68.0171V59.0215C46.183 58.4688 45.7314 58.0221 45.175 58.0221H41.1432V53.0246H44.7577L47.4863 55.7302C47.6748 55.9181 47.9318 56.0231 48.1989 56.0231H53.2387V59.5413Z" fill="url(#paint7_linear)"/>
<path d="M33.9432 39.5163L30.9193 34.5189C30.7379 34.2181 30.4092 34.0341 30.0555 34.0341H29.0476V36.0331H29.4851L31.8105 39.8761L29.343 42.3229C29.1535 42.5098 29.0477 42.7647 29.0477 43.0295V46.028H26.0236V48.0269H30.0554C30.6118 48.0269 31.0634 47.5792 31.0634 47.0274V43.4433L33.7919 40.7377C34.1186 40.4128 34.1811 39.9101 33.9432 39.5163Z" fill="url(#paint8_linear)"/>
<path d="M56.2636 19.0416V20.261L52.9947 21.0715C52.8828 21.0995 52.776 21.1465 52.6803 21.2095L50.1432 22.8867L44.6185 20.1471L43.7164 21.9351L49.7642 24.9336C49.9063 25.0035 50.0606 25.0386 50.2148 25.0386C50.4104 25.0386 50.6049 24.9816 50.7732 24.8706L53.6519 22.9676L57.5155 22.0101C57.964 21.8991 58.2795 21.4994 58.2795 21.0406V19.0416H56.2636Z" fill="url(#paint9_linear)"/>
</g>
<defs>
<filter id="filter0_d" x="0" y="0" width="109.528" height="110" filterUnits="userSpaceOnUse" color-interpolation-filters="sRGB">
<feFlood flood-opacity="0" result="BackgroundImageFix"/>
<feColorMatrix in="SourceAlpha" type="matrix" values="0 0 0 0 0 0 0 0 0 0 0 0 0 0 0 0 0 0 127 0"/>
<feOffset dy="7"/>
<feGaussianBlur stdDeviation="12.5"/>
<feColorMatrix type="matrix" values="0 0 0 0 0.973799 0 0 0 0 0.813345 0 0 0 0 0.535802 0 0 0 0.59 0"/>
<feBlend mode="normal" in2="BackgroundImageFix" result="effect1_dropShadow"/>
<feBlend mode="normal" in="SourceGraphic" in2="effect1_dropShadow" result="shape"/>
</filter>
<linearGradient id="paint0_linear" x1="24.2407" y1="-12.7827" x2="91.472" y2="-8.9169" gradientUnits="userSpaceOnUse">
<stop stop-color="#DBB777"/>
<stop offset="1" stop-color="#A98341"/>
</linearGradient>
<linearGradient id="paint1_linear" x1="24.2407" y1="-12.7827" x2="91.472" y2="-8.9169" gradientUnits="userSpaceOnUse">
<stop stop-color="#DBB777"/>
<stop offset="1" stop-color="#A98341"/>
</linearGradient>
<linearGradient id="paint2_linear" x1="24.2407" y1="-12.7827" x2="91.472" y2="-8.9169" gradientUnits="userSpaceOnUse">
<stop stop-color="#DBB777"/>
<stop offset="1" stop-color="#A98341"/>
</linearGradient>
<linearGradient id="paint3_linear" x1="24.2407" y1="-12.7827" x2="91.472" y2="-8.9169" gradientUnits="userSpaceOnUse">
<stop stop-color="#DBB777"/>
<stop offset="1" stop-color="#A98341"/>
</linearGradient>
<linearGradient id="paint4_linear" x1="24.2407" y1="-12.7827" x2="91.472" y2="-8.9169" gradientUnits="userSpaceOnUse">
<stop stop-color="#DBB777"/>
<stop offset="1" stop-color="#A98341"/>
</linearGradient>
<linearGradient id="paint5_linear" x1="24.2407" y1="-12.7827" x2="91.472" y2="-8.9169" gradientUnits="userSpaceOnUse">
<stop stop-color="#DBB777"/>
<stop offset="1" stop-color="#A98341"/>
</linearGradient>
<linearGradient id="paint6_linear" x1="24.2407" y1="-12.7827" x2="91.472" y2="-8.9169" gradientUnits="userSpaceOnUse">
<stop stop-color="#DBB777"/>
<stop offset="1" stop-color="#A98341"/>
</linearGradient>
<linearGradient id="paint7_linear" x1="24.2407" y1="-12.7827" x2="91.472" y2="-8.9169" gradientUnits="userSpaceOnUse">
<stop stop-color="#DBB777"/>
<stop offset="1" stop-color="#A98341"/>
</linearGradient>
<linearGradient id="paint8_linear" x1="24.2407" y1="-12.7827" x2="91.472" y2="-8.9169" gradientUnits="userSpaceOnUse">
<stop stop-color="#DBB777"/>
<stop offset="1" stop-color="#A98341"/>
</linearGradient>
<linearGradient id="paint9_linear" x1="24.2407" y1="-12.7827" x2="91.472" y2="-8.9169" gradientUnits="userSpaceOnUse">
<stop stop-color="#DBB777"/>
<stop offset="1" stop-color="#A98341"/>
</linearGradient>
</defs>
</svg>
