<svg width="110" height="110" viewBox="0 0 110 110" fill="none" xmlns="http://www.w3.org/2000/svg">
<g filter="url(#filter0_d)">
<path d="M84.9012 45.9505H81.998V32.7081C81.998 29.5334 79.3934 26.9507 76.1918 26.9507H72.2598L68.236 19.7768C67.6228 18.6805 66.4557 18 65.19 18C64.6 18 64.0148 18.1509 63.498 18.4352L48.0556 26.9505H30.8063C27.6046 26.9505 25 29.5332 25 32.708V72.2425C25 75.4173 27.6046 78 30.8063 78H76.1918C79.3934 78 81.998 75.4173 81.998 72.2425V60.6319H84.9012V45.9505ZM76.1918 29.2535C77.9801 29.2535 79.4409 30.6007 79.6372 32.3245H75.2732L73.5521 29.2535H76.1918ZM64.6279 20.448C65.1725 20.1452 65.9053 20.357 66.206 20.8949L72.6161 32.3235H43.0901L64.6279 20.448ZM79.6755 72.2425C79.6755 74.1471 78.1123 75.6971 76.1916 75.6971H30.8063C28.8855 75.6971 27.3224 74.1471 27.3224 72.2425V32.7081C27.3224 30.8035 28.8855 29.2535 30.8063 29.2535H43.8797L38.3103 32.3247H31.5321C30.8899 32.3247 30.3708 32.8405 30.3708 33.4762C30.3708 34.1119 30.8899 34.6278 31.5321 34.6278H79.6755V45.9515H71.1833C67.2395 45.9515 64.0299 49.1343 64.0299 53.0447V53.54C64.0299 57.4505 67.2397 60.6332 71.1833 60.6332H79.6755V72.2425ZM82.5786 58.329H71.1833C68.5194 58.329 66.3523 56.1804 66.3523 53.5387V53.0435C66.3523 50.402 68.5192 48.2532 71.1833 48.2532H82.5786V58.329ZM74.7401 53.3857C74.7401 54.7906 73.5927 55.9281 72.1761 55.9281C70.7594 55.9281 69.6122 54.7904 69.6122 53.3857C69.6122 51.981 70.7595 50.8433 72.1761 50.8433C73.5929 50.8431 74.7401 51.9819 74.7401 53.3857Z" fill="url(#paint0_linear)"/>
</g>
<defs>
<filter id="filter0_d" x="0" y="0" width="109.901" height="110" filterUnits="userSpaceOnUse" color-interpolation-filters="sRGB">
<feFlood flood-opacity="0" result="BackgroundImageFix"/>
<feColorMatrix in="SourceAlpha" type="matrix" values="0 0 0 0 0 0 0 0 0 0 0 0 0 0 0 0 0 0 127 0"/>
<feOffset dy="7"/>
<feGaussianBlur stdDeviation="12.5"/>
<feColorMatrix type="matrix" values="0 0 0 0 0.973799 0 0 0 0 0.813345 0 0 0 0 0.535802 0 0 0 0.59 0"/>
<feBlend mode="normal" in2="BackgroundImageFix" result="effect1_dropShadow"/>
<feBlend mode="normal" in="SourceGraphic" in2="effect1_dropShadow" result="shape"/>
</filter>
<linearGradient id="paint0_linear" x1="24.236" y1="-12.7827" x2="91.8856" y2="-8.86848" gradientUnits="userSpaceOnUse">
<stop stop-color="#DBB777"/>
<stop offset="1" stop-color="#A98341"/>
</linearGradient>
</defs>
</svg>
