<svg width="105" height="110" viewBox="0 0 105 110" fill="none" xmlns="http://www.w3.org/2000/svg">
<g filter="url(#filter0_d)">
<path d="M62.8178 18C62.1652 18 61.636 18.5248 61.636 19.1719V24.5625C61.636 25.2096 62.1652 25.7344 62.8178 25.7344C63.4704 25.7344 63.9996 25.2096 63.9996 24.5625V19.1719C63.9996 18.5248 63.4704 18 62.8178 18Z" fill="url(#paint0_linear)"/>
<path d="M35.6363 54.5625C34.9839 54.5625 34.4544 55.0875 34.4544 55.7344C34.4544 56.3813 34.9839 56.9062 35.6363 56.9062C36.2886 56.9062 36.8181 56.3813 36.8181 55.7344C36.8181 55.0875 36.2886 54.5625 35.6363 54.5625Z" fill="url(#paint1_linear)"/>
<path d="M79.3631 52.2188C79.3631 49.6341 77.2425 47.5312 74.6359 47.5312H65.8134C67.1793 44.0621 67.7321 39.9789 67.6255 36.3441C67.6052 35.6504 67.5784 35.2493 67.5421 34.9968C67.481 32.4647 65.3842 30.4219 62.8178 30.4219C60.2112 30.4219 58.0906 32.5247 58.0906 35.1094V36.2812C58.0906 43.6929 48.4927 47.8572 41.2494 49.6429C40.7017 48.4014 39.4516 47.5312 37.9999 47.5312H26.1818C25.5292 47.5312 25 48.056 25 48.7031V76.8281C25 77.4752 25.5292 78 26.1818 78H37.9999C39.4419 78 40.6848 77.1414 41.2381 75.913C41.8379 76.0656 42.3946 76.2097 42.9086 76.3429C47.0349 77.4115 49.3079 78 54.8359 78H67.545C70.1516 78 72.2722 75.8972 72.2722 73.3125C72.2722 72.3488 71.9771 71.4523 71.4722 70.7065C73.2978 70.0733 74.6359 68.3436 74.6359 66.2812C74.6359 65.321 74.348 64.4216 73.8445 63.6724C75.6621 63.0382 76.9995 61.3125 76.9995 59.25C76.9995 58.2863 76.7044 57.3898 76.1994 56.644C78.025 56.0108 79.3631 54.2811 79.3631 52.2188ZM39.1817 74.4844C39.1817 75.1305 38.6515 75.6562 37.9999 75.6562H27.3636V49.875H37.9999C38.6515 49.875 39.1817 50.4007 39.1817 51.0469V74.4844ZM74.6359 54.5625C72.101 54.5625 71.4967 54.5625 68.7268 54.5625C68.0742 54.5625 67.545 55.0873 67.545 55.7344C67.545 56.3815 68.0742 56.9062 68.7268 56.9062H72.2722C73.5755 56.9062 74.6359 57.9577 74.6359 59.25C74.6359 60.5445 73.5777 61.5938 72.2722 61.5938H66.3632C65.7106 61.5938 65.1814 62.1185 65.1814 62.7656C65.1814 63.4127 65.7106 63.9375 66.3632 63.9375H69.9086C71.1964 63.9375 72.2722 64.9576 72.2722 66.2812C72.2722 67.5757 71.2141 68.625 69.9086 68.625C67.3738 68.625 66.7695 68.625 63.9996 68.625C63.347 68.625 62.8178 69.1498 62.8178 69.7969C62.8178 70.444 63.347 70.9688 63.9996 70.9688H67.545C68.8483 70.9688 69.9086 72.0202 69.9086 73.3125C69.9086 74.6048 68.8483 75.6562 67.545 75.6562H54.8359C49.6115 75.6562 47.571 75.1279 43.5059 74.0752C42.9104 73.9209 42.2572 73.7518 41.5453 73.5718V51.9873C50.0978 49.9672 60.4542 45.0364 60.4542 36.2812V35.1094C60.4542 33.817 61.5145 32.7656 62.8178 32.7656C64.1187 32.7656 65.1789 33.8154 65.1814 35.1057V35.1094C65.1814 35.6187 65.8224 41.8691 63.252 47.5312H59.2724C58.6198 47.5312 58.0906 48.056 58.0906 48.7031C58.0906 49.3502 58.6198 49.875 59.2724 49.875C60.0976 49.875 73.2888 49.875 74.6359 49.875C75.9392 49.875 76.9995 50.9264 76.9995 52.2188C76.9995 53.5132 75.9413 54.5625 74.6359 54.5625Z" fill="url(#paint2_linear)"/>
<path d="M35.6363 59.25C34.9837 59.25 34.4544 59.7748 34.4544 60.4219V69.7969C34.4544 70.444 34.9837 70.9688 35.6363 70.9688C36.2888 70.9688 36.8181 70.444 36.8181 69.7969V60.4219C36.8181 59.7748 36.2888 59.25 35.6363 59.25Z" fill="url(#paint3_linear)"/>
<path d="M53.3633 32.7656H48.6361C47.9835 32.7656 47.4543 33.2904 47.4543 33.9375C47.4543 34.5846 47.9835 35.1094 48.6361 35.1094H53.3633C54.0159 35.1094 54.5452 34.5846 54.5452 33.9375C54.5452 33.2904 54.0159 32.7656 53.3633 32.7656Z" fill="url(#paint4_linear)"/>
<path d="M76.9995 32.7656H72.2722C71.6197 32.7656 71.0904 33.2904 71.0904 33.9375C71.0904 34.5846 71.6197 35.1094 72.2722 35.1094H76.9995C77.6521 35.1094 78.1813 34.5846 78.1813 33.9375C78.1813 33.2904 77.6521 32.7656 76.9995 32.7656Z" fill="url(#paint5_linear)"/>
<path d="M73.6811 23.1655C73.2194 22.708 72.4714 22.708 72.0096 23.1655L68.6676 26.4795C68.2061 26.9371 68.2061 27.6791 68.6676 28.1368C69.1293 28.5945 69.8773 28.5943 70.339 28.1368L73.6811 24.8229C74.1426 24.3653 74.1426 23.6232 73.6811 23.1655Z" fill="url(#paint6_linear)"/>
<path d="M56.968 26.4795L53.626 23.1655C53.1644 22.708 52.4163 22.708 51.9546 23.1655C51.4931 23.6231 51.4931 24.3652 51.9546 24.8229L55.2966 28.1368C55.7584 28.5945 56.5064 28.5943 56.968 28.1368C57.4295 27.6792 57.4295 26.9372 56.968 26.4795Z" fill="url(#paint7_linear)"/>
</g>
<defs>
<filter id="filter0_d" x="0" y="0" width="104.363" height="110" filterUnits="userSpaceOnUse" color-interpolation-filters="sRGB">
<feFlood flood-opacity="0" result="BackgroundImageFix"/>
<feColorMatrix in="SourceAlpha" type="matrix" values="0 0 0 0 0 0 0 0 0 0 0 0 0 0 0 0 0 0 127 0"/>
<feOffset dy="7"/>
<feGaussianBlur stdDeviation="12.5"/>
<feColorMatrix type="matrix" values="0 0 0 0 0.973799 0 0 0 0 0.813345 0 0 0 0 0.535802 0 0 0 0.59 0"/>
<feBlend mode="normal" in2="BackgroundImageFix" result="effect1_dropShadow"/>
<feBlend mode="normal" in="SourceGraphic" in2="effect1_dropShadow" result="shape"/>
</filter>
<linearGradient id="paint0_linear" x1="24.3066" y1="-12.7827" x2="85.7379" y2="-9.55688" gradientUnits="userSpaceOnUse">
<stop stop-color="#DBB777"/>
<stop offset="1" stop-color="#A98341"/>
</linearGradient>
<linearGradient id="paint1_linear" x1="24.3066" y1="-12.7827" x2="85.7379" y2="-9.55688" gradientUnits="userSpaceOnUse">
<stop stop-color="#DBB777"/>
<stop offset="1" stop-color="#A98341"/>
</linearGradient>
<linearGradient id="paint2_linear" x1="24.3066" y1="-12.7827" x2="85.7379" y2="-9.55688" gradientUnits="userSpaceOnUse">
<stop stop-color="#DBB777"/>
<stop offset="1" stop-color="#A98341"/>
</linearGradient>
<linearGradient id="paint3_linear" x1="24.3066" y1="-12.7827" x2="85.7379" y2="-9.55688" gradientUnits="userSpaceOnUse">
<stop stop-color="#DBB777"/>
<stop offset="1" stop-color="#A98341"/>
</linearGradient>
<linearGradient id="paint4_linear" x1="24.3066" y1="-12.7827" x2="85.7379" y2="-9.55688" gradientUnits="userSpaceOnUse">
<stop stop-color="#DBB777"/>
<stop offset="1" stop-color="#A98341"/>
</linearGradient>
<linearGradient id="paint5_linear" x1="24.3066" y1="-12.7827" x2="85.7379" y2="-9.55688" gradientUnits="userSpaceOnUse">
<stop stop-color="#DBB777"/>
<stop offset="1" stop-color="#A98341"/>
</linearGradient>
<linearGradient id="paint6_linear" x1="24.3066" y1="-12.7827" x2="85.7379" y2="-9.55688" gradientUnits="userSpaceOnUse">
<stop stop-color="#DBB777"/>
<stop offset="1" stop-color="#A98341"/>
</linearGradient>
<linearGradient id="paint7_linear" x1="24.3066" y1="-12.7827" x2="85.7379" y2="-9.55688" gradientUnits="userSpaceOnUse">
<stop stop-color="#DBB777"/>
<stop offset="1" stop-color="#A98341"/>
</linearGradient>
</defs>
</svg>
