<svg width="110" height="87" viewBox="0 0 110 87" fill="none" xmlns="http://www.w3.org/2000/svg">
<g filter="url(#filter0_d)">
<path d="M72.375 43.3695C71.1975 40.9473 66.985 37.585 62.9151 34.3363C60.645 32.5257 58.5 30.8138 57.1326 29.4646C56.79 29.1242 56.2776 29.0156 55.8251 29.176C54.9827 29.477 54.4626 29.7088 54.0527 29.8888C53.4277 30.1651 53.2177 30.2588 52.3751 30.3427C52.0026 30.3797 51.6677 30.577 51.4601 30.8829C49.6926 33.4902 47.8626 33.2682 46.6401 32.8637C46.2501 32.7355 46.1801 32.5701 46.1426 32.4123C45.8801 31.3294 47.1977 28.8084 48.9051 27.1236C52.9676 23.1127 55.0626 22.1087 59.4876 24.0599C64.5075 26.275 69.5376 28.0092 69.5876 28.0264C70.2452 28.2508 70.9526 27.9104 71.1801 27.2666C71.4051 26.6228 71.0625 25.9198 70.41 25.6953C70.36 25.6781 65.43 23.9785 60.51 21.8053C54.7776 19.2768 51.6325 20.9419 47.14 25.3771C45.43 27.0644 43.1075 30.4783 43.7075 32.9821C43.9649 34.0477 44.725 34.8371 45.8549 35.2046C48.6875 36.1272 51.2724 35.244 53.1974 32.7231C53.9924 32.6023 54.425 32.4247 55.0749 32.1361C55.3098 32.0324 55.5849 31.9116 55.9499 31.766C57.38 33.0907 59.3099 34.6323 61.3424 36.253C65.0174 39.1859 69.185 42.5111 70.1225 44.4352C70.585 45.3848 70.0874 46.004 69.7499 46.2877C69.2549 46.707 68.5775 46.8402 68.21 46.5861C67.805 46.3123 67.2775 46.2951 66.86 46.5417C66.44 46.7883 66.205 47.2545 66.2575 47.7331C66.3425 48.5175 65.615 48.9665 65.3 49.1219C64.4999 49.5215 63.665 49.4525 63.3524 49.1663C63.0024 48.8457 62.4999 48.7519 62.0549 48.9147C61.61 49.08 61.2999 49.4845 61.2549 49.9532C61.1799 50.7622 60.5724 51.5393 59.7798 51.8427C59.3973 51.9857 58.8423 52.0721 58.3449 51.6231C58.0349 51.3469 57.6048 51.2407 57.2024 51.3369C56.795 51.4355 56.4674 51.7267 56.3249 52.1139C56.2775 52.2373 56.1699 52.5333 54.9999 52.5333C54.1674 52.5333 52.6698 51.9783 51.9374 51.4997C51.0599 50.9299 45.5574 46.8796 40.805 42.9525C40.1375 42.3975 38.9825 41.2085 37.9625 40.1576C37.0574 39.2252 36.23 38.3792 35.8049 38.0239C35.2724 37.5799 34.4849 37.6465 34.0424 38.1695C33.5975 38.69 33.6624 39.4695 34.19 39.9086C34.5775 40.2318 35.3275 41.0136 36.155 41.8646C37.27 43.0141 38.4224 44.2031 39.1975 44.8445C43.8525 48.6902 49.4475 52.8417 50.5625 53.5644C51.4825 54.1614 53.465 55 55 55C56.2325 55 57.18 54.7212 57.8375 54.1762C58.7174 54.5141 59.7175 54.5166 60.68 54.1466C61.8175 53.7124 62.7524 52.8367 63.2825 51.7761C64.2674 51.9833 65.395 51.8377 66.4199 51.3296C67.4225 50.8314 68.1474 50.0692 68.5074 49.1786C69.5024 49.2304 70.5273 48.8826 71.3748 48.1648C72.81 46.9537 73.205 45.0692 72.375 43.3695Z" fill="url(#paint0_linear)"/>
<path d="M50 22.9327H38.75C38.06 22.9327 37.4999 23.4853 37.4999 24.1661C37.4999 24.8469 38.06 25.3995 38.75 25.3995H50C50.69 25.3995 51.25 24.8469 51.25 24.1661C51.25 23.4853 50.69 22.9327 50 22.9327Z" fill="url(#paint1_linear)"/>
<path d="M76.0375 40.7449C75.65 40.1801 74.875 40.0247 74.3026 40.4095L70.6476 42.8318C70.0751 43.2116 69.9226 43.9788 70.3076 44.5436C70.5501 44.8964 70.9451 45.0888 71.3477 45.0888C71.5852 45.0888 71.8277 45.0222 72.0427 44.8792L75.6977 42.4569C76.27 42.077 76.4225 41.3099 76.0375 40.7449Z" fill="url(#paint2_linear)"/>
<path d="M68.2774 46.6306C67.3825 45.935 63.3799 41.8921 60.9049 39.3464C60.4274 38.853 59.635 38.8358 59.1374 39.3094C58.6373 39.7806 58.6223 40.5625 59.0999 41.0534C59.7424 41.7145 65.4098 47.5434 66.7274 48.5696C66.9548 48.7472 67.2299 48.8336 67.4999 48.8336C67.8674 48.8336 68.2349 48.6708 68.4848 48.3624C68.9125 47.8295 68.82 47.0525 68.2774 46.6306Z" fill="url(#paint3_linear)"/>
<path d="M63.2825 49.1047C61.7849 47.9231 58.0225 43.9788 57.1724 43.0662C56.7024 42.563 55.9149 42.5334 55.4049 42.9922C54.8973 43.4534 54.8624 44.2354 55.3299 44.7362C55.3749 44.783 59.8649 49.5661 61.7199 51.0313C61.9499 51.2114 62.2274 51.3002 62.4999 51.3002C62.8649 51.3002 63.2298 51.1398 63.4773 50.8389C63.9075 50.306 63.82 49.529 63.2825 49.1047Z" fill="url(#paint4_linear)"/>
<path d="M58.3075 51.5888C56.525 50.1063 52.8775 46.2754 52.165 45.5231C51.6925 45.0248 50.9 44.9976 50.3975 45.4639C49.8925 45.9301 49.8674 46.7095 50.3375 47.2079C51.3625 48.2907 54.8525 51.9416 56.695 53.4758C56.93 53.6707 57.215 53.7669 57.5 53.7669C57.855 53.7669 58.21 53.6164 58.4575 53.3278C58.9025 52.8048 58.835 52.0278 58.3075 51.5888Z" fill="url(#paint5_linear)"/>
<path d="M39.61 20.8039C37.4675 18.8009 28.9 18.1521 26.325 18.0017C25.9701 17.9844 25.6425 18.1003 25.3926 18.3347C25.1425 18.5665 25 18.8921 25 19.2325V41.4331C25 42.114 25.56 42.6665 26.25 42.6665H33.75C34.29 42.6665 34.77 42.3237 34.9375 41.8155C35.12 41.2629 39.4275 28.2189 39.995 21.8054C40.0275 21.4304 39.8875 21.0604 39.61 20.8039ZM32.8375 40.1998H27.5V20.5547C31.5175 20.868 35.8525 21.5488 37.4275 22.3036C36.765 27.7058 33.7675 37.3038 32.8375 40.1998Z" fill="url(#paint6_linear)"/>
<path d="M83.75 20.466C73.9349 20.466 68.4899 22.945 68.2625 23.0486C67.9375 23.1991 67.6949 23.4779 67.595 23.8158C67.495 24.1538 67.5449 24.5164 67.7324 24.8173C69.2774 27.2717 74.1149 40.9029 75.0449 44.228C75.1949 44.7633 75.6875 45.1333 76.25 45.1333H83.75C84.44 45.1333 85 44.5807 85 43.8999V21.6993C85 21.016 84.44 20.466 83.75 20.466ZM82.5 42.6666H77.185C76 38.8579 72.5 28.9268 70.5475 24.8223C72.455 24.1834 76.5525 23.0856 82.5 22.9476V42.6666Z" fill="url(#paint7_linear)"/>
</g>
<defs>
<filter id="filter0_d" x="0" y="0" width="110" height="87" filterUnits="userSpaceOnUse" color-interpolation-filters="sRGB">
<feFlood flood-opacity="0" result="BackgroundImageFix"/>
<feColorMatrix in="SourceAlpha" type="matrix" values="0 0 0 0 0 0 0 0 0 0 0 0 0 0 0 0 0 0 127 0"/>
<feOffset dy="7"/>
<feGaussianBlur stdDeviation="12.5"/>
<feColorMatrix type="matrix" values="0 0 0 0 0.973799 0 0 0 0 0.813345 0 0 0 0 0.535802 0 0 0 0.59 0"/>
<feBlend mode="normal" in2="BackgroundImageFix" result="effect1_dropShadow"/>
<feBlend mode="normal" in="SourceGraphic" in2="effect1_dropShadow" result="shape"/>
</filter>
<linearGradient id="paint0_linear" x1="24.2347" y1="-0.98264" x2="91.6275" y2="5.35102" gradientUnits="userSpaceOnUse">
<stop stop-color="#DBB777"/>
<stop offset="1" stop-color="#A98341"/>
</linearGradient>
<linearGradient id="paint1_linear" x1="24.2347" y1="-0.98264" x2="91.6275" y2="5.35102" gradientUnits="userSpaceOnUse">
<stop stop-color="#DBB777"/>
<stop offset="1" stop-color="#A98341"/>
</linearGradient>
<linearGradient id="paint2_linear" x1="24.2347" y1="-0.98264" x2="91.6275" y2="5.35102" gradientUnits="userSpaceOnUse">
<stop stop-color="#DBB777"/>
<stop offset="1" stop-color="#A98341"/>
</linearGradient>
<linearGradient id="paint3_linear" x1="24.2347" y1="-0.98264" x2="91.6275" y2="5.35102" gradientUnits="userSpaceOnUse">
<stop stop-color="#DBB777"/>
<stop offset="1" stop-color="#A98341"/>
</linearGradient>
<linearGradient id="paint4_linear" x1="24.2347" y1="-0.98264" x2="91.6275" y2="5.35102" gradientUnits="userSpaceOnUse">
<stop stop-color="#DBB777"/>
<stop offset="1" stop-color="#A98341"/>
</linearGradient>
<linearGradient id="paint5_linear" x1="24.2347" y1="-0.98264" x2="91.6275" y2="5.35102" gradientUnits="userSpaceOnUse">
<stop stop-color="#DBB777"/>
<stop offset="1" stop-color="#A98341"/>
</linearGradient>
<linearGradient id="paint6_linear" x1="24.2347" y1="-0.98264" x2="91.6275" y2="5.35102" gradientUnits="userSpaceOnUse">
<stop stop-color="#DBB777"/>
<stop offset="1" stop-color="#A98341"/>
</linearGradient>
<linearGradient id="paint7_linear" x1="24.2347" y1="-0.98264" x2="91.6275" y2="5.35102" gradientUnits="userSpaceOnUse">
<stop stop-color="#DBB777"/>
<stop offset="1" stop-color="#A98341"/>
</linearGradient>
</defs>
</svg>
