<svg width="43" height="44" viewBox="0 0 43 44" fill="none" xmlns="http://www.w3.org/2000/svg">
<path d="M41.3167 10.6743L41.3042 10.6245C40.2966 6.55109 35.754 2.1801 31.5823 1.27075L31.5352 1.26106C24.7878 -0.0261485 17.9462 -0.0261485 11.2001 1.26106L11.1516 1.27075C6.98133 2.1801 2.43872 6.55109 1.42971 10.6245L1.41864 10.6743C0.172953 16.363 0.172953 22.1319 1.41864 27.8205L1.42971 27.8703C2.39568 31.7699 6.60001 35.9401 10.616 37.0869V41.634C10.616 43.2797 12.6215 44.088 13.762 42.9004L18.369 38.1116C19.3682 38.1675 20.3679 38.1986 21.3676 38.1986C24.7642 38.1986 28.1622 37.8775 31.5352 37.2339L31.5823 37.2242C35.754 36.3149 40.2966 31.9439 41.3042 27.8705L41.3167 27.8207C42.5623 22.1319 42.5623 16.363 41.3167 10.6743ZM37.6709 26.9956C36.9983 29.6531 33.5491 32.9569 30.8086 33.5673C27.2209 34.2495 23.6048 34.5411 19.9923 34.4411C19.9204 34.4391 19.8514 34.467 19.8013 34.5184C19.2886 35.0447 16.4375 37.9715 16.4375 37.9715L12.8596 41.6435C12.598 41.9162 12.1385 41.7307 12.1385 41.3542V33.8217C12.1385 33.6973 12.0496 33.5915 11.9274 33.5676C11.9267 33.5674 11.926 33.5673 11.9253 33.5672C9.18482 32.9568 5.73703 29.6529 5.06297 26.9955C3.94185 21.8535 3.94185 16.641 5.06297 11.4991C5.73703 8.84163 9.18482 5.53779 11.9253 4.9274C18.1911 3.73569 24.5442 3.73569 30.8086 4.9274C33.5505 5.53779 36.9983 8.84163 37.6709 11.4991C38.7933 16.6412 38.7933 21.8537 37.6709 26.9956Z" fill="white"/>
<path d="M27.3292 30.473C26.9079 30.3451 26.5064 30.2592 26.1335 30.1044C22.2697 28.5014 18.7136 26.4333 15.8969 23.263C14.2951 21.4602 13.0413 19.4249 11.9815 17.271C11.479 16.2495 11.0554 15.188 10.6237 14.1335C10.2301 13.1718 10.8099 12.1783 11.4204 11.4537C11.9933 10.7737 12.7305 10.2533 13.5288 9.86976C14.1519 9.57038 14.7666 9.74298 15.2217 10.2712C16.2055 11.413 17.1092 12.6133 17.841 13.9369C18.2909 14.7511 18.1675 15.7462 17.352 16.3003C17.1538 16.435 16.9731 16.593 16.7885 16.7451C16.6266 16.8784 16.4742 17.0131 16.3632 17.1936C16.1603 17.5238 16.1506 17.9133 16.2812 18.2723C17.2869 21.0361 18.982 23.1852 21.7638 24.3427C22.2089 24.5279 22.656 24.7436 23.1688 24.6838C24.0276 24.5834 24.3057 23.6414 24.9075 23.1492C25.4957 22.6682 26.2474 22.6619 26.8811 23.0628C27.5148 23.464 28.1293 23.8946 28.7399 24.3297C29.3394 24.7568 29.9362 25.1747 30.4891 25.6616C31.0208 26.1299 31.2039 26.7441 30.9045 27.3796C30.3564 28.5433 29.5589 29.5115 28.4084 30.1295C28.0836 30.3038 27.6956 30.3602 27.3292 30.473C26.9079 30.345 27.6956 30.3602 27.3292 30.473Z" fill="white"/>
<path d="M21.3782 8.53897C26.4323 8.68056 30.5833 12.0346 31.4729 17.0312C31.6244 17.8826 31.6784 18.7531 31.7458 19.6172C31.7742 19.9806 31.5684 20.3259 31.1761 20.3307C30.771 20.3355 30.5887 19.9965 30.5624 19.6332C30.5104 18.914 30.4742 18.1917 30.3751 17.4784C29.8519 13.7136 26.8498 10.5988 23.1024 9.9304C22.5385 9.82978 21.9613 9.80334 21.3901 9.74341C21.029 9.70549 20.5561 9.68362 20.4761 9.23475C20.4089 8.85842 20.7266 8.55876 21.0849 8.53952C21.1824 8.53412 21.2804 8.53855 21.3782 8.53897C26.4323 8.68056 21.2804 8.53855 21.3782 8.53897Z" fill="white"/>
<path d="M29.059 18.4954C29.0507 18.5585 29.0463 18.7069 29.0093 18.8467C28.8752 19.3541 28.1059 19.4176 27.9288 18.9055C27.8763 18.7535 27.8684 18.5807 27.8682 18.4171C27.8664 17.3466 27.6337 16.2772 27.0939 15.3459C26.539 14.3886 25.6912 13.5839 24.6969 13.097C24.0957 12.8026 23.4454 12.6196 22.7864 12.5106C22.4984 12.4629 22.2073 12.434 21.9179 12.3937C21.5672 12.345 21.3799 12.1215 21.3965 11.7759C21.412 11.452 21.6487 11.2191 22.0017 11.239C23.1615 11.3049 24.2818 11.5555 25.313 12.1016C27.4099 13.212 28.6077 14.9648 28.9573 17.3053C28.9731 17.4114 28.9985 17.5164 29.0066 17.6229C29.0264 17.8857 29.0388 18.1488 29.059 18.4954C29.0507 18.5585 29.0388 18.1488 29.059 18.4954Z" fill="white"/>
<path d="M25.9154 18.3728C25.4926 18.3804 25.2663 18.1464 25.2227 17.7587C25.1924 17.4884 25.1684 17.2145 25.1039 16.9515C24.9768 16.4336 24.7016 15.9536 24.2658 15.6362C24.0602 15.4863 23.8271 15.3771 23.5829 15.3066C23.2727 15.2171 22.9507 15.2417 22.6412 15.1659C22.3051 15.0835 22.1192 14.8114 22.1721 14.4961C22.2201 14.2092 22.4993 13.9852 22.8128 14.0079C24.7723 14.1494 26.1727 15.1624 26.3726 17.4691C26.3867 17.6319 26.4033 17.804 26.3672 17.9597C26.3053 18.2262 26.1079 18.3598 25.9154 18.3728C25.4926 18.3804 26.1079 18.3598 25.9154 18.3728Z" fill="white"/>
</svg>
