<svg width="22" height="12" viewBox="0 0 22 12" fill="none" xmlns="http://www.w3.org/2000/svg">
<path d="M20.8439 10.7032C20.7874 10.6086 20.4377 9.84878 18.7551 8.28709C16.9936 6.65178 17.2302 6.91732 19.3519 4.0897C20.6441 2.36763 21.1607 1.31598 20.999 0.866405C20.8452 0.437859 19.8948 0.550911 19.8948 0.550911L16.7346 0.569315C16.7346 0.569315 16.5006 0.537766 16.3258 0.641616C16.1562 0.744151 16.0471 0.980772 16.0471 0.980772C16.0471 0.980772 15.5463 2.31373 14.8785 3.44688C13.4706 5.83806 12.9066 5.96426 12.6766 5.81572C12.1416 5.46999 12.2756 4.42491 12.2756 3.6835C12.2756 1.36594 12.6266 0.399737 11.5908 0.149971C11.2463 0.0671538 10.9939 0.0119424 10.1145 0.00274048C8.98661 -0.00909055 8.03093 0.00668415 7.49065 0.27091C7.13046 0.447061 6.85309 0.840114 7.02266 0.862462C7.23168 0.890068 7.70492 0.989974 7.956 1.33176C8.2807 1.77214 8.26886 2.76331 8.26886 2.76331C8.26886 2.76331 8.45553 5.49102 7.83375 5.83018C7.40651 6.06285 6.82154 5.5883 5.56613 3.41796C4.92331 2.30716 4.43693 1.07805 4.43693 1.07805C4.43693 1.07805 4.34359 0.849316 4.17664 0.727062C3.9742 0.578517 3.69026 0.531193 3.69026 0.531193L0.685178 0.549597C0.685178 0.549597 0.234285 0.562743 0.0686505 0.758612C-0.07858 0.933448 0.0568195 1.29364 0.0568195 1.29364C0.0568195 1.29364 2.40988 6.79769 5.07317 9.57272C7.51694 12.1164 10.2907 11.9494 10.2907 11.9494H11.5474C11.5474 11.9494 11.9273 11.9074 12.1205 11.6984C12.2993 11.5064 12.2927 11.1463 12.2927 11.1463C12.2927 11.1463 12.2678 9.45967 13.0512 9.21122C13.8229 8.96671 14.8141 10.8413 15.8644 11.563C16.6584 12.1085 17.2618 11.9889 17.2618 11.9889L20.071 11.9494C20.071 11.9494 21.5406 11.8587 20.8439 10.7032Z" fill="white"/>
</svg>
