<svg width="126" height="123" viewBox="0 0 126 123" fill="none" xmlns="http://www.w3.org/2000/svg">
<g filter="url(#filter0_d)">
<path d="M39.4798 81.1575C39.4605 81.1382 39.422 81.1189 39.4027 81.0996C38.6316 80.4632 37.8606 79.7689 37.1473 79.0553C36.704 78.6118 35.9714 78.6118 35.5281 79.0553C35.0847 79.4989 35.0847 80.2318 35.5281 80.6946C36.2991 81.4661 37.0702 82.1796 37.9377 82.8739C38.4196 83.2982 39.1521 83.2596 39.5762 82.7968C40.0003 82.3146 39.9617 81.5818 39.4798 81.1575Z" fill="url(#paint0_linear)"/>
<path d="M27.3744 46.8479C26.7768 46.6358 26.1214 46.9636 25.9093 47.5615C25.8708 47.6579 25.8515 47.7351 25.8515 47.8315C25.6202 48.8922 25.4467 49.9529 25.3118 51.0329C25.2347 51.6694 25.6587 52.2287 26.2949 52.3251H26.4491C27.0274 52.3251 27.5286 51.8815 27.6057 51.3029C27.7213 50.3001 27.8948 49.2972 28.1069 48.3136C28.2996 47.7158 27.9912 47.0601 27.3744 46.8479Z" fill="url(#paint1_linear)"/>
<path d="M33.7357 75.0243C33.1381 74.2143 32.5791 73.3657 32.0586 72.4978C31.7309 71.9578 31.0177 71.765 30.4779 72.0928C29.9382 72.4207 29.7454 73.1343 30.0731 73.6743C30.6321 74.6 31.2297 75.5064 31.8658 76.3743C32.2514 76.8757 32.9839 76.9721 33.4851 76.5671C33.967 76.2007 34.0827 75.5257 33.7357 75.0243Z" fill="url(#paint2_linear)"/>
<path d="M29.7068 67.7153C29.3405 66.7896 28.9935 65.8253 28.7044 64.8417C28.5309 64.2245 27.8755 63.8774 27.2779 64.051C27.2586 64.051 27.2586 64.051 27.2394 64.0703C26.6418 64.2631 26.2948 64.8996 26.4683 65.4974C26.7767 66.5388 27.1237 67.561 27.5285 68.5831C27.7598 69.181 28.4538 69.4703 29.0514 69.2389C29.6489 69.0074 29.9381 68.3131 29.7068 67.7153Z" fill="url(#paint3_linear)"/>
<path d="M30.4004 38.9019C29.8221 38.6126 29.1282 38.844 28.839 39.4226C28.3571 40.3869 27.9137 41.3898 27.5089 42.3926C27.2776 42.9905 27.5668 43.6462 28.1643 43.8969C28.7619 44.1283 29.4366 43.839 29.6679 43.2412C30.0342 42.2962 30.439 41.3705 30.9016 40.464C31.1908 39.8855 30.9594 39.1912 30.4004 38.9019Z" fill="url(#paint4_linear)"/>
<path d="M27.6249 59.6729C27.5092 58.67 27.4128 57.6478 27.3743 56.645C27.355 56.0086 26.8153 55.5071 26.1791 55.5264C25.543 55.5457 25.0418 56.0857 25.0611 56.7221C25.0611 57.8021 25.1767 58.8821 25.331 59.9621C25.4081 60.5214 25.89 60.9457 26.449 60.965H26.6225C27.2586 60.8879 27.702 60.3093 27.6249 59.6729Z" fill="url(#paint5_linear)"/>
<path d="M58.3135 21.0629C58.2557 20.4265 57.6774 19.9636 57.0413 20.0215C55.9618 20.1372 54.8823 20.2915 53.8221 20.4843C53.1859 20.5422 52.7233 21.1015 52.7811 21.7572C52.839 22.3936 53.398 22.8565 54.0534 22.7986V22.7601H54.2847C55.2871 22.5672 56.2895 22.4129 57.2919 22.3165C57.9087 22.2779 58.3713 21.6993 58.3135 21.0629Z" fill="url(#paint6_linear)"/>
<path d="M35.4127 31.9015C34.9308 31.4772 34.1983 31.5158 33.7742 31.9979C33.061 32.8079 32.3863 33.6565 31.7501 34.5436C31.3839 35.0644 31.4996 35.7779 32.0007 36.1636C32.1935 36.2987 32.4248 36.3758 32.6754 36.3758V36.3951C33.0417 36.3951 33.3887 36.2215 33.62 35.9129C34.2176 35.1029 34.8537 34.2929 35.5091 33.5408C35.9525 33.0779 35.8946 32.3451 35.4127 31.9015Z" fill="url(#paint7_linear)"/>
<path d="M65.928 20.2141C64.8677 20.0598 63.769 19.9441 62.6895 19.8669C62.0533 19.8283 61.4943 20.3105 61.4558 20.9469C61.4172 21.5833 61.8991 22.1426 62.5353 22.1812C63.5569 22.2583 64.5593 22.3741 65.5617 22.5283H65.7352C66.3713 22.5669 66.9303 22.1041 66.9689 21.4483C67.046 20.8119 66.5641 20.2719 65.928 20.2141Z" fill="url(#paint8_linear)"/>
<path d="M41.986 26.405C41.6198 25.9229 40.9451 25.7879 40.4246 26.1157C39.5379 26.7329 38.6704 27.3886 37.8415 28.0829C37.3404 28.4879 37.2825 29.2207 37.6873 29.7222C38.0921 30.2236 38.8247 30.2815 39.3258 29.8765C40.0969 29.2207 40.9065 28.6036 41.7547 28.0443C42.2559 27.6393 42.3716 26.9064 41.986 26.405Z" fill="url(#paint9_linear)"/>
<path d="M49.9474 22.7599C49.7739 22.1427 49.1377 21.7763 48.5209 21.9499C48.463 21.9692 48.4052 21.9884 48.3667 22.0077C47.3643 22.3742 46.3426 22.7792 45.3788 23.2613C44.8005 23.5313 44.5499 24.2256 44.8198 24.8042C45.0125 25.2092 45.4173 25.4792 45.8607 25.4792C46.0342 25.4792 46.1884 25.4406 46.3426 25.3635C47.2486 24.9392 48.1932 24.5342 49.1377 24.187C49.7546 24.0134 50.1208 23.3577 49.9474 22.7599Z" fill="url(#paint10_linear)"/>
<path d="M63.9226 89.6818C63.8841 89.0453 63.325 88.5632 62.6889 88.6018C61.6865 88.6789 60.6649 88.6982 59.6432 88.6789C59.0071 88.6596 58.4673 89.1611 58.448 89.7975C58.4288 90.4339 58.93 90.9739 59.5661 90.9932H60.5492C61.3203 90.9932 62.0913 90.9932 62.8238 90.9161C63.4793 90.8775 63.9612 90.3182 63.9226 89.6818Z" fill="url(#paint11_linear)"/>
<path d="M94.2064 62.8741C93.5895 62.7198 92.9534 63.0862 92.7992 63.7034C92.5486 64.687 92.2595 65.6512 91.9125 66.5963C91.7197 67.1941 92.0281 67.8305 92.6064 68.062C93.204 68.2741 93.8787 67.9655 94.0907 67.3677C94.457 66.3455 94.7654 65.3041 95.0353 64.282C95.1895 63.6648 94.8232 63.0284 94.2064 62.8741Z" fill="url(#paint12_linear)"/>
<path d="M95.6718 49.6251C95.4983 48.5643 95.267 47.4843 94.9971 46.4429C94.8043 45.8258 94.1682 45.4786 93.5513 45.6715C92.973 45.845 92.6261 46.4429 92.761 47.0215C93.0116 47.9858 93.2236 48.9886 93.3971 49.9915C93.4935 50.5315 93.9754 50.9365 94.5152 50.9365H94.7079C95.3441 50.8594 95.7874 50.2615 95.6718 49.6251Z" fill="url(#paint13_linear)"/>
<path d="M100.587 36.3564C100.529 36.2407 100.452 36.1249 100.375 36.0285L98.3317 33.9071C98.0426 33.6178 97.6185 33.5021 97.2137 33.6371L93.5319 34.7557L89.2139 30.1656L98.91 24.7656C99.4691 24.5149 99.7197 23.8399 99.4691 23.2806C99.4112 23.1649 99.3341 23.0492 99.257 22.9528L96.539 20.2335C96.2499 19.9442 95.8065 19.8477 95.421 19.9635L83.1417 23.6856L78.978 19.2885C77.9178 18.0734 76.2022 17.6684 74.7179 18.2856H74.6408C73.5227 18.7485 72.636 19.6356 72.1733 20.7542C72.0577 21.0435 71.9806 21.352 71.9227 21.6606L71.4601 21.5063C70.8433 21.3135 70.2071 21.6413 69.9951 22.2585C69.8023 22.8756 70.13 23.512 70.7469 23.7242C71.3444 23.917 71.942 24.1292 72.5203 24.3606C72.6938 24.6499 72.9058 24.9006 73.1372 25.132L77.4937 29.2592L76.2407 33.3864C64.0386 24.6499 47.0752 27.5042 38.3621 39.7121C29.6491 51.92 32.4827 68.9108 44.7041 77.628C56.9255 86.3451 73.889 83.5101 82.602 71.2829C89.5609 61.5436 89.3103 48.3907 82.0044 38.9021L83.9706 35.3535L88.5585 39.6735L87.4597 43.3185C87.3248 43.7235 87.4404 44.1671 87.7296 44.4564C87.7296 44.4564 89.985 46.6936 90.0428 46.7707C90.5825 47.0793 91.2572 46.9057 91.5656 46.3657C91.5656 46.3657 91.5656 46.3464 91.5849 46.3464L94.5921 40.8114L100.028 37.8414C100.606 37.5907 100.857 36.9157 100.587 36.3564ZM43.0271 37.88C47.6727 33.2321 53.9762 30.6092 60.5495 30.6285C61.07 30.6285 61.5712 30.6478 62.0917 30.6671C66.4675 34.6978 65.1759 38.3814 62.2459 41.6985C60.511 43.5307 58.6604 45.2471 56.6942 46.8286C53.8413 49.2586 51.2004 51.515 50.198 53.7714C49.0028 56.4522 49.8895 58.8822 54.6702 61.0036C57.0605 62.0643 58.3713 62.8936 58.8725 63.5108L58.8917 63.53C58.8725 63.53 58.8532 63.5493 58.8339 63.5493C57.6773 63.9929 56.4436 64.2051 55.1906 64.1665C49.3691 64.4172 45.2439 60.695 42.0247 57.8215C39.7115 55.7579 37.7838 54.0414 35.7983 54.0414C36.1453 47.9471 38.7091 42.2 43.0271 37.88ZM85.4164 55.4493C85.4164 66.1915 78.5154 75.738 68.2987 79.0744C68.0096 77.2615 68.3373 75.4101 69.2433 73.8287C70.4577 71.8615 72.0384 70.1451 73.8697 68.7372C80.9828 62.7972 81.3876 59.48 81.696 56.9343C81.8888 55.3143 82.043 54.1186 85.2236 52.3636C85.3586 53.3857 85.4164 54.4079 85.4164 55.4493ZM83.9899 47.0986C84.3369 48.0628 84.626 49.0657 84.8381 50.0686C79.9804 52.5372 79.7683 54.2922 79.4792 56.7029C79.2093 58.8629 78.8816 61.6786 72.4432 67.0593C70.3806 68.6408 68.6264 70.5694 67.2771 72.7872C66.1012 74.8701 65.6771 77.3194 66.1205 79.6722C52.7425 82.7387 39.4223 74.3687 36.3574 60.9843C36.0104 59.4607 35.7983 57.8986 35.7405 56.3172C36.9742 56.3172 38.5549 57.7829 40.5018 59.5186C44.0295 62.6815 48.5595 66.6929 55.287 66.4615C56.8677 66.4808 58.4484 66.1915 59.9134 65.5743C60.5303 65.3043 60.9929 64.7643 61.1857 64.1279C61.3591 63.4143 61.1471 62.6429 60.6266 62.1222C59.8941 61.235 58.3134 60.1936 55.5762 58.9593C52.3184 57.5129 51.6052 56.105 52.2413 54.6779C53.0124 52.865 55.4991 50.8207 58.1399 48.5064C60.2025 46.8478 62.1302 45.035 63.9229 43.1064C67.1421 39.4421 68.7999 35.4307 65.5229 31.0528C69.1662 31.8049 72.5974 33.3478 75.5467 35.6042L73.7733 41.4671C73.6384 41.8721 73.754 42.3157 74.0432 42.605C74.0432 42.605 76.9154 45.4593 77.0118 45.5171C77.5515 45.8257 78.2262 45.6521 78.5346 45.1121C78.5346 45.1121 78.5346 45.0928 78.5539 45.0928L80.79 41.0428C82.1586 42.8943 83.2189 44.9385 83.9899 47.0986ZM94.3222 38.4778L93.3198 38.9792C93.0885 39.095 92.915 39.2685 92.8186 39.5L92.3174 40.5028L90.3898 43.9743L89.8307 43.3571L90.9488 39.6542C91.0837 39.23 90.9295 38.7478 90.5825 38.4585L84.4911 32.7306C84.0477 32.3064 83.3345 32.3064 82.9104 32.7499C82.8912 32.7692 82.8912 32.7692 82.8719 32.7885C82.7948 32.8656 77.3202 42.74 77.3202 42.74L76.125 41.5443L79.8647 29.2399C79.9996 28.7963 79.8647 28.3335 79.4985 28.0442L74.66 23.4928C74.1203 23.0299 73.9468 22.297 74.2167 21.6413C74.4673 21.082 74.9106 20.6385 75.4696 20.3877H75.5082C76.1443 20.137 76.8768 20.3299 77.3202 20.8506L81.9466 25.7492C82.2357 26.0578 82.6791 26.1735 83.0839 26.0578L95.421 22.3356L96.6161 23.5313L86.8236 28.9121C86.2838 29.2013 86.0911 29.8956 86.3802 30.4356C86.3802 30.4356 86.3802 30.4549 86.3995 30.4549C86.4381 30.5321 92.3367 36.8192 92.3367 36.8192C92.6259 37.1278 93.0692 37.2435 93.474 37.1278L97.1751 36.0092L97.7534 36.5878L94.3222 38.4778Z" fill="url(#paint14_linear)"/>
<path d="M91.3535 71.0131C91.3342 70.9938 91.315 70.9938 91.2957 70.9938C90.7367 70.7045 90.062 70.8974 89.7536 71.4567C89.2716 72.3438 88.7319 73.2117 88.1729 74.041C87.8066 74.5617 87.9223 75.2946 88.462 75.661C88.9825 76.0274 89.715 75.9117 90.0813 75.3717C90.6788 74.4846 91.2571 73.5396 91.7776 72.5946C92.086 72.0546 91.8933 71.341 91.3535 71.0131Z" fill="url(#paint15_linear)"/>
<path d="M94.9967 54.1187C94.3606 54.1187 93.8401 54.6201 93.8209 55.2565C93.8209 55.2758 93.8209 55.2951 93.8209 55.2951V55.4301C93.8209 56.433 93.7823 57.4551 93.6859 58.4772C93.6281 59.1137 94.0907 59.673 94.7269 59.7308H94.8425C95.4594 59.7308 95.9606 59.268 95.9991 58.6508C96.0955 57.5708 96.1533 56.4908 96.1533 55.4108V55.2565C96.1533 54.6394 95.6329 54.1187 94.9967 54.1187Z" fill="url(#paint16_linear)"/>
<path d="M54.3996 88.1001C53.3972 87.9266 52.3948 87.7144 51.431 87.4251C50.8334 87.213 50.1588 87.5216 49.9467 88.1387C49.7347 88.7559 50.0431 89.4116 50.6599 89.6237C50.6985 89.643 50.7563 89.643 50.7949 89.6623C51.8358 89.9516 52.896 90.2023 53.9562 90.4337H54.1683C54.8044 90.4916 55.3827 90.0287 55.4406 89.3923C55.4984 88.7173 55.0357 88.158 54.3996 88.1001Z" fill="url(#paint17_linear)"/>
<path d="M72.2886 87.7338C72.0766 87.1745 71.4597 86.8466 70.8814 87.0202V87.0588C69.9176 87.3673 68.9345 87.6373 67.9514 87.8302C67.3345 87.9652 66.9297 88.5823 67.0839 89.2188C67.2381 89.8552 67.8357 90.2409 68.4718 90.0866C69.5128 89.8552 70.573 89.5466 71.5946 89.2188C72.2115 89.0066 72.5006 88.3509 72.2886 87.7338Z" fill="url(#paint18_linear)"/>
<path d="M46.4578 85.5739C45.5325 85.1111 44.6457 84.6289 43.759 84.1275C43.2 83.7997 42.506 83.9925 42.1783 84.5325C41.8506 85.0918 42.0434 85.7861 42.5831 86.1139C43.5084 86.6539 44.4723 87.1747 45.4554 87.6568C46.0337 87.9268 46.7276 87.6761 46.9975 87.0975C47.2674 86.5189 47.0361 85.8439 46.4578 85.5739Z" fill="url(#paint19_linear)"/>
<path d="M86.4382 78.1296C85.9755 77.7053 85.2623 77.7246 84.8189 78.1874C84.125 78.9589 83.3925 79.6339 82.6407 80.3089C82.1588 80.7332 82.1202 81.466 82.5443 81.9482C82.9684 82.4303 83.7009 82.4689 84.1828 82.0446C84.9539 81.331 85.7635 80.5596 86.496 79.7689C86.9394 79.2867 86.9008 78.5539 86.4382 78.1296Z" fill="url(#paint20_linear)"/>
<path d="M80.0573 83.8958C79.7296 83.3558 79.0164 83.1629 78.4766 83.4908C78.4574 83.5101 78.4381 83.5101 78.4188 83.5294V83.4908C77.5706 84.0308 76.6839 84.5322 75.7972 85.0337C75.2382 85.3229 75.0068 86.0172 75.296 86.5958C75.5851 87.1551 76.2791 87.3865 76.8574 87.0972C77.8212 86.5958 78.7658 86.0558 79.6718 85.4772C80.1923 85.1494 80.385 84.4551 80.0573 83.8958Z" fill="url(#paint21_linear)"/>
</g>
<defs>
<filter id="filter0_d" x="0.0605469" y="0" width="125.635" height="122.993" filterUnits="userSpaceOnUse" color-interpolation-filters="sRGB">
<feFlood flood-opacity="0" result="BackgroundImageFix"/>
<feColorMatrix in="SourceAlpha" type="matrix" values="0 0 0 0 0 0 0 0 0 0 0 0 0 0 0 0 0 0 127 0"/>
<feOffset dy="7"/>
<feGaussianBlur stdDeviation="12.5"/>
<feColorMatrix type="matrix" values="0 0 0 0 0.973799 0 0 0 0 0.813345 0 0 0 0 0.535802 0 0 0 0.59 0"/>
<feBlend mode="normal" in2="BackgroundImageFix" result="effect1_dropShadow"/>
<feBlend mode="normal" in="SourceGraphic" in2="effect1_dropShadow" result="shape"/>
</filter>
<linearGradient id="paint0_linear" x1="35.1359" y1="76.4413" x2="40.4127" y2="76.7627" gradientUnits="userSpaceOnUse">
<stop stop-color="#DBB777"/>
<stop offset="1" stop-color="#A98341"/>
</linearGradient>
<linearGradient id="paint1_linear" x1="25.2662" y1="43.94" x2="28.5055" y2="44.0369" gradientUnits="userSpaceOnUse">
<stop stop-color="#DBB777"/>
<stop offset="1" stop-color="#A98341"/>
</linearGradient>
<linearGradient id="paint2_linear" x1="29.8612" y1="69.4248" x2="34.4103" y2="69.6419" gradientUnits="userSpaceOnUse">
<stop stop-color="#DBB777"/>
<stop offset="1" stop-color="#A98341"/>
</linearGradient>
<linearGradient id="paint3_linear" x1="26.3807" y1="61.281" x2="30.1861" y2="61.4206" gradientUnits="userSpaceOnUse">
<stop stop-color="#DBB777"/>
<stop offset="1" stop-color="#A98341"/>
</linearGradient>
<linearGradient id="paint4_linear" x1="27.3834" y1="36.1099" x2="31.4531" y2="36.2731" gradientUnits="userSpaceOnUse">
<stop stop-color="#DBB777"/>
<stop offset="1" stop-color="#A98341"/>
</linearGradient>
<linearGradient id="paint5_linear" x1="25.0277" y1="52.7354" x2="27.9411" y2="52.8152" gradientUnits="userSpaceOnUse">
<stop stop-color="#DBB777"/>
<stop offset="1" stop-color="#A98341"/>
</linearGradient>
<linearGradient id="paint6_linear" x1="52.7056" y1="18.5868" x2="58.9032" y2="19.3011" gradientUnits="userSpaceOnUse">
<stop stop-color="#DBB777"/>
<stop offset="1" stop-color="#A98341"/>
</linearGradient>
<linearGradient id="paint7_linear" x1="31.4812" y1="29.1519" x2="36.3119" y2="29.4019" gradientUnits="userSpaceOnUse">
<stop stop-color="#DBB777"/>
<stop offset="1" stop-color="#A98341"/>
</linearGradient>
<linearGradient id="paint8_linear" x1="61.3832" y1="18.4971" x2="67.553" y2="19.2379" gradientUnits="userSpaceOnUse">
<stop stop-color="#DBB777"/>
<stop offset="1" stop-color="#A98341"/>
</linearGradient>
<linearGradient id="paint9_linear" x1="37.3589" y1="23.7772" x2="42.7692" y2="24.1346" gradientUnits="userSpaceOnUse">
<stop stop-color="#DBB777"/>
<stop offset="1" stop-color="#A98341"/>
</linearGradient>
<linearGradient id="paint10_linear" x1="44.6438" y1="20.0739" x2="50.5824" y2="20.5825" gradientUnits="userSpaceOnUse">
<stop stop-color="#DBB777"/>
<stop offset="1" stop-color="#A98341"/>
</linearGradient>
<linearGradient id="paint11_linear" x1="58.3776" y1="87.3716" x2="64.4769" y2="88.1804" gradientUnits="userSpaceOnUse">
<stop stop-color="#DBB777"/>
<stop offset="1" stop-color="#A98341"/>
</linearGradient>
<linearGradient id="paint12_linear" x1="91.8141" y1="60.1248" x2="95.453" y2="60.253" gradientUnits="userSpaceOnUse">
<stop stop-color="#DBB777"/>
<stop offset="1" stop-color="#A98341"/>
</linearGradient>
<linearGradient id="paint13_linear" x1="92.6942" y1="42.8896" x2="96.0428" y2="42.9976" gradientUnits="userSpaceOnUse">
<stop stop-color="#DBB777"/>
<stop offset="1" stop-color="#A98341"/>
</linearGradient>
<linearGradient id="paint14_linear" x1="32.4489" y1="-15.1858" x2="108.53" y2="-10.5922" gradientUnits="userSpaceOnUse">
<stop stop-color="#DBB777"/>
<stop offset="1" stop-color="#A98341"/>
</linearGradient>
<linearGradient id="paint15_linear" x1="87.9103" y1="68.2886" x2="92.3926" y2="68.494" gradientUnits="userSpaceOnUse">
<stop stop-color="#DBB777"/>
<stop offset="1" stop-color="#A98341"/>
</linearGradient>
<linearGradient id="paint16_linear" x1="93.6495" y1="51.2394" x2="96.4491" y2="51.3108" gradientUnits="userSpaceOnUse">
<stop stop-color="#DBB777"/>
<stop offset="1" stop-color="#A98341"/>
</linearGradient>
<linearGradient id="paint17_linear" x1="49.809" y1="85.7781" x2="56.047" y2="86.4313" gradientUnits="userSpaceOnUse">
<stop stop-color="#DBB777"/>
<stop offset="1" stop-color="#A98341"/>
</linearGradient>
<linearGradient id="paint18_linear" x1="66.9833" y1="85.3591" x2="72.9395" y2="85.9412" gradientUnits="userSpaceOnUse">
<stop stop-color="#DBB777"/>
<stop offset="1" stop-color="#A98341"/>
</linearGradient>
<linearGradient id="paint19_linear" x1="41.9528" y1="82.0179" x2="47.6881" y2="82.4635" gradientUnits="userSpaceOnUse">
<stop stop-color="#DBB777"/>
<stop offset="1" stop-color="#A98341"/>
</linearGradient>
<linearGradient id="paint20_linear" x1="82.1927" y1="75.5098" x2="87.3387" y2="75.811" gradientUnits="userSpaceOnUse">
<stop stop-color="#DBB777"/>
<stop offset="1" stop-color="#A98341"/>
</linearGradient>
<linearGradient id="paint21_linear" x1="75.1066" y1="81.3332" x2="80.7942" y2="81.7607" gradientUnits="userSpaceOnUse">
<stop stop-color="#DBB777"/>
<stop offset="1" stop-color="#A98341"/>
</linearGradient>
</defs>
</svg>
