<svg width="87" height="90" viewBox="0 0 87 90" fill="none" xmlns="http://www.w3.org/2000/svg">
<g filter="url(#filter0_d)">
<path d="M27.8326 52.308C27.8221 52.2975 27.8011 52.287 27.7907 52.2766C27.3718 51.9308 26.953 51.5537 26.5655 51.1661C26.3247 50.9251 25.9268 50.9251 25.6859 51.1661C25.4451 51.407 25.4451 51.8051 25.6859 52.0565C26.1048 52.4756 26.5236 52.8632 26.9949 53.2404C27.2566 53.4708 27.6545 53.4499 27.8849 53.1985C28.1153 52.9366 28.0943 52.5385 27.8326 52.308Z" fill="url(#paint0_linear)"/>
<path d="M21.2569 33.6704C20.9323 33.5552 20.5762 33.7333 20.461 34.058C20.4401 34.1104 20.4296 34.1523 20.4296 34.2047C20.304 34.7809 20.2097 35.3571 20.1364 35.9438C20.0946 36.2895 20.3249 36.5933 20.6705 36.6457H20.7542C21.0684 36.6457 21.3406 36.4047 21.3825 36.0904C21.4453 35.5457 21.5396 35.0009 21.6548 34.4666C21.7595 34.1418 21.5919 33.7856 21.2569 33.6704Z" fill="url(#paint1_linear)"/>
<path d="M24.7122 48.9766C24.3876 48.5366 24.084 48.0756 23.8012 47.6042C23.6232 47.3108 23.2358 47.2061 22.9426 47.3842C22.6494 47.5623 22.5447 47.9499 22.7227 48.2432C23.0264 48.7461 23.351 49.2385 23.6965 49.7099C23.906 49.9823 24.3039 50.0347 24.5761 49.8147C24.8379 49.6156 24.9007 49.2489 24.7122 48.9766Z" fill="url(#paint2_linear)"/>
<path d="M22.524 45.0059C22.325 44.5031 22.1366 43.9793 21.9795 43.445C21.8853 43.1097 21.5292 42.9212 21.2046 43.0155C21.1941 43.0155 21.1941 43.0155 21.1837 43.0259C20.8591 43.1307 20.6706 43.4764 20.7648 43.8012C20.9324 44.3669 21.1209 44.9221 21.3407 45.4774C21.4664 45.8021 21.8434 45.9593 22.168 45.8336C22.4926 45.7079 22.6497 45.3307 22.524 45.0059Z" fill="url(#paint3_linear)"/>
<path d="M22.9009 29.3543C22.5867 29.1971 22.2098 29.3228 22.0527 29.6371C21.7909 30.1609 21.5501 30.7057 21.3302 31.2505C21.2045 31.5752 21.3616 31.9314 21.6862 32.0676C22.0108 32.1933 22.3773 32.0362 22.503 31.7114C22.7019 31.1981 22.9218 30.6952 23.1731 30.2029C23.3302 29.8886 23.2045 29.5114 22.9009 29.3543Z" fill="url(#paint4_linear)"/>
<path d="M21.393 40.6374C21.3301 40.0927 21.2778 39.5374 21.2568 38.9927C21.2464 38.647 20.9532 38.3746 20.6076 38.3851C20.2621 38.3955 19.9898 38.6889 20.0003 39.0346C20.0003 39.6213 20.0631 40.2079 20.1469 40.7946C20.1888 41.0984 20.4506 41.3289 20.7542 41.3394H20.8485C21.194 41.2975 21.4349 40.9832 21.393 40.6374Z" fill="url(#paint5_linear)"/>
<path d="M38.0634 19.6636C38.032 19.3179 37.7179 19.0664 37.3723 19.0979C36.786 19.1607 36.1996 19.2445 35.6236 19.3493C35.2781 19.3807 35.0268 19.6845 35.0582 20.0407C35.0896 20.3864 35.3933 20.6379 35.7493 20.6064V20.5855H35.875C36.4195 20.4807 36.964 20.3969 37.5085 20.3445C37.8436 20.3236 38.0949 20.0093 38.0634 19.6636Z" fill="url(#paint6_linear)"/>
<path d="M25.6236 25.5516C25.3619 25.3211 24.9639 25.342 24.7336 25.6039C24.3461 26.044 23.9796 26.5049 23.6341 26.9868C23.4351 27.2697 23.498 27.6573 23.7702 27.8668C23.8749 27.9402 24.0006 27.9821 24.1367 27.9821V27.9925C24.3357 27.9925 24.5242 27.8982 24.6498 27.7306C24.9744 27.2906 25.32 26.8506 25.676 26.442C25.9168 26.1906 25.8854 25.7925 25.6236 25.5516Z" fill="url(#paint7_linear)"/>
<path d="M42.1994 19.2029C41.6235 19.1191 41.0266 19.0563 40.4402 19.0144C40.0946 18.9934 39.791 19.2553 39.77 19.601C39.7491 19.9467 40.0109 20.2506 40.3564 20.2715C40.9114 20.3134 41.4559 20.3763 42.0004 20.4601H42.0947C42.4402 20.481 42.7439 20.2296 42.7648 19.8734C42.8067 19.5277 42.5449 19.2344 42.1994 19.2029Z" fill="url(#paint8_linear)"/>
<path d="M29.194 22.5658C28.9951 22.3039 28.6286 22.2305 28.3459 22.4086C27.8642 22.7439 27.393 23.1001 26.9427 23.4772C26.6705 23.6972 26.639 24.0953 26.8589 24.3677C27.0788 24.6401 27.4767 24.6715 27.749 24.4515C28.1679 24.0953 28.6076 23.7601 29.0684 23.4563C29.3406 23.2363 29.4035 22.8382 29.194 22.5658Z" fill="url(#paint9_linear)"/>
<path d="M33.5187 20.5855C33.4244 20.2503 33.0789 20.0512 32.7438 20.1455C32.7124 20.156 32.681 20.1665 32.66 20.1769C32.1155 20.376 31.5605 20.596 31.037 20.8579C30.7228 21.0046 30.5867 21.3817 30.7333 21.696C30.838 21.916 31.0579 22.0627 31.2987 22.0627C31.393 22.0627 31.4768 22.0417 31.5605 21.9998C32.0527 21.7693 32.5658 21.5493 33.0789 21.3607C33.4139 21.2665 33.6129 20.9103 33.5187 20.5855Z" fill="url(#paint10_linear)"/>
<path d="M41.1102 56.9384C41.0892 56.5927 40.7856 56.3308 40.44 56.3518C39.8955 56.3937 39.3405 56.4041 38.7856 56.3937C38.44 56.3832 38.1468 56.6556 38.1363 57.0013C38.1259 57.347 38.3981 57.6403 38.7437 57.6508H39.2777C39.6966 57.6508 40.1154 57.6508 40.5133 57.6089C40.8693 57.588 41.1311 57.2842 41.1102 56.9384Z" fill="url(#paint11_linear)"/>
<path d="M57.561 42.3761C57.2259 42.2923 56.8804 42.4913 56.7966 42.8265C56.6605 43.3608 56.5034 43.8846 56.3149 44.398C56.2102 44.7228 56.3777 45.0685 56.6919 45.1942C57.0165 45.3094 57.383 45.1418 57.4982 44.817C57.6971 44.2618 57.8647 43.6961 58.0113 43.1408C58.095 42.8056 57.8961 42.4599 57.561 42.3761Z" fill="url(#paint12_linear)"/>
<path d="M58.3571 35.179C58.2628 34.6028 58.1372 34.0162 57.9906 33.4504C57.8859 33.1152 57.5403 32.9266 57.2052 33.0314C56.8911 33.1257 56.7026 33.4504 56.7759 33.7647C56.912 34.2886 57.0272 34.8333 57.1215 35.3781C57.1738 35.6714 57.4356 35.8914 57.7288 35.8914H57.8335C58.1791 35.8495 58.4199 35.5247 58.3571 35.179Z" fill="url(#paint13_linear)"/>
<path d="M61.0269 27.9714C60.9955 27.9085 60.9536 27.8457 60.9117 27.7933L59.8018 26.6409C59.6447 26.4838 59.4143 26.4209 59.1944 26.4942L57.1944 27.1019L54.8489 24.6085L60.1159 21.6752C60.4196 21.539 60.5557 21.1723 60.4196 20.8685C60.3882 20.8056 60.3463 20.7428 60.3044 20.6904L58.8279 19.2132C58.6709 19.0561 58.43 19.0037 58.2206 19.0666L51.5504 21.0885L49.2886 18.6999C48.7127 18.0399 47.7807 17.8199 46.9745 18.1551H46.9326C46.3252 18.4066 45.8436 18.8885 45.5922 19.4961C45.5294 19.6532 45.4875 19.8209 45.4561 19.9885L45.2048 19.9047C44.8697 19.7999 44.5242 19.978 44.409 20.3132C44.3043 20.6485 44.4823 20.9942 44.8174 21.1094C45.142 21.2142 45.4666 21.3294 45.7807 21.4552C45.875 21.6123 45.9902 21.7485 46.1158 21.8742L48.4823 24.1161L47.8017 26.358C41.1734 21.6123 31.9586 23.1628 27.2256 29.7943C22.4926 36.4257 24.0319 45.6553 30.6707 50.3906C37.3095 55.1258 46.5242 53.5858 51.2572 46.9439C55.0373 41.6534 54.9012 34.5086 50.9326 29.3543L52.0007 27.4266L54.4928 29.7733L53.896 31.7533C53.8227 31.9733 53.8855 32.2143 54.0426 32.3714C54.0426 32.3714 55.2677 33.5867 55.2991 33.6286C55.5923 33.7962 55.9588 33.7019 56.1264 33.4086C56.1264 33.4086 56.1264 33.3981 56.1368 33.3981L57.7704 30.3914L60.7233 28.7781C61.0374 28.6419 61.1735 28.2752 61.0269 27.9714ZM29.7597 28.799C32.2832 26.2742 35.7073 24.8495 39.2781 24.8599C39.5608 24.8599 39.833 24.8704 40.1158 24.8809C42.4927 27.0704 41.7912 29.0714 40.1995 30.8733C39.2571 31.8686 38.2519 32.8009 37.1838 33.66C35.6341 34.98 34.1995 36.2057 33.655 37.4314C33.0058 38.8876 33.4874 40.2077 36.0843 41.36C37.3828 41.9362 38.0948 42.3867 38.3671 42.722L38.3775 42.7324C38.3671 42.7324 38.3566 42.7429 38.3461 42.7429C37.7178 42.9839 37.0477 43.0991 36.367 43.0781C33.2047 43.2143 30.9639 41.1924 29.2152 39.6315C27.9586 38.5105 26.9115 37.5781 25.8329 37.5781C26.0214 34.2676 27.4141 31.1457 29.7597 28.799ZM52.786 38.3429C52.786 44.1782 49.0373 49.3639 43.4875 51.1763C43.3304 50.1915 43.5085 49.1858 44.0006 48.3268C44.6603 47.2582 45.5189 46.3258 46.5137 45.561C50.3776 42.3343 50.5975 40.5324 50.7651 39.1496C50.8698 38.2695 50.9535 37.62 52.6813 36.6667C52.7546 37.2219 52.786 37.7772 52.786 38.3429ZM52.0111 33.8067C52.1996 34.3305 52.3567 34.8752 52.4719 35.42C49.8331 36.761 49.7179 37.7143 49.5609 39.0238C49.4143 40.1972 49.2362 41.7267 45.7388 44.6496C44.6184 45.5086 43.6655 46.5563 42.9325 47.761C42.2938 48.8925 42.0634 50.223 42.3043 51.5011C35.0372 53.1668 27.8015 48.6201 26.1366 41.3496C25.9481 40.5219 25.8329 39.6734 25.8015 38.8143C26.4717 38.8143 27.3303 39.6105 28.3879 40.5534C30.3042 42.2715 32.7649 44.4505 36.4194 44.3248C37.278 44.3353 38.1367 44.1782 38.9325 43.8429C39.2676 43.6963 39.5189 43.4029 39.6236 43.0572C39.7178 42.6696 39.6027 42.2505 39.3199 41.9677C38.922 41.4858 38.0634 40.92 36.5765 40.2496C34.8068 39.4638 34.4194 38.6991 34.7649 37.9238C35.1838 36.9391 36.5346 35.8286 37.9691 34.5714C39.0896 33.6705 40.1367 32.6857 41.1105 31.6381C42.8592 29.6476 43.7598 27.4685 41.9796 25.0904C43.9587 25.499 45.8226 26.3371 47.4247 27.5628L46.4614 30.7476C46.3881 30.9676 46.4509 31.2086 46.608 31.3657C46.608 31.3657 48.1682 32.9162 48.2205 32.9476C48.5137 33.1152 48.8802 33.0209 49.0478 32.7276C49.0478 32.7276 49.0478 32.7171 49.0582 32.7171L50.2729 30.5171C51.0164 31.5228 51.5923 32.6333 52.0111 33.8067ZM57.6237 29.1238L57.0792 29.3962C56.9536 29.459 56.8593 29.5533 56.807 29.679L56.5347 30.2238L55.4876 32.1095L55.1839 31.7743L55.7913 29.7628C55.8646 29.5324 55.7808 29.2704 55.5923 29.1133L52.2834 26.0019C52.0426 25.7714 51.6551 25.7714 51.4248 26.0123C51.4143 26.0228 51.4143 26.0228 51.4038 26.0333C51.3619 26.0752 48.3881 31.439 48.3881 31.439L47.7389 30.7895L49.7703 24.1057C49.8436 23.8647 49.7703 23.6133 49.5713 23.4561L46.943 20.9837C46.6498 20.7323 46.5556 20.3342 46.7022 19.978C46.8383 19.6742 47.0792 19.4332 47.3828 19.297H47.4038C47.7493 19.1609 48.1472 19.2656 48.3881 19.5485L50.9012 22.2094C51.0583 22.3771 51.2991 22.4399 51.519 22.3771L58.2206 20.3552L58.8698 21.0047L53.5504 23.9276C53.2572 24.0847 53.1525 24.4618 53.3096 24.7552C53.3096 24.7552 53.3096 24.7657 53.3201 24.7657C53.341 24.8076 56.5452 28.2228 56.5452 28.2228C56.7023 28.3904 56.9431 28.4533 57.163 28.3904L59.1735 27.7828L59.4876 28.0971L57.6237 29.1238Z" fill="url(#paint14_linear)"/>
<path d="M56.0112 46.7973C56.0007 46.7869 55.9902 46.7869 55.9798 46.7869C55.6761 46.6297 55.3096 46.7345 55.142 47.0383C54.8803 47.5202 54.5871 47.9916 54.2834 48.4421C54.0844 48.725 54.1473 49.1231 54.4405 49.3221C54.7232 49.5212 55.1211 49.4583 55.3201 49.165C55.6447 48.6831 55.9588 48.1697 56.2415 47.6564C56.4091 47.3631 56.3044 46.9754 56.0112 46.7973Z" fill="url(#paint15_linear)"/>
<path d="M57.9899 37.6201C57.6444 37.6201 57.3616 37.8925 57.3512 38.2382C57.3512 38.2487 57.3512 38.2592 57.3512 38.2592V38.3325C57.3512 38.8773 57.3302 39.4325 57.2779 39.9878C57.2464 40.3335 57.4978 40.6373 57.8433 40.6687H57.9061C58.2412 40.6687 58.5135 40.4173 58.5344 40.082C58.5868 39.4954 58.6182 38.9087 58.6182 38.322V38.2382C58.6182 37.903 58.3355 37.6201 57.9899 37.6201Z" fill="url(#paint16_linear)"/>
<path d="M35.9372 56.0792C35.3927 55.9849 34.8482 55.8697 34.3246 55.7125C34 55.5973 33.6335 55.7649 33.5184 56.1001C33.4032 56.4354 33.5707 56.7916 33.9058 56.9068C33.9267 56.9173 33.9581 56.9173 33.9791 56.9278C34.5445 57.0849 35.1205 57.2211 35.6964 57.3468H35.8116C36.1571 57.3782 36.4713 57.1268 36.5027 56.7811C36.5341 56.4144 36.2828 56.1106 35.9372 56.0792Z" fill="url(#paint17_linear)"/>
<path d="M45.6547 55.8802C45.5395 55.5764 45.2044 55.3983 44.8903 55.4926V55.5135C44.3667 55.6812 43.8327 55.8278 43.2986 55.9326C42.9636 56.0059 42.7437 56.3412 42.8274 56.6869C42.9112 57.0326 43.2358 57.2421 43.5814 57.1583C44.1468 57.0326 44.7227 56.865 45.2777 56.6869C45.6128 56.5716 45.7699 56.2154 45.6547 55.8802Z" fill="url(#paint18_linear)"/>
<path d="M31.6231 54.707C31.1205 54.4556 30.6388 54.1937 30.1571 53.9213C29.8535 53.7432 29.4765 53.848 29.2985 54.1413C29.1205 54.4451 29.2252 54.8222 29.5184 55.0003C30.021 55.2937 30.5446 55.5765 31.0786 55.8384C31.3928 55.9851 31.7697 55.8489 31.9163 55.5346C32.0629 55.2203 31.9373 54.8537 31.6231 54.707Z" fill="url(#paint19_linear)"/>
<path d="M53.3411 50.6629C53.0898 50.4324 52.7023 50.4429 52.4615 50.6943C52.0845 51.1134 51.6866 51.4801 51.2782 51.8467C51.0164 52.0772 50.9955 52.4753 51.2259 52.7372C51.4562 52.9991 51.8541 53.0201 52.1159 52.7896C52.5348 52.402 52.9746 51.9829 53.3725 51.5534C53.6133 51.2915 53.5924 50.8934 53.3411 50.6629Z" fill="url(#paint20_linear)"/>
<path d="M49.8748 53.7956C49.6968 53.5023 49.3094 53.3975 49.0162 53.5756C49.0057 53.5861 48.9952 53.5861 48.9848 53.5965V53.5756C48.524 53.8689 48.0423 54.1413 47.5607 54.4137C47.257 54.5708 47.1313 54.948 47.2884 55.2623C47.4455 55.5661 47.8224 55.6918 48.1366 55.5346C48.6601 55.2623 49.1732 54.9689 49.6654 54.6546C49.9481 54.4765 50.0528 54.0994 49.8748 53.7956Z" fill="url(#paint21_linear)"/>
</g>
<defs>
<filter id="filter0_d" x="-5" y="0" width="91.0859" height="89.6508" filterUnits="userSpaceOnUse" color-interpolation-filters="sRGB">
<feFlood flood-opacity="0" result="BackgroundImageFix"/>
<feColorMatrix in="SourceAlpha" type="matrix" values="0 0 0 0 0 0 0 0 0 0 0 0 0 0 0 0 0 0 127 0"/>
<feOffset dy="7"/>
<feGaussianBlur stdDeviation="12.5"/>
<feColorMatrix type="matrix" values="0 0 0 0 0.973799 0 0 0 0 0.813345 0 0 0 0 0.535802 0 0 0 0.59 0"/>
<feBlend mode="normal" in2="BackgroundImageFix" result="effect1_dropShadow"/>
<feBlend mode="normal" in="SourceGraphic" in2="effect1_dropShadow" result="shape"/>
</filter>
<linearGradient id="paint0_linear" x1="25.4729" y1="49.7461" x2="28.3393" y2="49.9207" gradientUnits="userSpaceOnUse">
<stop stop-color="#DBB777"/>
<stop offset="1" stop-color="#A98341"/>
</linearGradient>
<linearGradient id="paint1_linear" x1="20.1117" y1="32.0908" x2="21.8713" y2="32.1434" gradientUnits="userSpaceOnUse">
<stop stop-color="#DBB777"/>
<stop offset="1" stop-color="#A98341"/>
</linearGradient>
<linearGradient id="paint2_linear" x1="22.6076" y1="45.9349" x2="25.0787" y2="46.0528" gradientUnits="userSpaceOnUse">
<stop stop-color="#DBB777"/>
<stop offset="1" stop-color="#A98341"/>
</linearGradient>
<linearGradient id="paint3_linear" x1="20.7172" y1="41.5108" x2="22.7844" y2="41.5866" gradientUnits="userSpaceOnUse">
<stop stop-color="#DBB777"/>
<stop offset="1" stop-color="#A98341"/>
</linearGradient>
<linearGradient id="paint4_linear" x1="21.262" y1="27.8376" x2="23.4727" y2="27.9263" gradientUnits="userSpaceOnUse">
<stop stop-color="#DBB777"/>
<stop offset="1" stop-color="#A98341"/>
</linearGradient>
<linearGradient id="paint5_linear" x1="19.9822" y1="36.8689" x2="21.5648" y2="36.9123" gradientUnits="userSpaceOnUse">
<stop stop-color="#DBB777"/>
<stop offset="1" stop-color="#A98341"/>
</linearGradient>
<linearGradient id="paint6_linear" x1="35.0171" y1="18.3185" x2="38.3838" y2="18.7065" gradientUnits="userSpaceOnUse">
<stop stop-color="#DBB777"/>
<stop offset="1" stop-color="#A98341"/>
</linearGradient>
<linearGradient id="paint7_linear" x1="23.488" y1="24.0579" x2="26.1121" y2="24.1937" gradientUnits="userSpaceOnUse">
<stop stop-color="#DBB777"/>
<stop offset="1" stop-color="#A98341"/>
</linearGradient>
<linearGradient id="paint8_linear" x1="39.7306" y1="18.2702" x2="43.0821" y2="18.6727" gradientUnits="userSpaceOnUse">
<stop stop-color="#DBB777"/>
<stop offset="1" stop-color="#A98341"/>
</linearGradient>
<linearGradient id="paint9_linear" x1="26.6805" y1="21.1383" x2="29.6195" y2="21.3325" gradientUnits="userSpaceOnUse">
<stop stop-color="#DBB777"/>
<stop offset="1" stop-color="#A98341"/>
</linearGradient>
<linearGradient id="paint10_linear" x1="30.6377" y1="19.1265" x2="33.8636" y2="19.4027" gradientUnits="userSpaceOnUse">
<stop stop-color="#DBB777"/>
<stop offset="1" stop-color="#A98341"/>
</linearGradient>
<linearGradient id="paint11_linear" x1="38.0981" y1="55.6835" x2="41.4113" y2="56.1229" gradientUnits="userSpaceOnUse">
<stop stop-color="#DBB777"/>
<stop offset="1" stop-color="#A98341"/>
</linearGradient>
<linearGradient id="paint12_linear" x1="56.2615" y1="40.8826" x2="58.2382" y2="40.9523" gradientUnits="userSpaceOnUse">
<stop stop-color="#DBB777"/>
<stop offset="1" stop-color="#A98341"/>
</linearGradient>
<linearGradient id="paint13_linear" x1="56.7396" y1="31.5203" x2="58.5586" y2="31.5789" gradientUnits="userSpaceOnUse">
<stop stop-color="#DBB777"/>
<stop offset="1" stop-color="#A98341"/>
</linearGradient>
<linearGradient id="paint14_linear" x1="24.0135" y1="-0.0268796" x2="65.3418" y2="2.4684" gradientUnits="userSpaceOnUse">
<stop stop-color="#DBB777"/>
<stop offset="1" stop-color="#A98341"/>
</linearGradient>
<linearGradient id="paint15_linear" x1="54.1407" y1="45.3173" x2="56.5756" y2="45.4289" gradientUnits="userSpaceOnUse">
<stop stop-color="#DBB777"/>
<stop offset="1" stop-color="#A98341"/>
</linearGradient>
<linearGradient id="paint16_linear" x1="57.2581" y1="36.0561" x2="58.7789" y2="36.0949" gradientUnits="userSpaceOnUse">
<stop stop-color="#DBB777"/>
<stop offset="1" stop-color="#A98341"/>
</linearGradient>
<linearGradient id="paint17_linear" x1="33.4436" y1="54.8178" x2="36.8321" y2="55.1727" gradientUnits="userSpaceOnUse">
<stop stop-color="#DBB777"/>
<stop offset="1" stop-color="#A98341"/>
</linearGradient>
<linearGradient id="paint18_linear" x1="42.7728" y1="54.5903" x2="46.0083" y2="54.9065" gradientUnits="userSpaceOnUse">
<stop stop-color="#DBB777"/>
<stop offset="1" stop-color="#A98341"/>
</linearGradient>
<linearGradient id="paint19_linear" x1="29.176" y1="52.7753" x2="32.2914" y2="53.0174" gradientUnits="userSpaceOnUse">
<stop stop-color="#DBB777"/>
<stop offset="1" stop-color="#A98341"/>
</linearGradient>
<linearGradient id="paint20_linear" x1="51.0349" y1="49.2398" x2="53.8303" y2="49.4034" gradientUnits="userSpaceOnUse">
<stop stop-color="#DBB777"/>
<stop offset="1" stop-color="#A98341"/>
</linearGradient>
<linearGradient id="paint21_linear" x1="47.1855" y1="52.4036" x2="50.2751" y2="52.6358" gradientUnits="userSpaceOnUse">
<stop stop-color="#DBB777"/>
<stop offset="1" stop-color="#A98341"/>
</linearGradient>
</defs>
</svg>
