<svg width="85" height="90" viewBox="0 0 85 90" fill="none" xmlns="http://www.w3.org/2000/svg">
<g filter="url(#filter0_d)">
<path d="M60 36.6336H58.0611V27.8054C58.0585 26.7888 57.6491 25.8146 56.9225 25.0962C56.1959 24.3778 55.2113 23.9737 54.1844 23.9724H51.5577L48.8755 19.1851C48.7272 18.9205 48.5278 18.6875 48.2885 18.4994C48.0492 18.3112 47.7748 18.1716 47.481 18.0885C47.1872 18.0054 46.8797 17.9805 46.5761 18.0151C46.2726 18.0498 45.9789 18.1433 45.7119 18.2904L35.3958 23.9724H23.8767C22.8498 23.9737 21.8652 24.3778 21.1386 25.0962C20.412 25.8146 20.0026 26.7888 20 27.8054V54.161C20.0013 55.1786 20.4101 56.1541 21.1368 56.8738C21.8635 57.5934 22.8488 57.9984 23.8767 58H54.1844C55.2125 57.9987 56.1981 57.5939 56.925 56.8742C57.652 56.1545 58.061 55.1788 58.0623 54.161V46.421H60V36.6336ZM54.1844 25.5025C54.7558 25.5046 55.3063 25.7152 55.7306 26.094C56.1549 26.4729 56.4232 26.9933 56.4841 27.5558H53.5702L52.4216 25.5085L54.1844 25.5025ZM46.4624 19.6318C46.6428 19.5368 46.8534 19.5149 47.0499 19.5706C47.2464 19.6263 47.4133 19.7553 47.5157 19.9304L51.7966 27.5486H32.0801L46.4624 19.6318ZM56.5094 54.161C56.5081 54.771 56.2627 55.3556 55.8269 55.7868C55.3911 56.218 54.8005 56.4606 54.1844 56.4615H23.8767C23.2599 56.4609 22.6686 56.2181 22.2325 55.7863C21.7964 55.3546 21.5511 54.7692 21.5504 54.1586V27.8054C21.5511 27.1948 21.7964 26.6095 22.2325 26.1777C22.6686 25.746 23.2599 25.5031 23.8767 25.5025H32.6074L28.8888 27.5558H24.3617C24.1614 27.5636 23.9719 27.6479 23.833 27.7909C23.6941 27.934 23.6165 28.1248 23.6165 28.3232C23.6165 28.5217 23.6941 28.7124 23.833 28.8555C23.9719 28.9985 24.1614 29.0828 24.3617 29.0907H56.5106V36.6336H50.8398C49.5735 36.6349 48.3594 37.1333 47.4639 38.0196C46.5684 38.9059 46.0646 40.1077 46.063 41.3613V41.6921C46.0627 42.9471 46.5656 44.1508 47.4613 45.0388C48.357 45.9268 49.5721 46.4266 50.8398 46.4281H56.5106V54.167L56.5094 54.161ZM58.4484 44.8861H50.8398C49.9843 44.8855 49.164 44.5488 48.5591 43.9499C47.9542 43.3511 47.6141 42.539 47.6134 41.6921V41.3625C47.6141 40.5156 47.9542 39.7035 48.5591 39.1047C49.164 38.5058 49.9843 38.1691 50.8398 38.1685H58.4484V44.8861ZM53.2191 41.5906C53.2191 41.9258 53.1187 42.2535 52.9306 42.5323C52.7424 42.811 52.475 43.0282 52.1622 43.1565C51.8493 43.2848 51.5051 43.3184 51.173 43.253C50.8409 43.1876 50.5358 43.0261 50.2964 42.7891C50.0569 42.5521 49.8938 42.25 49.8278 41.9213C49.7617 41.5925 49.7956 41.2517 49.9252 40.942C50.0548 40.6323 50.2742 40.3676 50.5558 40.1813C50.8374 39.9951 51.1684 39.8957 51.507 39.8957C51.9611 39.8957 52.3966 40.0742 52.7176 40.3921C53.0387 40.71 53.2191 41.1411 53.2191 41.5906Z" fill="url(#paint0_linear)"/>
</g>
<defs>
<filter id="filter0_d" x="-5" y="0" width="90" height="90" filterUnits="userSpaceOnUse" color-interpolation-filters="sRGB">
<feFlood flood-opacity="0" result="BackgroundImageFix"/>
<feColorMatrix in="SourceAlpha" type="matrix" values="0 0 0 0 0 0 0 0 0 0 0 0 0 0 0 0 0 0 127 0"/>
<feOffset dy="7"/>
<feGaussianBlur stdDeviation="12.5"/>
<feColorMatrix type="matrix" values="0 0 0 0 0.973799 0 0 0 0 0.813345 0 0 0 0 0.535802 0 0 0 0.59 0"/>
<feBlend mode="normal" in2="BackgroundImageFix" result="effect1_dropShadow"/>
<feBlend mode="normal" in="SourceGraphic" in2="effect1_dropShadow" result="shape"/>
</filter>
<linearGradient id="paint0_linear" x1="19.4898" y1="-2.52177" x2="64.6635" y2="0.0962693" gradientUnits="userSpaceOnUse">
<stop stop-color="#DBB777"/>
<stop offset="1" stop-color="#A98341"/>
</linearGradient>
</defs>
</svg>
