<svg width="85" height="94" viewBox="0 0 85 94" fill="none" xmlns="http://www.w3.org/2000/svg">
<g filter="url(#filter0_d)">
<path d="M47.5001 18C47.0274 18 46.6407 18.3867 46.6407 18.8594V22.8125C46.6407 23.2852 47.0274 23.6719 47.5001 23.6719C47.9727 23.6719 48.3594 23.2852 48.3594 22.8125V18.8594C48.3594 18.3867 47.9727 18 47.5001 18Z" fill="url(#paint0_linear)"/>
<path d="M27.7344 44.8126C27.2617 44.8126 26.875 45.1993 26.875 45.6719C26.875 46.1446 27.2617 46.5313 27.7344 46.5313C28.2071 46.5313 28.5938 46.1446 28.5938 45.6719C28.5938 45.1993 28.2071 44.8126 27.7344 44.8126Z" fill="url(#paint1_linear)"/>
<path d="M59.5314 43.0938C59.5314 41.1946 57.9931 39.6563 56.0938 39.6563H49.6743C50.6712 37.1125 51.0665 34.1219 50.9891 31.4493C50.972 30.9422 50.9548 30.65 50.929 30.461C50.886 28.6047 49.3563 27.1094 47.4915 27.1094C45.5923 27.1094 44.054 28.6477 44.054 30.5469V31.4063C44.054 36.8375 37.0758 39.8969 31.8078 41.2032C31.4125 40.2922 30.5016 39.6563 29.4446 39.6563H20.8594C20.3867 39.6563 20 40.043 20 40.5157V61.1407C20 61.6134 20.3867 62.0001 20.8594 62.0001H29.4531C30.5016 62.0001 31.4039 61.3728 31.8078 60.4704C32.2461 60.5821 32.65 60.6853 33.0196 60.7884C36.0188 61.5704 37.6688 62.0001 41.6907 62.0001H50.9376C52.8368 62.0001 54.3751 60.4618 54.3751 58.5626C54.3751 57.8579 54.1602 57.1962 53.7907 56.6548C55.1142 56.1907 56.0938 54.9188 56.0938 53.4063C56.0938 52.7017 55.8876 52.0399 55.5181 51.4899C56.8415 51.0259 57.8126 49.7626 57.8126 48.2501C57.8126 47.5454 57.5978 46.8837 57.2282 46.3423C58.5603 45.8782 59.5314 44.6063 59.5314 43.0938ZM30.3125 59.422C30.3125 59.8946 29.9258 60.2814 29.4531 60.2814H21.7188V41.3751H29.4531C29.9258 41.3751 30.3125 41.7618 30.3125 42.2344V59.422ZM56.0938 44.8126C54.2548 44.8126 53.8079 44.8126 51.797 44.8126C51.3243 44.8126 50.9376 45.1993 50.9376 45.6719C50.9376 46.1446 51.3243 46.5313 51.797 46.5313H54.3751C55.3204 46.5313 56.0938 47.3048 56.0938 48.2501C56.0938 49.1954 55.3204 49.9688 54.3751 49.9688H50.0782C49.6055 49.9688 49.2188 50.3556 49.2188 50.8282C49.2188 51.3009 49.6055 51.6876 50.0782 51.6876H52.6563C53.5931 51.6876 54.3751 52.4352 54.3751 53.4063C54.3751 54.3517 53.6017 55.1251 52.6563 55.1251C50.8173 55.1251 50.3704 55.1251 48.3594 55.1251C47.8868 55.1251 47.5001 55.5118 47.5001 55.9845C47.5001 56.4571 47.8868 56.8438 48.3594 56.8438H50.9376C51.8829 56.8438 52.6563 57.6173 52.6563 58.5626C52.6563 59.5079 51.8829 60.2814 50.9376 60.2814H41.6993C37.9008 60.2814 36.4141 59.8946 33.4578 59.1212C33.0282 59.0095 32.5469 58.8806 32.0313 58.7517V42.9219C38.2532 41.4438 45.7813 37.8258 45.7813 31.4063V30.5469C45.7813 29.6016 46.5548 28.8282 47.5001 28.8282C48.4454 28.8282 49.2188 29.6016 49.2188 30.5469C49.2188 30.9164 49.6829 35.5055 47.818 39.6563H44.9219C44.4493 39.6563 44.0626 40.043 44.0626 40.5157C44.0626 40.9883 44.4493 41.3751 44.9219 41.3751C45.5235 41.3751 55.1142 41.3751 56.0938 41.3751C57.0392 41.3751 57.8126 42.1485 57.8126 43.0938C57.8126 44.0391 57.0392 44.8126 56.0938 44.8126Z" fill="url(#paint2_linear)"/>
<path d="M27.7344 48.2501C27.2617 48.2501 26.875 48.6368 26.875 49.1095V55.9845C26.875 56.4571 27.2617 56.8438 27.7344 56.8438C28.2071 56.8438 28.5938 56.4571 28.5938 55.9845V49.1095C28.5938 48.6368 28.2071 48.2501 27.7344 48.2501Z" fill="url(#paint3_linear)"/>
<path d="M40.6251 28.8282H37.1875C36.7149 28.8282 36.3282 29.2149 36.3282 29.6875C36.3282 30.1602 36.7149 30.5469 37.1875 30.5469H40.6251C41.0977 30.5469 41.4844 30.1602 41.4844 29.6875C41.4844 29.2149 41.0977 28.8282 40.6251 28.8282Z" fill="url(#paint4_linear)"/>
<path d="M57.8126 28.8282H54.3751C53.9024 28.8282 53.5157 29.2149 53.5157 29.6875C53.5157 30.1602 53.9024 30.5469 54.3751 30.5469H57.8126C58.2853 30.5469 58.672 30.1602 58.672 29.6875C58.672 29.2149 58.2853 28.8282 57.8126 28.8282Z" fill="url(#paint5_linear)"/>
<path d="M55.3977 21.7899C55.0626 21.4547 54.5212 21.4547 54.186 21.7899L51.754 24.2219C51.4188 24.557 51.4188 25.0985 51.754 25.4336C52.0891 25.7688 52.6305 25.7688 52.9657 25.4336L55.3977 23.0016C55.7329 22.6664 55.7329 22.125 55.3977 21.7899Z" fill="url(#paint6_linear)"/>
<path d="M43.2461 24.2219L40.814 21.7899C40.4789 21.4547 39.9375 21.4547 39.6023 21.7899C39.2671 22.125 39.2671 22.6664 39.6023 23.0016L42.0343 25.4336C42.3695 25.7688 42.9109 25.7688 43.2461 25.4336C43.5812 25.0985 43.5812 24.557 43.2461 24.2219Z" fill="url(#paint7_linear)"/>
</g>
<defs>
<filter id="filter0_d" x="-5" y="0" width="89.5314" height="94.0001" filterUnits="userSpaceOnUse" color-interpolation-filters="sRGB">
<feFlood flood-opacity="0" result="BackgroundImageFix"/>
<feColorMatrix in="SourceAlpha" type="matrix" values="0 0 0 0 0 0 0 0 0 0 0 0 0 0 0 0 0 0 127 0"/>
<feOffset dy="7"/>
<feGaussianBlur stdDeviation="12.5"/>
<feColorMatrix type="matrix" values="0 0 0 0 0.973799 0 0 0 0 0.813345 0 0 0 0 0.535802 0 0 0 0.59 0"/>
<feBlend mode="normal" in2="BackgroundImageFix" result="effect1_dropShadow"/>
<feBlend mode="normal" in="SourceGraphic" in2="effect1_dropShadow" result="shape"/>
</filter>
<linearGradient id="paint0_linear" x1="19.4958" y1="-4.57401" x2="64.169" y2="-2.24792" gradientUnits="userSpaceOnUse">
<stop stop-color="#DBB777"/>
<stop offset="1" stop-color="#A98341"/>
</linearGradient>
<linearGradient id="paint1_linear" x1="19.4958" y1="-4.57401" x2="64.169" y2="-2.24792" gradientUnits="userSpaceOnUse">
<stop stop-color="#DBB777"/>
<stop offset="1" stop-color="#A98341"/>
</linearGradient>
<linearGradient id="paint2_linear" x1="19.4958" y1="-4.57401" x2="64.169" y2="-2.24792" gradientUnits="userSpaceOnUse">
<stop stop-color="#DBB777"/>
<stop offset="1" stop-color="#A98341"/>
</linearGradient>
<linearGradient id="paint3_linear" x1="19.4958" y1="-4.57401" x2="64.169" y2="-2.24792" gradientUnits="userSpaceOnUse">
<stop stop-color="#DBB777"/>
<stop offset="1" stop-color="#A98341"/>
</linearGradient>
<linearGradient id="paint4_linear" x1="19.4958" y1="-4.57401" x2="64.169" y2="-2.24792" gradientUnits="userSpaceOnUse">
<stop stop-color="#DBB777"/>
<stop offset="1" stop-color="#A98341"/>
</linearGradient>
<linearGradient id="paint5_linear" x1="19.4958" y1="-4.57401" x2="64.169" y2="-2.24792" gradientUnits="userSpaceOnUse">
<stop stop-color="#DBB777"/>
<stop offset="1" stop-color="#A98341"/>
</linearGradient>
<linearGradient id="paint6_linear" x1="19.4958" y1="-4.57401" x2="64.169" y2="-2.24792" gradientUnits="userSpaceOnUse">
<stop stop-color="#DBB777"/>
<stop offset="1" stop-color="#A98341"/>
</linearGradient>
<linearGradient id="paint7_linear" x1="19.4958" y1="-4.57401" x2="64.169" y2="-2.24792" gradientUnits="userSpaceOnUse">
<stop stop-color="#DBB777"/>
<stop offset="1" stop-color="#A98341"/>
</linearGradient>
</defs>
</svg>
