<svg width="256" height="29" viewBox="0 0 256 29" fill="none" xmlns="http://www.w3.org/2000/svg">
<path d="M7.8001 4.68575V24.7939C7.8001 25.0645 7.82475 25.3227 7.87404 25.5687C7.92333 25.8147 8.03423 26.0237 8.20674 26.1959C8.35461 26.3435 8.55177 26.4419 8.79822 26.4911C9.04467 26.5403 9.29112 26.5772 9.53756 26.6018C9.6115 26.6018 9.67311 26.6018 9.7224 26.6018C9.77169 26.6018 9.82098 26.6018 9.87027 26.6018L14.4172 26.5649C14.5898 26.5895 14.7623 26.6018 14.9348 26.6018C15.132 26.5772 15.3291 26.5403 15.5263 26.4911C15.7727 26.4665 16.0192 26.4173 16.2656 26.3435C16.5121 26.2697 16.7215 26.1713 16.8941 26.0483C17.2391 25.827 17.4979 25.5441 17.6704 25.1997C17.8429 24.8554 18.0031 24.4741 18.1509 24.056C18.1756 23.9576 18.2002 23.8715 18.2249 23.7977C18.2742 23.6993 18.3111 23.6132 18.3358 23.5394L18.8164 22.1743V28.3728H0L0.850248 28.1145C1.04741 28.0899 1.26921 28.0407 1.51566 27.9669C1.78675 27.8931 2.05785 27.8193 2.32894 27.7455C2.57539 27.6472 2.82184 27.5611 3.06829 27.4873C3.31474 27.3889 3.53654 27.2905 3.7337 27.1921C3.85692 27.1429 3.96782 27.0814 4.0664 27.0076C4.16498 26.9338 4.23892 26.8723 4.28821 26.8232C4.3375 26.7494 4.37446 26.6756 4.39911 26.6018C4.4484 26.528 4.49769 26.4542 4.54698 26.3804C4.59627 26.2328 4.62091 26.0852 4.62091 25.9377C4.64556 25.7901 4.65788 25.6425 4.65788 25.4949C4.65788 25.3965 4.65788 25.2981 4.65788 25.1997C4.65788 25.0768 4.65788 24.9538 4.65788 24.8308V4.79644C4.65788 4.77184 4.65788 4.73494 4.65788 4.68575C4.65788 4.61196 4.6702 4.53817 4.69485 4.46438C4.69485 4.41518 4.69485 4.35369 4.69485 4.2799C4.69485 4.20611 4.69485 4.13232 4.69485 4.05852C4.69485 3.96014 4.68253 3.87405 4.65788 3.80026C4.65788 3.70187 4.64556 3.60348 4.62091 3.50509C4.59627 3.35751 4.5593 3.22222 4.51001 3.09924C4.46072 2.95165 4.38679 2.81637 4.28821 2.69338C4.23892 2.64419 4.16498 2.5827 4.0664 2.50891C3.96782 2.43511 3.85692 2.37362 3.7337 2.32443C3.53654 2.22604 3.31474 2.13995 3.06829 2.06616C2.82184 1.96777 2.57539 1.86938 2.32894 1.77099C2.05785 1.6972 1.78675 1.62341 1.51566 1.54962C1.26921 1.47583 1.04741 1.41433 0.850248 1.36514L0 1.06998H12.5319L11.7186 1.40204C11.5708 1.50042 11.3983 1.57422 11.2011 1.62341C11.0039 1.6726 10.7945 1.7218 10.5726 1.77099C10.5234 1.79559 10.4741 1.82019 10.4248 1.84478C10.3755 1.84478 10.3262 1.85708 10.2769 1.88168C9.85795 1.98007 9.45131 2.10305 9.05699 2.25064C8.68732 2.37362 8.42854 2.52121 8.28068 2.69338C8.25603 2.74258 8.21906 2.79177 8.16977 2.84097C8.14513 2.86556 8.12048 2.90246 8.09584 2.95165C7.94797 3.22222 7.86171 3.50509 7.83707 3.80026C7.81242 4.07082 7.8001 4.37829 7.8001 4.72265V4.68575Z" fill="url(#paint0_linear)"/>
<path d="M24.7796 1.06998H43.3003L43.2633 7.12086L42.7458 5.64504C42.6965 5.54665 42.6472 5.43596 42.5979 5.31298C42.5732 5.18999 42.5363 5.0793 42.487 4.98092C42.3638 4.63656 42.2282 4.34139 42.0803 4.09542C41.9571 3.82485 41.7476 3.59118 41.4519 3.3944C41.2547 3.27142 41.0329 3.17303 40.7865 3.09924C40.54 3.02545 40.2936 2.97625 40.0471 2.95165C39.8993 2.95165 39.7514 2.95165 39.6035 2.95165C39.4803 2.92706 39.3448 2.91476 39.1969 2.91476L34.6499 2.87786C34.6006 2.90246 34.5513 2.91476 34.502 2.91476C34.4528 2.91476 34.3911 2.91476 34.3172 2.91476C34.0215 2.91476 33.7257 2.92706 33.43 2.95165C33.1589 2.97625 32.9494 3.06234 32.8016 3.20992C32.703 3.30831 32.6414 3.48049 32.6167 3.72646C32.5921 3.94784 32.5798 4.19381 32.5798 4.46438C32.5798 4.46438 32.5798 4.47668 32.5798 4.50127C32.5798 4.50127 32.5798 4.51357 32.5798 4.53817C32.5798 4.56277 32.5798 4.59966 32.5798 4.64886C32.5798 4.67345 32.5798 4.69805 32.5798 4.72265V13.5407H37.8291C37.977 13.5653 38.1248 13.5776 38.2727 13.5776C38.4206 13.5776 38.5685 13.5776 38.7163 13.5776C39.0121 13.5776 39.2832 13.5653 39.5296 13.5407C39.8007 13.4915 40.0471 13.3808 40.2689 13.2087C40.3182 13.1595 40.3675 13.1226 40.4168 13.098C40.4661 13.0488 40.5031 12.9996 40.5277 12.9504C40.6509 12.852 40.7372 12.7536 40.7865 12.6552C40.8604 12.5568 40.9344 12.4338 41.0083 12.2863L41.7846 10.6629V19.3333L41.4519 18.4847C41.4273 18.4109 41.3903 18.3249 41.341 18.2265C41.3163 18.1281 41.2917 18.0297 41.2671 17.9313C41.2424 17.8821 41.2178 17.8452 41.1931 17.8206C41.1931 17.7714 41.1808 17.7222 41.1562 17.673C41.0329 17.2795 40.8851 16.9105 40.7126 16.5662C40.5647 16.1972 40.3552 15.9389 40.0841 15.7913C39.9362 15.693 39.7884 15.6192 39.6405 15.57C39.4926 15.5208 39.3448 15.4839 39.1969 15.4593C39.049 15.4347 38.8888 15.4224 38.7163 15.4224C38.5685 15.4224 38.3959 15.4224 38.1988 15.4224C38.1741 15.4224 38.1372 15.4224 38.0879 15.4224C38.0632 15.4224 38.0386 15.4224 38.0139 15.4224L32.5798 15.3855V24.4618C32.5798 24.5848 32.5798 24.7201 32.5798 24.8677C32.6044 25.0153 32.629 25.1506 32.6537 25.2735C32.703 25.5441 32.7646 25.7901 32.8385 26.0114C32.9371 26.2082 33.0603 26.3435 33.2082 26.4173C33.4054 26.5157 33.5779 26.5772 33.7257 26.6018C33.8982 26.6264 34.0708 26.6387 34.2433 26.6387C34.3172 26.6387 34.3788 26.6387 34.4281 26.6387C34.502 26.6387 34.576 26.6264 34.6499 26.6018C34.6992 26.6018 34.7608 26.6018 34.8348 26.6018C34.9087 26.6018 34.9826 26.6018 35.0566 26.6018L41.1192 26.5649C41.1931 26.5895 41.2671 26.6018 41.341 26.6018C41.4149 26.6018 41.4889 26.6018 41.5628 26.6018C41.6121 26.6264 41.6737 26.6387 41.7476 26.6387C41.8216 26.6387 41.8955 26.6387 41.9694 26.6387C42.0927 26.6387 42.2159 26.6264 42.3391 26.6018C42.4623 26.5772 42.5856 26.5403 42.7088 26.4911C42.9059 26.3927 43.0661 26.1959 43.1894 25.9008C43.3372 25.6056 43.4728 25.2735 43.596 24.9046C43.6206 24.8308 43.6453 24.757 43.6699 24.6832C43.6946 24.5848 43.7192 24.4987 43.7439 24.4249C43.7932 24.2774 43.8424 24.1298 43.8917 23.9822C43.9657 23.8346 44.0273 23.6993 44.0766 23.5763L44.5572 22.3957L44.3723 28.3728H24.7796L25.6299 28.1145C25.8271 28.0899 26.0489 28.0407 26.2953 27.9669C26.5664 27.8931 26.8375 27.8193 27.1086 27.7455C27.355 27.6472 27.6015 27.5611 27.8479 27.4873C28.0944 27.3889 28.3162 27.2905 28.5133 27.1921C28.6366 27.1429 28.7475 27.0814 28.8461 27.0076C28.9446 26.9338 29.0186 26.8723 29.0679 26.8232C29.1911 26.6756 29.2773 26.5157 29.3266 26.3435C29.3759 26.1467 29.4129 25.95 29.4375 25.7532C29.4375 25.6794 29.4375 25.6056 29.4375 25.5318C29.4375 25.458 29.4375 25.3842 29.4375 25.3104C29.4375 25.1874 29.4375 25.0768 29.4375 24.9784C29.4375 24.88 29.4375 24.7816 29.4375 24.6832V4.68575C29.4375 4.58736 29.4375 4.47668 29.4375 4.35369C29.4375 4.20611 29.4375 4.08312 29.4375 3.98473C29.4375 3.73876 29.4129 3.51739 29.3636 3.32061C29.3389 3.09924 29.2404 2.89016 29.0679 2.69338C29.0186 2.64419 28.9446 2.5827 28.8461 2.50891C28.7475 2.43511 28.6366 2.37362 28.5133 2.32443C28.3162 2.22604 28.0944 2.13995 27.8479 2.06616C27.6015 1.96777 27.355 1.86938 27.1086 1.77099C26.8375 1.6972 26.5664 1.62341 26.2953 1.54962C26.0489 1.47583 25.8271 1.41433 25.6299 1.36514L24.7796 1.06998Z" fill="url(#paint1_linear)"/>
<path d="M63.55 12.1387L67.3576 5.23919C67.4069 5.18999 67.4562 5.1285 67.5055 5.05471C67.5548 4.95632 67.604 4.85793 67.6533 4.75954C67.8505 4.36599 68.0107 3.98473 68.1339 3.61578C68.2818 3.24682 68.3434 3.01315 68.3187 2.91476C68.2202 2.66879 67.986 2.45971 67.6164 2.28753C67.2713 2.09076 66.9017 1.90628 66.5074 1.7341C66.4088 1.7095 66.3102 1.6849 66.2116 1.66031C66.113 1.61111 66.0145 1.56192 65.9159 1.51272L64.9178 1.06998H75.4165L74.6032 1.36514C74.48 1.43893 74.3567 1.50042 74.2335 1.54962C74.1103 1.57422 73.9871 1.61111 73.8638 1.66031C73.6174 1.7341 73.3586 1.82019 73.0875 1.91858C72.8411 1.99237 72.5823 2.09075 72.3112 2.21374C72.1387 2.31213 71.9539 2.42282 71.7567 2.5458C71.5596 2.66879 71.3624 2.81637 71.1652 2.98855C70.8941 3.23452 70.623 3.52969 70.352 3.87405C70.1055 4.21841 69.8591 4.59966 69.6126 5.01781L64.5111 13.9466L70.8695 24.388C71.1159 24.8062 71.3501 25.1997 71.5719 25.5687C71.8183 25.9131 72.0278 26.2451 72.2003 26.5649C72.3235 26.8109 72.5946 27.0322 73.0136 27.229C73.4326 27.4258 73.8638 27.6103 74.3075 27.7824C74.4307 27.8316 74.5539 27.8808 74.6771 27.93C74.8004 27.9792 74.9113 28.0284 75.0098 28.0776L75.7861 28.3728H65.4723L66.3965 28.0038C66.4211 28.0284 66.4457 28.0407 66.4704 28.0407C66.495 28.0161 66.532 27.9915 66.5813 27.9669C66.6306 27.9423 66.6799 27.9177 66.7292 27.8931C66.7785 27.8685 66.8277 27.8562 66.877 27.8562C67.1974 27.7086 67.4931 27.5488 67.7642 27.3766C68.06 27.2044 68.2571 26.9584 68.3557 26.6387C68.3557 26.6141 68.3557 26.5895 68.3557 26.5649C68.3557 26.5403 68.3557 26.5157 68.3557 26.4911C68.3557 26.3681 68.3188 26.2082 68.2448 26.0114C68.1955 25.8147 68.1216 25.6056 68.023 25.3842C67.9984 25.3104 67.9614 25.2366 67.9121 25.1628C67.8628 25.0645 67.8259 24.9661 67.8012 24.8677C67.7519 24.7693 67.7026 24.6832 67.6533 24.6094C67.604 24.511 67.5548 24.4249 67.5055 24.3511L62.9215 16.6768L58.5594 24.3511C58.4855 24.4987 58.4115 24.6463 58.3376 24.7939C58.2636 24.9169 58.1774 25.0522 58.0788 25.1997C58.0788 25.2243 58.0665 25.2366 58.0418 25.2366C58.0418 25.2366 58.0418 25.2489 58.0418 25.2735C57.8693 25.5687 57.7091 25.8516 57.5613 26.1221C57.438 26.3927 57.3888 26.5649 57.4134 26.6387C57.512 26.8846 57.7091 27.0937 58.0049 27.2659C58.3006 27.4381 58.6333 27.6103 59.003 27.7824C59.0769 27.807 59.1632 27.8439 59.2618 27.8931C59.3603 27.9177 59.4589 27.9546 59.5575 28.0038L60.5556 28.3728H50.4635L51.2768 28.0776C51.4001 28.053 51.5233 28.0284 51.6465 28.0038C51.7944 27.9546 51.9299 27.9054 52.0531 27.8562C52.2996 27.7824 52.546 27.7086 52.7925 27.6349C53.0389 27.5611 53.2977 27.4627 53.5688 27.3397C53.7413 27.2413 53.9261 27.1306 54.1233 27.0076C54.3205 26.86 54.5176 26.7002 54.7148 26.528C54.9859 26.2574 55.2446 25.9623 55.4911 25.6425C55.7375 25.2981 55.984 24.9169 56.2304 24.4987L61.8495 14.9427L55.7129 4.94402C55.5897 4.74724 55.4541 4.56277 55.3063 4.39059C55.1584 4.19381 55.0105 4.00933 54.8627 3.83715C54.6901 3.68957 54.5299 3.55428 54.3821 3.4313C54.2342 3.28371 54.0987 3.14843 53.9754 3.02545C53.8522 2.90246 53.6797 2.77947 53.4579 2.65649C53.2607 2.5335 53.0389 2.39822 52.7925 2.25064C52.6446 2.20144 52.4844 2.13995 52.3119 2.06616C52.164 1.99237 52.0162 1.91858 51.8683 1.84478C51.7451 1.79559 51.6219 1.7464 51.4986 1.6972C51.4001 1.62341 51.3015 1.56192 51.2029 1.51272L50.3896 1.06998H61.5537L60.5926 1.47583C60.494 1.52502 60.3954 1.57422 60.2968 1.62341C60.1983 1.6726 60.0874 1.7218 59.9641 1.77099C59.6438 1.91858 59.348 2.10305 59.0769 2.32443C58.8058 2.5458 58.6333 2.80407 58.5594 3.09924C58.5347 3.12383 58.5224 3.16073 58.5224 3.20992C58.5224 3.25912 58.5224 3.30831 58.5224 3.35751C58.5224 3.48049 58.5347 3.61578 58.5594 3.76336C58.584 3.88634 58.621 4.02163 58.6703 4.16921C58.7196 4.2922 58.7689 4.41518 58.8182 4.53817C58.8674 4.66115 58.9291 4.78414 59.003 4.90712C59.003 4.93172 59.003 4.95632 59.003 4.98092C59.0276 5.00551 59.0523 5.03011 59.0769 5.05471L63.55 12.1387Z" fill="url(#paint2_linear)"/>
<path d="M119.173 22.7277V19.9975C119.173 19.7761 119.136 19.5793 119.062 19.4071C118.989 19.2103 118.878 19.0259 118.73 18.8537C118.705 18.8291 118.68 18.8045 118.656 18.7799C118.631 18.7307 118.607 18.6938 118.582 18.6692C118.434 18.5216 118.237 18.4109 117.99 18.3371C117.769 18.2388 117.522 18.1527 117.251 18.0789C117.152 18.0543 117.042 18.0297 116.918 18.0051C116.82 17.9805 116.709 17.9559 116.586 17.9313C116.487 17.8821 116.388 17.8452 116.29 17.8206C116.216 17.796 116.142 17.7714 116.068 17.7468L114.885 17.1196H125.569L124.312 17.8206C124.263 17.8698 124.213 17.9067 124.164 17.9313C124.115 17.9559 124.065 17.9805 124.016 18.0051C123.917 18.0543 123.807 18.1035 123.683 18.1527C123.585 18.1773 123.486 18.2019 123.388 18.2265C123.141 18.3249 122.919 18.4355 122.722 18.5585C122.525 18.6569 122.377 18.8168 122.279 19.0382C122.205 19.2103 122.143 19.5793 122.094 20.145C122.069 20.7108 122.057 21.3257 122.057 21.9898C122.057 22.039 122.057 22.1005 122.057 22.1743C122.057 22.2235 122.057 22.2727 122.057 22.3219C122.057 22.6908 122.069 23.0475 122.094 23.3919C122.118 23.7116 122.143 24.0068 122.168 24.2774L122.39 26.2697L120.245 27.1183C120.122 27.1921 119.987 27.2536 119.839 27.3028C119.691 27.352 119.543 27.4012 119.395 27.4504C118.483 27.7947 117.35 28.1022 115.994 28.3728C114.639 28.6187 113.024 28.7294 111.151 28.7048C110.757 28.7048 110.35 28.6802 109.932 28.631C109.513 28.5818 109.094 28.5204 108.675 28.4466C105.791 27.8562 103.13 26.3681 100.69 23.9822C98.2745 21.5717 97.0053 18.6077 96.8821 15.0903C96.8821 15.0411 96.8821 15.0042 96.8821 14.9796C96.8821 14.9304 96.8821 14.8813 96.8821 14.8321C96.8821 14.8075 96.8821 14.7706 96.8821 14.7214C96.8821 14.6722 96.8821 14.6353 96.8821 14.6107C96.8821 10.4538 98.41 7.03477 101.466 4.35369C104.547 1.64801 108.12 0.209076 112.187 0.0368974C112.458 0.0122991 112.729 0 113 0C113.271 0 113.53 0 113.776 0C114.811 0 115.76 0.0614927 116.623 0.184478C117.51 0.307464 118.372 0.479643 119.21 0.701018C119.358 0.750213 119.518 0.811705 119.691 0.885496C119.863 0.934691 120.036 0.983885 120.208 1.03308L121.761 1.51272L121.207 9.26081L120.467 6.27226C120.319 5.63274 120.134 5.03011 119.913 4.46438C119.716 3.87405 119.383 3.4313 118.915 3.13613C118.841 3.08694 118.73 3.03774 118.582 2.98855C118.459 2.91476 118.298 2.84097 118.101 2.76718C117.633 2.61959 117.029 2.48431 116.29 2.36132C115.575 2.21374 114.824 2.11535 114.035 2.06616C113.788 2.04156 113.53 2.02926 113.259 2.02926C112.987 2.00467 112.729 1.99237 112.482 1.99237C112.384 1.99237 112.273 1.99237 112.15 1.99237C112.051 1.99237 111.94 1.99237 111.817 1.99237C108.539 2.18914 105.767 3.3944 103.499 5.60814C101.232 7.82188 100.111 10.6383 100.135 14.0573C100.135 14.0818 100.135 14.1187 100.135 14.1679C100.135 14.2171 100.135 14.254 100.135 14.2786C100.135 14.3278 100.135 14.377 100.135 14.4262C100.135 14.4508 100.135 14.4877 100.135 14.5369C100.283 18.374 101.528 21.3995 103.869 23.6132C106.21 25.827 109.155 26.9092 112.704 26.8601C112.901 26.8601 113.098 26.8601 113.296 26.8601C113.517 26.8355 113.727 26.8109 113.924 26.7863C115.033 26.6387 116.068 26.3681 117.029 25.9746C117.99 25.581 118.607 25.1505 118.878 24.6832C118.927 24.6094 118.964 24.5479 118.989 24.4987C119.013 24.4249 119.038 24.3634 119.062 24.3142C119.112 24.1175 119.136 23.9084 119.136 23.687C119.161 23.4656 119.173 23.1582 119.173 22.7646V22.7277Z" fill="url(#paint3_linear)"/>
<path d="M144.313 15.6807L143.574 15.8282L147.677 20.3664C148.121 20.883 148.527 21.3626 148.897 21.8053C149.291 22.2235 149.673 22.6416 150.043 23.0598C150.142 23.1828 150.24 23.3058 150.339 23.4288C150.462 23.5271 150.573 23.6378 150.672 23.7608C150.967 24.0806 151.275 24.4003 151.596 24.7201C151.941 25.0399 152.298 25.3842 152.668 25.7532C152.89 25.95 153.074 26.1344 153.222 26.3066C153.395 26.4542 153.567 26.6018 153.74 26.7494C153.838 26.8232 153.925 26.8969 153.999 26.9707C154.097 27.0445 154.208 27.1183 154.331 27.1921C154.553 27.3397 154.8 27.4996 155.071 27.6718C155.366 27.8193 155.736 28.0038 156.18 28.2252L157.178 28.6679L155.958 28.9631C155.909 28.9877 155.847 29 155.773 29C155.699 29 155.613 29 155.514 29C155.12 29 154.627 28.9262 154.036 28.7786C153.469 28.6556 152.877 28.4958 152.261 28.299C151.571 28.0284 150.733 27.4012 149.747 26.4173C148.786 25.4334 147.788 24.3757 146.753 23.2443C146.728 23.2197 146.704 23.2074 146.679 23.2074C146.654 23.1828 146.642 23.1582 146.642 23.1336C146.42 22.9122 146.211 22.6908 146.014 22.4695C145.816 22.2481 145.619 22.0267 145.422 21.8053L140.025 16.0496H139.027V24.7939C139.027 25.212 139.039 25.581 139.064 25.9008C139.113 26.1959 139.261 26.4911 139.507 26.7863C139.655 26.983 139.914 27.1552 140.284 27.3028C140.678 27.4258 141.085 27.5365 141.504 27.6349C141.578 27.6595 141.639 27.6841 141.688 27.7087C141.762 27.7332 141.836 27.7455 141.91 27.7455C142.107 27.7947 142.292 27.8562 142.465 27.93C142.637 27.9792 142.797 28.0284 142.945 28.0776L143.759 28.3728H131.227L132.077 28.1145C132.274 28.0899 132.496 28.0407 132.742 27.9669C133.013 27.8931 133.285 27.8193 133.556 27.7455C133.827 27.6472 134.086 27.5611 134.332 27.4873C134.578 27.3889 134.788 27.2905 134.96 27.1921C135.108 27.1429 135.219 27.0814 135.293 27.0076C135.392 26.9338 135.466 26.8723 135.515 26.8232C135.638 26.6756 135.724 26.5157 135.774 26.3435C135.823 26.1467 135.86 25.95 135.885 25.7532C135.885 25.6056 135.885 25.4703 135.885 25.3473C135.885 25.1997 135.885 25.0522 135.885 24.9046C135.885 24.88 135.885 24.8431 135.885 24.7939C135.885 24.7447 135.885 24.7078 135.885 24.6832V4.68575C135.885 4.36599 135.86 4.07082 135.811 3.80026C135.786 3.52969 135.675 3.27142 135.478 3.02545C135.305 2.82867 135.022 2.64419 134.628 2.47201C134.258 2.27523 133.864 2.09076 133.445 1.91858C133.198 1.82019 132.952 1.7341 132.705 1.66031C132.484 1.56192 132.274 1.47583 132.077 1.40204L131.264 1.06998H137.992C138.361 1.09457 138.706 1.10687 139.027 1.10687C139.347 1.08227 139.668 1.05768 139.988 1.03308C140.037 1.03308 140.087 1.03308 140.136 1.03308C140.185 1.03308 140.234 1.03308 140.284 1.03308C140.555 1.03308 140.826 1.03308 141.097 1.03308C141.368 1.00848 141.651 0.996183 141.947 0.996183C142.218 0.996183 142.489 1.00848 142.761 1.03308C143.056 1.03308 143.364 1.04538 143.685 1.06998C143.882 1.09457 144.067 1.11917 144.239 1.14377C144.436 1.16836 144.634 1.19296 144.831 1.21756C146.309 1.53732 147.677 2.31213 148.934 3.54198C150.191 4.77184 150.819 6.48134 150.819 8.67048C150.819 10.3431 150.4 11.659 149.562 12.6183C148.749 13.5776 147.85 14.3032 146.864 14.7952C146.42 15.0165 145.977 15.201 145.533 15.3486C145.089 15.4962 144.683 15.6192 144.313 15.7176V15.6807ZM142.613 2.73028C142.539 2.75488 142.465 2.76718 142.391 2.76718C142.342 2.76718 142.292 2.75488 142.243 2.73028C142.169 2.73028 142.095 2.73028 142.021 2.73028C141.972 2.73028 141.91 2.73028 141.836 2.73028C141.812 2.73028 141.787 2.73028 141.762 2.73028C141.738 2.73028 141.713 2.73028 141.688 2.73028C141.22 2.73028 140.764 2.76718 140.321 2.84097C139.902 2.89016 139.618 2.96395 139.47 3.06234C139.249 3.20992 139.113 3.4067 139.064 3.65267C139.039 3.89864 139.027 4.15691 139.027 4.42748C139.027 4.45208 139.027 4.47668 139.027 4.50127C139.027 4.50127 139.027 4.51357 139.027 4.53817V14.5L140.764 14.4631C142.711 14.4631 144.387 13.9343 145.792 12.8766C147.197 11.7943 147.887 10.38 147.862 8.63359C147.862 8.5598 147.862 8.486 147.862 8.41221C147.862 8.33842 147.862 8.26463 147.862 8.19084C147.739 6.69042 147.197 5.47286 146.235 4.53817C145.299 3.57888 144.264 3.01315 143.13 2.84097C143.056 2.81637 142.97 2.80407 142.871 2.80407C142.797 2.77948 142.711 2.76718 142.613 2.76718V2.73028Z" fill="url(#paint4_linear)"/>
<path d="M177.165 0.553437C177.214 0.578034 177.264 0.590332 177.313 0.590332C177.387 0.590332 177.461 0.590332 177.535 0.590332C177.584 0.590332 177.633 0.590332 177.682 0.590332C177.756 0.590332 177.818 0.590332 177.867 0.590332C181.737 0.590332 185.088 1.85708 187.922 4.39059C190.757 6.92409 192.223 10.3308 192.322 14.6107C192.371 18.9152 190.88 22.3711 187.848 24.9784C184.817 27.5611 181.244 28.8278 177.128 28.7786C173.259 28.754 169.969 27.3766 167.258 24.6463C164.571 21.8914 163.228 18.5462 163.228 14.6107C163.228 10.7735 164.596 7.51442 167.332 4.83333C170.067 2.15225 173.345 0.737914 177.165 0.590332V0.553437ZM177.128 2.61959C173.776 2.74258 171.115 3.98473 169.143 6.34606C167.196 8.68278 166.235 11.4131 166.26 14.5369C166.309 17.5377 167.369 20.2803 169.439 22.7646C171.509 25.2489 174.146 26.5895 177.35 26.7863C177.424 26.7863 177.485 26.7863 177.535 26.7863C177.609 26.7863 177.67 26.7863 177.719 26.7863C177.769 26.8109 177.818 26.8232 177.867 26.8232C177.941 26.8232 178.015 26.8232 178.089 26.8232C181.096 26.8232 183.708 25.7532 185.926 23.6132C188.144 21.4487 189.253 18.6692 189.253 15.2748C189.253 11.9542 188.12 9.01484 185.852 6.45674C183.61 3.89864 180.837 2.63189 177.535 2.65649C177.51 2.65649 177.473 2.65649 177.424 2.65649C177.399 2.65649 177.374 2.65649 177.35 2.65649C177.3 2.65649 177.264 2.65649 177.239 2.65649C177.214 2.65649 177.177 2.65649 177.128 2.65649V2.61959Z" fill="url(#paint5_linear)"/>
<path d="M223.955 6.12468V17.673C223.955 21.9283 222.859 24.88 220.665 26.528C218.472 28.1514 215.97 28.9508 213.161 28.9262C210.475 28.9016 208.059 28.053 205.915 26.3804C203.796 24.7078 202.736 21.9652 202.736 18.1527V4.79644C202.736 4.77184 202.736 4.73494 202.736 4.68575C202.736 4.61196 202.749 4.53817 202.773 4.46438C202.773 4.41518 202.773 4.35369 202.773 4.2799C202.773 4.20611 202.773 4.13232 202.773 4.05852C202.773 3.96014 202.761 3.87405 202.736 3.80026C202.736 3.70187 202.724 3.60348 202.699 3.50509C202.675 3.35751 202.638 3.22222 202.588 3.09924C202.539 2.95165 202.465 2.81637 202.367 2.69338C202.317 2.64419 202.243 2.5827 202.145 2.50891C202.046 2.43511 201.935 2.37362 201.812 2.32443C201.615 2.22604 201.393 2.13995 201.147 2.06616C200.9 1.96777 200.654 1.86938 200.407 1.77099C200.136 1.6972 199.865 1.62341 199.594 1.54962C199.348 1.47583 199.126 1.41433 198.929 1.36514L198.078 1.06998H210.61L209.797 1.40204C209.649 1.50042 209.477 1.57422 209.279 1.62341C209.082 1.6726 208.873 1.7218 208.651 1.77099C208.602 1.79559 208.552 1.82019 208.503 1.84478C208.454 1.84478 208.405 1.85708 208.355 1.88168C207.936 1.98007 207.53 2.10305 207.135 2.25064C206.766 2.37362 206.507 2.52121 206.359 2.69338C206.334 2.74258 206.297 2.79177 206.248 2.84097C206.223 2.86556 206.199 2.90246 206.174 2.95165C206.026 3.22222 205.94 3.50509 205.915 3.80026C205.891 4.07082 205.878 4.37829 205.878 4.72265V18.2634C205.878 21.215 206.544 23.3304 207.875 24.6094C209.23 25.8885 210.955 26.6879 213.05 27.0076C213.247 27.0322 213.432 27.0568 213.605 27.0814C213.777 27.0814 213.95 27.0814 214.122 27.0814C216.168 27.0814 217.967 26.3312 219.519 24.8308C221.072 23.3058 221.848 21.2765 221.848 18.743V4.94402C221.848 4.91942 221.848 4.89483 221.848 4.87023C221.848 4.69805 221.848 4.52587 221.848 4.35369C221.848 4.15691 221.824 3.96014 221.774 3.76336C221.75 3.61578 221.7 3.46819 221.626 3.32061C221.577 3.17303 221.503 3.02544 221.405 2.87786C221.355 2.82867 221.281 2.77947 221.183 2.73028C221.084 2.65649 220.961 2.5827 220.813 2.50891C220.641 2.43511 220.431 2.36132 220.185 2.28753C219.963 2.18914 219.729 2.09076 219.482 1.99237C219.187 1.91857 218.903 1.83248 218.632 1.7341C218.386 1.63571 218.164 1.54962 217.967 1.47583L217.116 1.06998H228.65L227.911 1.47583C227.714 1.59881 227.48 1.6972 227.209 1.77099C226.962 1.84478 226.703 1.93087 226.432 2.02926C226.013 2.15225 225.607 2.28753 225.212 2.43512C224.843 2.5581 224.596 2.70568 224.473 2.87786C224.374 3.00085 224.288 3.22222 224.214 3.54198C224.165 3.83715 224.116 4.15691 224.066 4.50127C224.017 4.87023 223.98 5.21459 223.955 5.53435C223.955 5.82952 223.955 6.03859 223.955 6.16158V6.12468Z" fill="url(#paint6_linear)"/>
<path d="M256 9.44529C256 9.49449 256 9.53138 256 9.55598C256 9.58058 256 9.60518 256 9.62977C256 9.62977 256 9.64207 256 9.66667C256 11.7328 255.076 13.5284 253.227 15.0534C251.404 16.5785 249.395 17.4148 247.202 17.5623C247.079 17.5869 246.955 17.5992 246.832 17.5992C246.734 17.5992 246.623 17.5992 246.499 17.5992C246.179 17.5992 245.859 17.5869 245.538 17.5623C245.243 17.5131 244.934 17.4517 244.614 17.3779L243.283 17.0458V24.7939C243.283 25.212 243.296 25.581 243.32 25.9008C243.37 26.1959 243.517 26.4911 243.764 26.7863C243.912 26.983 244.17 27.1429 244.54 27.2659C244.91 27.3889 245.304 27.5119 245.723 27.6349C245.797 27.6595 245.871 27.6841 245.945 27.7087C246.019 27.7087 246.093 27.7209 246.167 27.7455C246.364 27.7947 246.549 27.8562 246.721 27.93C246.894 27.9792 247.054 28.0284 247.202 28.0776L248.015 28.3728H235.483L236.333 28.1145C236.531 28.0899 236.752 28.0407 236.999 27.9669C237.27 27.8931 237.541 27.8193 237.812 27.7455C238.059 27.6472 238.305 27.5611 238.551 27.4873C238.798 27.3889 239.02 27.2905 239.217 27.1921C239.34 27.1429 239.451 27.0814 239.55 27.0076C239.648 26.9338 239.722 26.8723 239.771 26.8232C239.845 26.7002 239.907 26.5895 239.956 26.4911C240.03 26.3681 240.079 26.2451 240.104 26.1221C240.129 25.9992 240.141 25.8762 240.141 25.7532C240.166 25.6302 240.178 25.5195 240.178 25.4211C240.178 25.3473 240.178 25.2858 240.178 25.2366C240.178 25.1628 240.178 25.1014 240.178 25.0522C240.153 24.9784 240.141 24.9169 240.141 24.8677C240.141 24.7939 240.141 24.7324 240.141 24.6832V4.68575C240.141 4.36599 240.116 4.07082 240.067 3.80026C240.042 3.52969 239.932 3.27142 239.734 3.02545C239.562 2.82867 239.278 2.64419 238.884 2.47201C238.514 2.27523 238.12 2.09076 237.701 1.91858C237.455 1.82019 237.208 1.7341 236.962 1.66031C236.74 1.56192 236.531 1.47583 236.333 1.40204L235.52 1.06998H242.248C242.618 1.09457 242.975 1.10687 243.32 1.10687C243.665 1.08227 243.998 1.06998 244.318 1.06998C244.392 1.06998 244.454 1.06998 244.503 1.06998C244.552 1.06998 244.602 1.06998 244.651 1.06998C244.922 1.04538 245.193 1.03308 245.464 1.03308C245.76 1.03308 246.056 1.03308 246.352 1.03308C246.598 1.03308 246.857 1.03308 247.128 1.03308C247.399 1.03308 247.67 1.04538 247.941 1.06998C248.212 1.06998 248.496 1.09457 248.791 1.14377C249.087 1.19296 249.383 1.25445 249.679 1.32824C251.207 1.6972 252.624 2.5458 253.93 3.87405C255.236 5.20229 255.926 7.07167 256 9.48219V9.44529ZM246.906 3.09924C246.832 3.12383 246.758 3.13613 246.684 3.13613C246.61 3.13613 246.524 3.13613 246.425 3.13613C246.302 3.13613 246.179 3.13613 246.056 3.13613C245.957 3.13613 245.846 3.13613 245.723 3.13613C245.304 3.16073 244.897 3.19763 244.503 3.24682C244.133 3.29601 243.875 3.36981 243.727 3.46819C243.505 3.61578 243.37 3.81255 243.32 4.05852C243.296 4.3045 243.283 4.56277 243.283 4.83333C243.283 4.85793 243.283 4.88253 243.283 4.90712C243.283 4.90712 243.283 4.91942 243.283 4.94402V15.2379L244.392 15.3855C244.688 15.4593 244.971 15.5085 245.243 15.5331C245.538 15.5577 245.822 15.57 246.093 15.57C247.99 15.57 249.605 15.0288 250.935 13.9466C252.266 12.8643 252.932 11.3516 252.932 9.4084C252.932 9.33461 252.932 9.27311 252.932 9.22392C252.932 9.15013 252.932 9.08863 252.932 9.03944C252.858 7.39143 252.39 6.13698 251.527 5.27608C250.664 4.39058 249.74 3.78796 248.754 3.46819C248.434 3.36981 248.114 3.29601 247.793 3.24682C247.498 3.19763 247.202 3.16073 246.906 3.13613V3.09924Z" fill="url(#paint7_linear)"/>
<defs>
<linearGradient id="paint0_linear" x1="-3.26529" y1="-14.8783" x2="226.642" y2="102.743" gradientUnits="userSpaceOnUse">
<stop stop-color="#DBB777"/>
<stop offset="1" stop-color="#A98341"/>
</linearGradient>
<linearGradient id="paint1_linear" x1="-3.26529" y1="-14.8783" x2="226.642" y2="102.743" gradientUnits="userSpaceOnUse">
<stop stop-color="#DBB777"/>
<stop offset="1" stop-color="#A98341"/>
</linearGradient>
<linearGradient id="paint2_linear" x1="-3.26529" y1="-14.8783" x2="226.642" y2="102.743" gradientUnits="userSpaceOnUse">
<stop stop-color="#DBB777"/>
<stop offset="1" stop-color="#A98341"/>
</linearGradient>
<linearGradient id="paint3_linear" x1="-3.26529" y1="-14.8783" x2="226.642" y2="102.743" gradientUnits="userSpaceOnUse">
<stop stop-color="#DBB777"/>
<stop offset="1" stop-color="#A98341"/>
</linearGradient>
<linearGradient id="paint4_linear" x1="-3.26529" y1="-14.8783" x2="226.642" y2="102.743" gradientUnits="userSpaceOnUse">
<stop stop-color="#DBB777"/>
<stop offset="1" stop-color="#A98341"/>
</linearGradient>
<linearGradient id="paint5_linear" x1="-3.26529" y1="-14.8783" x2="226.642" y2="102.743" gradientUnits="userSpaceOnUse">
<stop stop-color="#DBB777"/>
<stop offset="1" stop-color="#A98341"/>
</linearGradient>
<linearGradient id="paint6_linear" x1="-3.26529" y1="-14.8783" x2="226.642" y2="102.743" gradientUnits="userSpaceOnUse">
<stop stop-color="#DBB777"/>
<stop offset="1" stop-color="#A98341"/>
</linearGradient>
<linearGradient id="paint7_linear" x1="-3.26529" y1="-14.8783" x2="226.642" y2="102.743" gradientUnits="userSpaceOnUse">
<stop stop-color="#DBB777"/>
<stop offset="1" stop-color="#A98341"/>
</linearGradient>
</defs>
</svg>
