<svg width="122" height="124" viewBox="0 0 122 124" fill="none" xmlns="http://www.w3.org/2000/svg">
<g filter="url(#filter0_d)">
<path d="M77.6134 33.247H43.2625C42.9591 33.247 42.6681 33.371 42.4535 33.5919C42.239 33.8128 42.1185 34.1123 42.1185 34.4247V89.8344C42.1185 90.1467 42.239 90.4463 42.4535 90.6672C42.6681 90.888 42.9591 91.0121 43.2625 91.0121H77.6134C77.9171 91.0121 78.2085 90.8882 78.4235 90.6674C78.6386 90.4466 78.7599 90.1471 78.7608 89.8344V34.4247C78.7599 34.112 78.6386 33.8125 78.4235 33.5917C78.2085 33.3709 77.9171 33.247 77.6134 33.247ZM76.4727 88.6532H44.3998V35.6025H76.4727V88.6532Z" fill="url(#paint0_linear)"/>
<path d="M60.4396 75.6875C58.6181 75.6903 56.872 76.4364 55.5841 77.7623C54.2961 79.0883 53.5714 80.8858 53.5687 82.761V89.8344C53.5696 90.1471 53.6909 90.4466 53.9059 90.6674C54.121 90.8882 54.4123 91.0122 54.7161 91.0122H66.1664C66.4698 91.0122 66.7608 90.8881 66.9753 90.6672C67.1899 90.4463 67.3104 90.1468 67.3104 89.8344V82.761C67.3086 80.8856 66.5842 79.0875 65.296 77.7613C64.0079 76.4352 62.2613 75.6894 60.4396 75.6875ZM65.0224 88.6532H55.8601V82.761C55.8435 82.1309 55.9498 81.5038 56.1726 80.9167C56.3953 80.3296 56.7301 79.7944 57.1572 79.3427C57.5842 78.891 58.0948 78.532 58.6589 78.2869C59.2229 78.0417 59.829 77.9154 60.4412 77.9154C61.0535 77.9154 61.6595 78.0417 62.2236 78.2869C62.7877 78.532 63.2983 78.891 63.7253 79.3427C64.1524 79.7944 64.4871 80.3296 64.7099 80.9167C64.9327 81.5038 65.0389 82.1309 65.0224 82.761V88.6532Z" fill="url(#paint1_linear)"/>
<path d="M52.4248 37.9614H47.8453C47.541 37.9614 47.2492 38.0858 47.034 38.3074C46.8188 38.5289 46.698 38.8293 46.698 39.1426V46.216C46.6989 46.5287 46.8201 46.8283 47.0352 47.049C47.2503 47.2698 47.5416 47.3938 47.8453 47.3938H52.4248C52.7282 47.3938 53.0192 47.2697 53.2337 47.0488C53.4483 46.828 53.5688 46.5284 53.5688 46.216V39.1426C53.5688 38.8299 53.4484 38.53 53.2339 38.3086C53.0195 38.0872 52.7285 37.9623 52.4248 37.9614ZM51.2808 45.0348H48.9894V40.3204H51.2808V45.0348Z" fill="url(#paint2_linear)"/>
<path d="M63.8753 37.9614H57.0044C56.7007 37.9623 56.4097 38.0872 56.1952 38.3086C55.9808 38.53 55.8604 38.8299 55.8604 39.1426V46.216C55.8604 46.5284 55.9809 46.828 56.1955 47.0488C56.41 47.2697 56.701 47.3938 57.0044 47.3938H63.8753C64.179 47.3938 64.4703 47.2698 64.6854 47.049C64.9005 46.8283 65.0218 46.5287 65.0226 46.216V39.1426C65.0226 38.8293 64.9018 38.5289 64.6866 38.3074C64.4714 38.0858 64.1796 37.9614 63.8753 37.9614ZM62.7312 45.0348H58.1551V40.3204H62.7346L62.7312 45.0348Z" fill="url(#paint3_linear)"/>
<path d="M73.0371 37.9614H68.4577C68.1534 37.9614 67.8615 38.0858 67.6463 38.3074C67.4312 38.5289 67.3103 38.8293 67.3103 39.1426V46.216C67.3112 46.5287 67.4324 46.8283 67.6475 47.049C67.8626 47.2698 68.1539 47.3938 68.4577 47.3938H73.0371C73.3405 47.3938 73.6315 47.2697 73.846 47.0488C74.0606 46.828 74.1811 46.5284 74.1811 46.216V39.1426C74.1811 38.8299 74.0607 38.53 73.8462 38.3086C73.6318 38.0872 73.3408 37.9623 73.0371 37.9614ZM71.9099 45.0348H69.6185V40.3204H71.9099V45.0348Z" fill="url(#paint4_linear)"/>
<path d="M52.4248 49.7425H47.8453C47.6948 49.742 47.5457 49.7722 47.4065 49.8312C47.2673 49.8901 47.1408 49.9768 47.0342 50.0862C46.9276 50.1956 46.8431 50.3256 46.7854 50.4687C46.7277 50.6119 46.698 50.7653 46.698 50.9203V57.9937C46.6989 58.3064 46.8201 58.6059 47.0352 58.8267C47.2503 59.0475 47.5416 59.1714 47.8453 59.1714H52.4248C52.7282 59.1714 53.0192 59.0473 53.2337 58.8265C53.4483 58.6056 53.5688 58.306 53.5688 57.9937V50.9306C53.5702 50.7751 53.5415 50.6208 53.4846 50.4767C53.4277 50.3326 53.3437 50.2016 53.2373 50.0911C53.131 49.9806 53.0044 49.893 52.8649 49.8331C52.7255 49.7733 52.5759 49.7425 52.4248 49.7425ZM51.2808 56.8228H48.9894V52.1084H51.2808V56.8228Z" fill="url(#paint5_linear)"/>
<path d="M63.8753 49.7425H57.0044C56.701 49.7425 56.41 49.8666 56.1955 50.0875C55.9809 50.3083 55.8604 50.6079 55.8604 50.9203V57.9937C55.8604 58.306 55.9809 58.6056 56.1955 58.8265C56.41 59.0473 56.701 59.1714 57.0044 59.1714H63.8753C64.179 59.1714 64.4703 59.0475 64.6854 58.8267C64.9005 58.6059 65.0218 58.3064 65.0226 57.9937V50.9306C65.024 50.7748 64.9953 50.6202 64.9381 50.4759C64.881 50.3316 64.7967 50.2004 64.69 50.0899C64.5832 49.9794 64.4563 49.8918 64.3164 49.8321C64.1766 49.7725 64.0266 49.742 63.8753 49.7425ZM62.7312 56.8125H58.1551V52.1084H62.7346L62.7312 56.8125Z" fill="url(#paint6_linear)"/>
<path d="M73.0371 49.7425H68.4577C68.3071 49.742 68.158 49.7722 68.0188 49.8312C67.8796 49.8901 67.7531 49.9768 67.6465 50.0862C67.54 50.1956 67.4554 50.3256 67.3977 50.4687C67.34 50.6119 67.3103 50.7653 67.3103 50.9203V57.9937C67.3112 58.3064 67.4324 58.6059 67.6475 58.8267C67.8626 59.0475 68.1539 59.1714 68.4577 59.1714H73.0371C73.3405 59.1714 73.6315 59.0473 73.8461 58.8265C74.0606 58.6056 74.1811 58.306 74.1811 57.9937V50.9306C74.1825 50.7751 74.1538 50.6208 74.097 50.4767C74.0401 50.3326 73.956 50.2016 73.8496 50.0911C73.7433 49.9806 73.6167 49.893 73.4772 49.8331C73.3378 49.7733 73.1882 49.7425 73.0371 49.7425ZM71.9099 56.8228H69.6185V52.1084H71.9099V56.8228Z" fill="url(#paint7_linear)"/>
<path d="M52.4248 61.5407H47.8453C47.5416 61.5407 47.2503 61.6646 47.0352 61.8854C46.8201 62.1062 46.6989 62.4058 46.698 62.7184V69.7919C46.698 69.9468 46.7277 70.1003 46.7854 70.2434C46.8431 70.3865 46.9276 70.5165 47.0342 70.6259C47.1408 70.7353 47.2673 70.822 47.4065 70.881C47.5457 70.9399 47.6948 70.9701 47.8453 70.9696H52.4248C52.7282 70.9696 53.0192 70.8455 53.2337 70.6247C53.4483 70.4038 53.5688 70.1042 53.5688 69.7919V62.7184C53.5688 62.4061 53.4483 62.1065 53.2337 61.8856C53.0192 61.6648 52.7282 61.5407 52.4248 61.5407ZM51.2808 68.6141H48.9894V63.9031H51.2808V68.6141Z" fill="url(#paint8_linear)"/>
<path d="M63.8753 61.5407H57.0044C56.701 61.5407 56.41 61.6648 56.1955 61.8856C55.9809 62.1065 55.8604 62.4061 55.8604 62.7184V69.7919C55.8604 70.1042 55.9809 70.4038 56.1955 70.6247C56.41 70.8455 56.701 70.9696 57.0044 70.9696H63.8753C64.0258 70.9701 64.1749 70.9399 64.3141 70.881C64.4533 70.822 64.5798 70.7353 64.6864 70.6259C64.793 70.5165 64.8775 70.3865 64.9352 70.2434C64.9929 70.1003 65.0226 69.9468 65.0226 69.7919V62.7184C65.0218 62.4058 64.9005 62.1062 64.6854 61.8854C64.4703 61.6646 64.179 61.5407 63.8753 61.5407ZM62.7312 68.6141H58.1551V63.9031H62.7346L62.7312 68.6141Z" fill="url(#paint9_linear)"/>
<path d="M73.0371 61.5407H68.4577C68.1539 61.5407 67.8626 61.6646 67.6475 61.8854C67.4324 62.1062 67.3112 62.4058 67.3103 62.7184V69.7919C67.3103 69.9468 67.34 70.1003 67.3977 70.2434C67.4554 70.3865 67.54 70.5165 67.6465 70.6259C67.7531 70.7353 67.8796 70.822 68.0188 70.881C68.158 70.9399 68.3071 70.9701 68.4577 70.9696H73.0371C73.3405 70.9696 73.6315 70.8455 73.846 70.6247C74.0606 70.4038 74.1811 70.1042 74.1811 69.7919V62.7184C74.1811 62.4061 74.0606 62.1065 73.846 61.8856C73.6315 61.6648 73.3405 61.5407 73.0371 61.5407ZM71.9099 68.6141H69.6185V63.9031H71.9099V68.6141Z" fill="url(#paint10_linear)"/>
<path d="M50.1332 74.5097C49.8298 74.5097 49.5388 74.6338 49.3243 74.8546C49.1097 75.0755 48.9892 75.3751 48.9892 75.6874V89.8481C49.005 90.1499 49.1327 90.4339 49.3458 90.6418C49.5589 90.8496 49.8413 90.9655 50.1349 90.9655C50.4284 90.9655 50.7108 90.8496 50.924 90.6418C51.1371 90.4339 51.2647 90.1499 51.2806 89.8481V75.6874C51.2806 75.5325 51.2509 75.379 51.1932 75.2359C51.1355 75.0928 51.0509 74.9628 50.9443 74.8534C50.8377 74.744 50.7112 74.6573 50.572 74.5983C50.4328 74.5393 50.2837 74.5092 50.1332 74.5097Z" fill="url(#paint11_linear)"/>
<path d="M70.7458 74.5097C70.4424 74.5097 70.1514 74.6338 69.9368 74.8546C69.7223 75.0755 69.6018 75.3751 69.6018 75.6874V89.8481C69.6176 90.1499 69.7453 90.4339 69.9584 90.6418C70.1715 90.8496 70.4539 90.9655 70.7475 90.9655C71.041 90.9655 71.3234 90.8496 71.5366 90.6418C71.7497 90.4339 71.8773 90.1499 71.8932 89.8481V75.6874C71.8932 75.5325 71.8635 75.379 71.8058 75.2359C71.7481 75.0928 71.6635 74.9628 71.5569 74.8534C71.4503 74.744 71.3238 74.6573 71.1846 74.5983C71.0454 74.5393 70.8963 74.5092 70.7458 74.5097Z" fill="url(#paint12_linear)"/>
<path d="M43.2625 55.6451H29.5074C29.2036 55.646 28.9127 55.7708 28.6982 55.9922C28.4838 56.2137 28.3633 56.5136 28.3633 56.8263V85.12C28.3633 85.4323 28.4839 85.7319 28.6984 85.9528C28.913 86.1737 29.204 86.2977 29.5074 86.2977H43.2625C43.5645 86.295 43.8532 86.1698 44.0661 85.9494C44.2791 85.7289 44.3989 85.4309 44.3998 85.12V56.8263C44.3998 56.5148 44.2803 56.2159 44.0673 55.9947C43.8543 55.7734 43.5651 55.6478 43.2625 55.6451ZM42.1185 83.9353H30.6682V58.004H42.1185V83.9353Z" fill="url(#paint13_linear)"/>
<path d="M38.6963 60.3631H34.1035C33.953 60.3626 33.8038 60.3927 33.6646 60.4517C33.5255 60.5107 33.3989 60.5974 33.2924 60.7068C33.1858 60.8162 33.1012 60.9462 33.0435 61.0893C32.9858 61.2324 32.9561 61.3858 32.9561 61.5408V68.6142C32.957 68.9269 33.0783 69.2265 33.2933 69.4472C33.5084 69.668 33.7998 69.792 34.1035 69.792H38.6963C38.9998 69.792 39.2908 69.6679 39.5053 69.447C39.7198 69.2262 39.8404 68.9266 39.8404 68.6142V61.5408C39.8404 61.2284 39.7198 60.9289 39.5053 60.708C39.2908 60.4871 38.9998 60.3631 38.6963 60.3631ZM37.5523 67.4365H35.2475V62.7186H37.5389L37.5523 67.4365Z" fill="url(#paint14_linear)"/>
<path d="M38.6963 72.1508H34.1035C33.7998 72.1508 33.5084 72.2748 33.2933 72.4956C33.0783 72.7164 32.957 73.0159 32.9561 73.3286V80.402C32.9561 80.557 32.9858 80.7104 33.0435 80.8535C33.1012 80.9966 33.1858 81.1266 33.2924 81.236C33.3989 81.3455 33.5255 81.4321 33.6646 81.4911C33.8038 81.5501 33.953 81.5802 34.1035 81.5798H38.6963C38.9998 81.5798 39.2908 81.4557 39.5053 81.2348C39.7198 81.0139 39.8404 80.7144 39.8404 80.402V73.3286C39.8404 73.0162 39.7198 72.7167 39.5053 72.4958C39.2908 72.2749 38.9998 72.1508 38.6963 72.1508ZM37.5523 79.2243H35.2475V74.5098H37.5389L37.5523 79.2243Z" fill="url(#paint15_linear)"/>
<path d="M30.6682 55.6451H26.0854C25.7922 55.6614 25.5163 55.7928 25.3144 56.0122C25.1125 56.2316 25 56.5223 25 56.8245C25 57.1268 25.1125 57.4175 25.3144 57.6369C25.5163 57.8563 25.7922 57.9877 26.0854 58.004H30.6682C30.9613 57.9877 31.2372 57.8563 31.4391 57.6369C31.641 57.4175 31.7535 57.1268 31.7535 56.8245C31.7535 56.5223 31.641 56.2316 31.4391 56.0122C31.2372 55.7928 30.9613 55.6614 30.6682 55.6451Z" fill="url(#paint16_linear)"/>
<path d="M91.3683 55.6451H77.6131C77.3094 55.646 77.0184 55.7708 76.804 55.9922C76.5895 56.2137 76.4691 56.5136 76.4691 56.8263V85.12C76.4691 85.4323 76.5897 85.7319 76.8042 85.9528C77.0187 86.1737 77.3097 86.2977 77.6131 86.2977H91.3683C91.672 86.2977 91.9633 86.1738 92.1784 85.953C92.3935 85.7322 92.5148 85.4327 92.5157 85.12V56.8263C92.5157 56.513 92.3948 56.2125 92.1796 55.991C91.9644 55.7695 91.6726 55.6451 91.3683 55.6451ZM90.2142 83.9353H78.7639V58.004H90.2142V83.9353Z" fill="url(#paint17_linear)"/>
<path d="M86.779 60.3631H82.1996C82.049 60.3626 81.8999 60.3927 81.7607 60.4517C81.6216 60.5107 81.495 60.5974 81.3885 60.7068C81.2819 60.8162 81.1973 60.9462 81.1396 61.0893C81.0819 61.2324 81.0522 61.3858 81.0522 61.5408V68.6142C81.0531 68.9269 81.1744 69.2265 81.3894 69.4472C81.6045 69.668 81.8958 69.792 82.1996 69.792H86.779C87.0824 69.792 87.3734 69.6679 87.588 69.447C87.8025 69.2262 87.923 68.9266 87.923 68.6142V61.5408C87.923 61.2284 87.8025 60.9289 87.588 60.708C87.3734 60.4871 87.0824 60.3631 86.779 60.3631ZM85.635 67.4365H83.3436V62.7186H85.635V67.4365Z" fill="url(#paint18_linear)"/>
<path d="M86.779 72.1508H82.1996C81.8958 72.1508 81.6045 72.2748 81.3894 72.4956C81.1744 72.7164 81.0531 73.0159 81.0522 73.3286V80.402C81.0522 80.557 81.0819 80.7104 81.1396 80.8535C81.1973 80.9966 81.2819 81.1266 81.3885 81.236C81.495 81.3455 81.6216 81.4321 81.7607 81.4911C81.8999 81.5501 82.049 81.5802 82.1996 81.5798H86.779C87.0824 81.5798 87.3734 81.4557 87.588 81.2348C87.8025 81.0139 87.923 80.7144 87.923 80.402V73.3286C87.923 73.0162 87.8025 72.7167 87.588 72.4958C87.3734 72.2749 87.0824 72.1508 86.779 72.1508ZM85.635 79.2243H83.3436V74.5098H85.635V79.2243Z" fill="url(#paint19_linear)"/>
<path d="M94.7941 55.645H90.2146C89.9215 55.6613 89.6455 55.7927 89.4436 56.0121C89.2418 56.2315 89.1292 56.5223 89.1292 56.8245C89.1292 57.1267 89.2418 57.4174 89.4436 57.6368C89.6455 57.8562 89.9211 57.9877 90.2142 58.004L94.7941 58.004C94.9497 58.0126 95.1055 57.9886 95.2518 57.9332C95.3982 57.8778 95.532 57.7924 95.6452 57.682C95.7583 57.5716 95.8485 57.4387 95.9101 57.2912C95.9717 57.1438 96.0035 56.985 96.0035 56.8245C96.0035 56.664 95.9717 56.5052 95.9101 56.3577C95.8485 56.2103 95.7583 56.0773 95.6452 55.967C95.532 55.8566 95.3982 55.7711 95.2518 55.7158C95.1055 55.6604 94.9497 55.6363 94.7941 55.645Z" fill="url(#paint20_linear)"/>
<path d="M44.3997 33.247H39.8269C39.5338 33.2633 39.2579 33.3947 39.056 33.6141C38.8541 33.8335 38.7416 34.1242 38.7416 34.4264C38.7416 34.7287 38.8541 35.0194 39.056 35.2388C39.2579 35.4582 39.5338 35.5896 39.8269 35.6059H44.3997C44.6928 35.5896 44.9687 35.4582 45.1706 35.2388C45.3725 35.0194 45.485 34.7287 45.485 34.4264C45.485 34.1242 45.3725 33.8335 45.1706 33.6141C44.9687 33.3947 44.6928 33.2633 44.3997 33.247Z" fill="url(#paint21_linear)"/>
<path d="M81.0521 33.247H76.4727C76.1795 33.2633 75.9036 33.3947 75.7017 33.6141C75.4998 33.8335 75.3873 34.1243 75.3873 34.4265C75.3873 34.7287 75.4998 35.0194 75.7017 35.2388C75.9036 35.4582 76.1795 35.5896 76.4727 35.606H81.0521C81.2078 35.6146 81.3636 35.5906 81.5099 35.5352C81.6562 35.4799 81.7901 35.3944 81.9032 35.284C82.0164 35.1736 82.1066 35.0407 82.1682 34.8932C82.2298 34.7458 82.2615 34.587 82.2615 34.4265C82.2615 34.266 82.2298 34.1072 82.1682 33.9597C82.1066 33.8123 82.0164 33.6793 81.9032 33.569C81.7901 33.4586 81.6562 33.3731 81.5099 33.3178C81.3636 33.2624 81.2078 33.2383 81.0521 33.247Z" fill="url(#paint22_linear)"/>
<path d="M67.2536 22.844C67.1873 22.6354 67.0659 22.4499 66.9029 22.3084C66.7399 22.1669 66.5419 22.0749 66.331 22.0428L63.2143 21.5765L61.822 18.658C61.7277 18.4606 61.5815 18.2942 61.4 18.1779C61.2186 18.0616 61.0091 18 60.7954 18C60.5816 18 60.3722 18.0616 60.1907 18.1779C60.0093 18.2942 59.8631 18.4606 59.7688 18.658L58.3765 21.5627L55.2598 22.0428C55.0483 22.0742 54.8496 22.166 54.6861 22.3077C54.5227 22.4494 54.4011 22.6354 54.3351 22.8447C54.2691 23.0539 54.2613 23.278 54.3127 23.4915C54.364 23.7051 54.4725 23.8995 54.6257 24.0529L56.8802 26.3151L56.3468 29.5099C56.3078 29.7291 56.3301 29.9552 56.411 30.1619C56.4919 30.3685 56.628 30.5474 56.8037 30.6776C56.9793 30.8077 57.1872 30.884 57.4033 30.8974C57.6193 30.9108 57.8347 30.8608 58.0242 30.7533L60.8122 29.244L63.5967 30.7533C63.7864 30.8594 64.0014 30.9082 64.2168 30.8941C64.4323 30.8801 64.6395 30.8037 64.8147 30.6739C64.9899 30.544 65.1259 30.3659 65.2072 30.16C65.2885 29.9541 65.3117 29.7288 65.2742 29.5099L64.7408 26.3151L66.9953 24.0529C67.1437 23.8964 67.2466 23.7001 67.2923 23.4865C67.3379 23.2728 67.3245 23.0503 67.2536 22.844ZM62.6808 25.0614C62.548 25.1936 62.4482 25.3568 62.3898 25.5372C62.3314 25.7175 62.3161 25.9098 62.3453 26.0975L62.5869 27.5482L61.3221 26.8574C61.1579 26.7673 60.9747 26.7202 60.7887 26.7202C60.6026 26.7202 60.4194 26.7673 60.2552 26.8574L58.9904 27.5482L59.232 26.0975C59.2612 25.9098 59.246 25.7175 59.1876 25.5372C59.1292 25.3568 59.0293 25.1936 58.8965 25.0614L57.89 24.0253L59.3024 23.8146C59.4865 23.7892 59.6617 23.7176 59.8126 23.6062C59.9636 23.4948 60.0856 23.3469 60.168 23.1756L60.8021 21.8563L61.4328 23.1756C61.512 23.3496 61.6314 23.501 61.7805 23.6166C61.9297 23.7322 62.104 23.8085 62.2883 23.8387L63.7041 24.0494L62.6808 25.0614Z" fill="url(#paint23_linear)"/>
<path d="M79.851 23.1101C79.7847 22.9015 79.6633 22.716 79.5003 22.5745C79.3374 22.4329 79.1393 22.3409 78.9284 22.3088L76.6035 21.9634L75.5634 19.7979C75.4691 19.6004 75.323 19.4341 75.1415 19.3178C74.9601 19.2015 74.7506 19.1399 74.5368 19.1399C74.3231 19.1399 74.1136 19.2015 73.9322 19.3178C73.7507 19.4341 73.6046 19.6004 73.5102 19.7979L72.4702 21.9634L70.1453 22.3088C69.9338 22.3402 69.735 22.432 69.5716 22.5737C69.4082 22.7155 69.2866 22.9015 69.2206 23.1107C69.1546 23.32 69.1468 23.544 69.1982 23.7576C69.2495 23.9711 69.358 24.1656 69.5112 24.3189L71.1886 26.0079L70.7928 28.3875C70.7548 28.6047 70.7771 28.8285 70.857 29.0332C70.9369 29.2379 71.0712 29.4154 71.2445 29.5451C71.4178 29.6749 71.6232 29.7518 71.837 29.767C72.0508 29.7821 72.2645 29.735 72.4534 29.6309L74.5335 28.505L76.6068 29.6309C76.7963 29.7367 77.0108 29.7853 77.2259 29.7714C77.441 29.7574 77.6479 29.6814 77.8229 29.552C77.998 29.4226 78.1341 29.2451 78.2157 29.0398C78.2973 28.8344 78.321 28.6096 78.2843 28.391L77.885 26.0079L79.5625 24.3189C79.7158 24.1655 79.8241 23.9708 79.8751 23.7571C79.9262 23.5434 79.9178 23.3192 79.851 23.1101ZM75.8486 24.7507C75.7158 24.8828 75.616 25.046 75.5576 25.2264C75.4991 25.4068 75.4839 25.5991 75.5131 25.7868L75.6205 26.4258L75.0636 26.1253C74.8989 26.0369 74.7159 25.9908 74.5301 25.9908C74.3444 25.9908 74.1614 26.0369 73.9967 26.1253L73.4398 26.4258L73.5471 25.7868C73.5764 25.5991 73.5611 25.4068 73.5027 25.2264C73.4443 25.046 73.3445 24.8828 73.2117 24.7507L72.7587 24.2982L73.3828 24.205C73.5687 24.1787 73.7457 24.1062 73.8983 23.9936C74.0508 23.8811 74.1745 23.7319 74.2584 23.5591L74.5368 22.9788L74.8153 23.5591C74.898 23.7302 75.0195 23.8782 75.1696 23.9907C75.3197 24.1031 75.4939 24.1766 75.6775 24.205L76.3015 24.2982L75.8486 24.7507Z" fill="url(#paint24_linear)"/>
<path d="M91.3048 24.0667C91.2376 23.858 91.1155 23.6726 90.952 23.5311C90.7885 23.3897 90.5901 23.2977 90.3789 23.2654L88.6008 22.9994L87.8057 21.3416C87.7113 21.1442 87.5652 20.9778 87.3837 20.8615C87.2023 20.7452 86.9928 20.6836 86.7791 20.6836C86.5653 20.6836 86.3558 20.7452 86.1744 20.8615C85.9929 20.9778 85.8468 21.1442 85.7524 21.3416L84.9573 22.9994L83.1792 23.2654C82.9677 23.2968 82.769 23.3886 82.6056 23.5303C82.4421 23.672 82.3205 23.8581 82.2545 24.0673C82.1885 24.2765 82.1808 24.5006 82.2321 24.7142C82.2835 24.9277 82.3919 25.1222 82.5451 25.2755L83.8301 26.5672L83.5281 28.3909C83.4892 28.6101 83.5115 28.8361 83.5924 29.0428C83.6732 29.2495 83.8094 29.4283 83.9851 29.5585C84.1607 29.6887 84.3686 29.7649 84.5847 29.7783C84.8007 29.7917 85.016 29.7418 85.2056 29.6342L86.7958 28.7708L88.3861 29.6342C88.5508 29.7224 88.7338 29.7686 88.9195 29.7689C89.1606 29.7692 89.3956 29.6906 89.5905 29.5444C89.7597 29.4125 89.8901 29.2348 89.9671 29.0312C90.0441 28.8275 90.0647 28.6059 90.0266 28.3909L89.7247 26.5672L91.0096 25.2755C91.1634 25.1224 91.2725 24.9281 91.3247 24.7145C91.3769 24.5008 91.37 24.2765 91.3048 24.0667ZM87.6983 25.3101C87.5648 25.4417 87.4645 25.6048 87.406 25.7854C87.3475 25.9659 87.3327 26.1584 87.3628 26.3462V26.4256L87.2924 26.3876C87.1277 26.2993 86.9447 26.2531 86.7589 26.2531C86.5732 26.2531 86.3902 26.2993 86.2255 26.3876L86.155 26.4256V26.3462C86.1845 26.1584 86.1694 25.9661 86.111 25.7857C86.0526 25.6052 85.9526 25.442 85.8195 25.3101L85.7625 25.2548H85.843C86.0261 25.2277 86.2001 25.155 86.3497 25.0431C86.4994 24.9311 86.6203 24.7833 86.7019 24.6124L86.7388 24.5399L86.7757 24.6089C86.8623 24.7839 86.9904 24.9336 87.1482 25.0441C87.306 25.1546 87.4882 25.2223 87.6782 25.241H87.7553L87.6983 25.3101Z" fill="url(#paint25_linear)"/>
<path d="M52.3675 23.11C52.3013 22.9013 52.1798 22.7159 52.0169 22.5743C51.8539 22.4328 51.6559 22.3408 51.4449 22.3087L49.12 21.9633L48.09 19.7943C47.9957 19.5968 47.8495 19.4305 47.6681 19.3142C47.4866 19.1979 47.2772 19.1363 47.0634 19.1363C46.8497 19.1363 46.6402 19.1979 46.4588 19.3142C46.2773 19.4305 46.1312 19.5968 46.0368 19.7943L44.9968 21.9598L42.6719 22.3052C42.4604 22.3366 42.2616 22.4284 42.0982 22.5701C41.9348 22.7119 41.8132 22.8979 41.7472 23.1071C41.6812 23.3164 41.6734 23.5405 41.7248 23.754C41.7761 23.9675 41.8846 24.162 42.0378 24.3153L43.7152 26.0043L43.3194 28.3874C43.2916 28.5569 43.3 28.7306 43.344 28.8964C43.388 29.0622 43.4665 29.2161 43.574 29.3476C43.6816 29.479 43.8157 29.5848 43.9669 29.6575C44.1182 29.7303 44.283 29.7683 44.45 29.7689C44.6351 29.7695 44.8174 29.722 44.98 29.6308L47.0601 28.5048L49.1368 29.6308C49.3262 29.7365 49.5408 29.7852 49.7558 29.7713C49.9709 29.7573 50.1778 29.6813 50.3529 29.5519C50.5279 29.4225 50.664 29.245 50.7456 29.0396C50.8272 28.8343 50.851 28.6095 50.8142 28.3909L50.415 26.0077L52.0924 24.3188C52.2431 24.1637 52.3487 23.9683 52.3973 23.7547C52.4459 23.5412 52.4356 23.3178 52.3675 23.11ZM48.3651 24.7505C48.2323 24.8827 48.1325 25.0459 48.0741 25.2263C48.0157 25.4067 48.0004 25.5989 48.0296 25.7867L48.137 26.4256L47.5801 26.1252C47.4154 26.0368 47.2324 25.9906 47.0467 25.9906C46.8609 25.9906 46.6779 26.0368 46.5132 26.1252L45.9563 26.4256L46.0771 25.7936C46.1063 25.6058 46.0911 25.4136 46.0327 25.2332C45.9742 25.0528 45.8744 24.8896 45.7416 24.7574L45.2887 24.305L45.9127 24.2117C46.0963 24.1834 46.2705 24.1099 46.4206 23.9975C46.5707 23.885 46.6922 23.737 46.7749 23.5659L47.0534 22.9856L47.3318 23.5659C47.4145 23.737 47.536 23.885 47.6861 23.9975C47.8362 24.1099 48.0105 24.1834 48.194 24.2117L48.8181 24.305L48.3651 24.7505Z" fill="url(#paint26_linear)"/>
<path d="M39.3371 24.0667C39.2717 23.857 39.15 23.6705 38.9862 23.5288C38.8224 23.3871 38.6231 23.2958 38.4112 23.2654L36.6331 22.9994L35.838 21.3416C35.7437 21.1442 35.5975 20.9778 35.416 20.8615C35.2346 20.7452 35.0251 20.6836 34.8114 20.6836C34.5976 20.6836 34.3882 20.7452 34.2067 20.8615C34.0253 20.9778 33.8791 21.1442 33.7848 21.3416L32.993 22.9994L31.2149 23.2654C31.0034 23.2968 30.8047 23.3886 30.6413 23.5303C30.4778 23.6721 30.3562 23.8581 30.2902 24.0673C30.2242 24.2765 30.2165 24.5006 30.2678 24.7142C30.3192 24.9277 30.4276 25.1222 30.5808 25.2755L31.8691 26.5673L31.5638 28.3909C31.5272 28.6077 31.5504 28.8308 31.6307 29.0347C31.711 29.2387 31.8452 29.4155 32.0181 29.5449C32.191 29.6744 32.3957 29.7513 32.6089 29.7671C32.8221 29.7829 33.0354 29.7369 33.2245 29.6342L34.8147 28.7708L36.405 29.6342C36.5697 29.7224 36.7527 29.7686 36.9384 29.7689C37.1799 29.7685 37.415 29.6886 37.6094 29.541C37.7817 29.4118 37.9157 29.2358 37.9962 29.0327C38.0768 28.8295 38.1009 28.6073 38.0656 28.3909L37.7603 26.5673L39.0486 25.2755C39.2013 25.1217 39.3091 24.927 39.3601 24.7134C39.4111 24.4998 39.4031 24.2759 39.3371 24.0667ZM35.7306 25.3101C35.5978 25.4422 35.498 25.6054 35.4396 25.7858C35.3812 25.9662 35.3659 26.1585 35.3951 26.3462V26.4256L35.3414 26.3946C35.1767 26.3062 34.9938 26.26 34.808 26.26C34.6223 26.26 34.4393 26.3062 34.2746 26.3946L34.2075 26.4326V26.3531C34.2361 26.1654 34.2206 25.9733 34.1622 25.793C34.1039 25.6127 34.0043 25.4495 33.872 25.317L33.8183 25.2617H33.8955C34.0788 25.234 34.253 25.1611 34.4031 25.0493C34.5532 24.9374 34.6748 24.7899 34.7577 24.6193L34.7912 24.5468L34.8248 24.6158C34.9068 24.7875 35.0281 24.936 35.1783 25.0485C35.3286 25.161 35.5031 25.2342 35.687 25.2617H35.7675L35.7306 25.3101Z" fill="url(#paint27_linear)"/>
</g>
<defs>
<filter id="filter0_d" x="0" y="0" width="121.003" height="123.012" filterUnits="userSpaceOnUse" color-interpolation-filters="sRGB">
<feFlood flood-opacity="0" result="BackgroundImageFix"/>
<feColorMatrix in="SourceAlpha" type="matrix" values="0 0 0 0 0 0 0 0 0 0 0 0 0 0 0 0 0 0 127 0"/>
<feOffset dy="7"/>
<feGaussianBlur stdDeviation="12.5"/>
<feColorMatrix type="matrix" values="0 0 0 0 0.973799 0 0 0 0 0.813345 0 0 0 0 0.535802 0 0 0 0.59 0"/>
<feBlend mode="normal" in2="BackgroundImageFix" result="effect1_dropShadow"/>
<feBlend mode="normal" in="SourceGraphic" in2="effect1_dropShadow" result="shape"/>
</filter>
<linearGradient id="paint0_linear" x1="24.0943" y1="-19.4585" x2="104.296" y2="-14.9383" gradientUnits="userSpaceOnUse">
<stop stop-color="#DBB777"/>
<stop offset="1" stop-color="#A98341"/>
</linearGradient>
<linearGradient id="paint1_linear" x1="24.0943" y1="-19.4585" x2="104.296" y2="-14.9383" gradientUnits="userSpaceOnUse">
<stop stop-color="#DBB777"/>
<stop offset="1" stop-color="#A98341"/>
</linearGradient>
<linearGradient id="paint2_linear" x1="24.0943" y1="-19.4585" x2="104.296" y2="-14.9383" gradientUnits="userSpaceOnUse">
<stop stop-color="#DBB777"/>
<stop offset="1" stop-color="#A98341"/>
</linearGradient>
<linearGradient id="paint3_linear" x1="24.0943" y1="-19.4585" x2="104.296" y2="-14.9383" gradientUnits="userSpaceOnUse">
<stop stop-color="#DBB777"/>
<stop offset="1" stop-color="#A98341"/>
</linearGradient>
<linearGradient id="paint4_linear" x1="24.0943" y1="-19.4585" x2="104.296" y2="-14.9383" gradientUnits="userSpaceOnUse">
<stop stop-color="#DBB777"/>
<stop offset="1" stop-color="#A98341"/>
</linearGradient>
<linearGradient id="paint5_linear" x1="24.0943" y1="-19.4585" x2="104.296" y2="-14.9383" gradientUnits="userSpaceOnUse">
<stop stop-color="#DBB777"/>
<stop offset="1" stop-color="#A98341"/>
</linearGradient>
<linearGradient id="paint6_linear" x1="24.0943" y1="-19.4585" x2="104.296" y2="-14.9383" gradientUnits="userSpaceOnUse">
<stop stop-color="#DBB777"/>
<stop offset="1" stop-color="#A98341"/>
</linearGradient>
<linearGradient id="paint7_linear" x1="24.0943" y1="-19.4585" x2="104.296" y2="-14.9383" gradientUnits="userSpaceOnUse">
<stop stop-color="#DBB777"/>
<stop offset="1" stop-color="#A98341"/>
</linearGradient>
<linearGradient id="paint8_linear" x1="24.0943" y1="-19.4585" x2="104.296" y2="-14.9383" gradientUnits="userSpaceOnUse">
<stop stop-color="#DBB777"/>
<stop offset="1" stop-color="#A98341"/>
</linearGradient>
<linearGradient id="paint9_linear" x1="24.0943" y1="-19.4585" x2="104.296" y2="-14.9383" gradientUnits="userSpaceOnUse">
<stop stop-color="#DBB777"/>
<stop offset="1" stop-color="#A98341"/>
</linearGradient>
<linearGradient id="paint10_linear" x1="24.0943" y1="-19.4585" x2="104.296" y2="-14.9383" gradientUnits="userSpaceOnUse">
<stop stop-color="#DBB777"/>
<stop offset="1" stop-color="#A98341"/>
</linearGradient>
<linearGradient id="paint11_linear" x1="24.0943" y1="-19.4585" x2="104.296" y2="-14.9383" gradientUnits="userSpaceOnUse">
<stop stop-color="#DBB777"/>
<stop offset="1" stop-color="#A98341"/>
</linearGradient>
<linearGradient id="paint12_linear" x1="24.0943" y1="-19.4585" x2="104.296" y2="-14.9383" gradientUnits="userSpaceOnUse">
<stop stop-color="#DBB777"/>
<stop offset="1" stop-color="#A98341"/>
</linearGradient>
<linearGradient id="paint13_linear" x1="24.0943" y1="-19.4585" x2="104.296" y2="-14.9383" gradientUnits="userSpaceOnUse">
<stop stop-color="#DBB777"/>
<stop offset="1" stop-color="#A98341"/>
</linearGradient>
<linearGradient id="paint14_linear" x1="24.0943" y1="-19.4585" x2="104.296" y2="-14.9383" gradientUnits="userSpaceOnUse">
<stop stop-color="#DBB777"/>
<stop offset="1" stop-color="#A98341"/>
</linearGradient>
<linearGradient id="paint15_linear" x1="24.0943" y1="-19.4585" x2="104.296" y2="-14.9383" gradientUnits="userSpaceOnUse">
<stop stop-color="#DBB777"/>
<stop offset="1" stop-color="#A98341"/>
</linearGradient>
<linearGradient id="paint16_linear" x1="24.0943" y1="-19.4585" x2="104.296" y2="-14.9383" gradientUnits="userSpaceOnUse">
<stop stop-color="#DBB777"/>
<stop offset="1" stop-color="#A98341"/>
</linearGradient>
<linearGradient id="paint17_linear" x1="24.0943" y1="-19.4585" x2="104.296" y2="-14.9383" gradientUnits="userSpaceOnUse">
<stop stop-color="#DBB777"/>
<stop offset="1" stop-color="#A98341"/>
</linearGradient>
<linearGradient id="paint18_linear" x1="24.0943" y1="-19.4585" x2="104.296" y2="-14.9383" gradientUnits="userSpaceOnUse">
<stop stop-color="#DBB777"/>
<stop offset="1" stop-color="#A98341"/>
</linearGradient>
<linearGradient id="paint19_linear" x1="24.0943" y1="-19.4585" x2="104.296" y2="-14.9383" gradientUnits="userSpaceOnUse">
<stop stop-color="#DBB777"/>
<stop offset="1" stop-color="#A98341"/>
</linearGradient>
<linearGradient id="paint20_linear" x1="24.0943" y1="-19.4585" x2="104.296" y2="-14.9383" gradientUnits="userSpaceOnUse">
<stop stop-color="#DBB777"/>
<stop offset="1" stop-color="#A98341"/>
</linearGradient>
<linearGradient id="paint21_linear" x1="24.0943" y1="-19.4585" x2="104.296" y2="-14.9383" gradientUnits="userSpaceOnUse">
<stop stop-color="#DBB777"/>
<stop offset="1" stop-color="#A98341"/>
</linearGradient>
<linearGradient id="paint22_linear" x1="24.0943" y1="-19.4585" x2="104.296" y2="-14.9383" gradientUnits="userSpaceOnUse">
<stop stop-color="#DBB777"/>
<stop offset="1" stop-color="#A98341"/>
</linearGradient>
<linearGradient id="paint23_linear" x1="24.0943" y1="-19.4585" x2="104.296" y2="-14.9383" gradientUnits="userSpaceOnUse">
<stop stop-color="#DBB777"/>
<stop offset="1" stop-color="#A98341"/>
</linearGradient>
<linearGradient id="paint24_linear" x1="24.0943" y1="-19.4585" x2="104.296" y2="-14.9383" gradientUnits="userSpaceOnUse">
<stop stop-color="#DBB777"/>
<stop offset="1" stop-color="#A98341"/>
</linearGradient>
<linearGradient id="paint25_linear" x1="24.0943" y1="-19.4585" x2="104.296" y2="-14.9383" gradientUnits="userSpaceOnUse">
<stop stop-color="#DBB777"/>
<stop offset="1" stop-color="#A98341"/>
</linearGradient>
<linearGradient id="paint26_linear" x1="24.0943" y1="-19.4585" x2="104.296" y2="-14.9383" gradientUnits="userSpaceOnUse">
<stop stop-color="#DBB777"/>
<stop offset="1" stop-color="#A98341"/>
</linearGradient>
<linearGradient id="paint27_linear" x1="24.0943" y1="-19.4585" x2="104.296" y2="-14.9383" gradientUnits="userSpaceOnUse">
<stop stop-color="#DBB777"/>
<stop offset="1" stop-color="#A98341"/>
</linearGradient>
</defs>
</svg>
