<svg width="122" height="124" viewBox="0 0 122 124" fill="none" xmlns="http://www.w3.org/2000/svg">
<g filter="url(#filter0_d)">
<path d="M97 52.0147H93.5099V35.9031C93.5053 34.0478 92.7684 32.2699 91.4605 30.9588C90.1526 29.6476 88.3803 28.9102 86.5319 28.9079H81.8038L76.9759 20.1709C76.709 19.6881 76.35 19.2629 75.9193 18.9196C75.4886 18.5762 74.9947 18.3214 74.4658 18.1697C73.9369 18.0181 73.3835 17.9726 72.8371 18.0358C72.2906 18.099 71.762 18.2697 71.2814 18.5382L52.7124 28.9079H31.978C30.1296 28.9102 28.3573 29.6476 27.0494 30.9588C25.7415 32.2699 25.0046 34.0478 25 35.9031V84.0023C25.0023 85.8593 25.7382 87.6397 27.0462 88.9531C28.3543 90.2664 30.1279 91.0055 31.978 91.0084H86.5319C88.3824 91.0061 90.1565 90.2672 91.4651 88.9538C92.7736 87.6404 93.5098 85.8597 93.5121 84.0023V69.8766H97V52.0147ZM86.5319 31.7003C87.5604 31.7041 88.5513 32.0885 89.3151 32.7799C90.0789 33.4713 90.5618 34.4211 90.6713 35.4475H85.4264L83.3588 31.7112L86.5319 31.7003ZM72.6322 20.9862C72.9571 20.8129 73.3362 20.7729 73.6898 20.8745C74.0435 20.9762 74.344 21.2116 74.5282 21.5312L82.2338 35.4345H46.7442L72.6322 20.9862ZM90.7169 84.0023C90.7146 85.1154 90.2729 86.1823 89.4885 86.9693C88.7041 87.7562 87.6409 88.199 86.5319 88.2007H31.978C30.8679 88.1996 29.8035 87.7564 29.0185 86.9685C28.2335 86.1805 27.7919 85.1122 27.7908 83.9979V35.9031C27.7919 34.7888 28.2335 33.7205 29.0185 32.9326C29.8035 32.1446 30.8679 31.7015 31.978 31.7003H47.6933L40.9998 35.4475H32.8511C32.4906 35.4618 32.1495 35.6156 31.8994 35.8767C31.6494 36.1378 31.5097 36.4859 31.5097 36.8481C31.5097 37.2103 31.6494 37.5584 31.8994 37.8195C32.1495 38.0806 32.4906 38.2344 32.8511 38.2487H90.7191V52.0147H80.5116C78.2323 52.017 76.047 52.9267 74.435 54.5442C72.8231 56.1616 71.9162 58.3549 71.9134 60.6426V61.2465C71.9128 63.5367 72.8181 65.7335 74.4303 67.3542C76.0425 68.9748 78.2298 69.8868 80.5116 69.8897H90.7191V84.0132L90.7169 84.0023ZM94.207 67.0755H80.5116C78.9717 67.0743 77.4952 66.4598 76.4064 65.3669C75.3175 64.274 74.7053 62.7921 74.7042 61.2465V60.6448C74.7053 59.0992 75.3175 57.6173 76.4064 56.5244C77.4952 55.4315 78.9717 54.817 80.5116 54.8158H94.207V67.0755ZM84.7944 61.0612C84.7944 61.673 84.6137 62.271 84.275 62.7797C83.9364 63.2884 83.4551 63.6849 82.892 63.919C82.3288 64.1531 81.7092 64.2144 81.1114 64.095C80.5136 63.9756 79.9644 63.681 79.5334 63.2484C79.1024 62.8158 78.8089 62.2647 78.69 61.6646C78.5711 61.0646 78.6321 60.4427 78.8654 59.8774C79.0986 59.3122 79.4936 58.8291 80.0004 58.4892C80.5072 58.1493 81.1031 57.9679 81.7126 57.9679C82.5299 57.9679 83.3138 58.2938 83.8918 58.8739C84.4697 59.454 84.7944 60.2408 84.7944 61.0612Z" fill="url(#paint0_linear)"/>
</g>
<defs>
<filter id="filter0_d" x="0" y="0.00817871" width="122" height="123" filterUnits="userSpaceOnUse" color-interpolation-filters="sRGB">
<feFlood flood-opacity="0" result="BackgroundImageFix"/>
<feColorMatrix in="SourceAlpha" type="matrix" values="0 0 0 0 0 0 0 0 0 0 0 0 0 0 0 0 0 0 127 0"/>
<feOffset dy="7"/>
<feGaussianBlur stdDeviation="12.5"/>
<feColorMatrix type="matrix" values="0 0 0 0 0.973799 0 0 0 0 0.813345 0 0 0 0 0.535802 0 0 0 0.59 0"/>
<feBlend mode="normal" in2="BackgroundImageFix" result="effect1_dropShadow"/>
<feBlend mode="normal" in="SourceGraphic" in2="effect1_dropShadow" result="shape"/>
</filter>
<linearGradient id="paint0_linear" x1="24.0816" y1="-19.4442" x2="105.402" y2="-14.7959" gradientUnits="userSpaceOnUse">
<stop stop-color="#DBB777"/>
<stop offset="1" stop-color="#A98341"/>
</linearGradient>
</defs>
</svg>
