<svg width="117" height="110" viewBox="0 0 117 110" fill="none" xmlns="http://www.w3.org/2000/svg">
<g filter="url(#filter0_d)">
<path d="M87.2222 18H36.1111C33.6565 18 31.6667 19.9899 31.6667 22.4444V58H26.1111C25.4975 58 25 58.4975 25 59.1111C25 61.5657 26.9899 63.5555 29.4444 63.5555H61.6667V76.8889C61.6668 77.5025 62.1643 77.9999 62.7781 77.9997C63.0726 77.9997 63.355 77.8826 63.5633 77.6744L69.4444 71.7933L75.3256 77.6744C75.5339 77.8828 75.8164 78 76.1111 78C76.2572 78.0004 76.4018 77.9718 76.5367 77.9156C76.9518 77.7435 77.2224 77.3382 77.2222 76.8889V63.5555H80.5555C83.0101 63.5555 85 61.5657 85 59.1111V23.5556H90.5555C91.1692 23.5556 91.6667 23.0581 91.6667 22.4444C91.6667 19.9899 89.6768 18 87.2222 18ZM82.7778 22.4444V58H78.3333V60.2222H82.4789C82.0821 60.9094 81.349 61.3329 80.5555 61.3333H77.2222V60.2222H75V74.2067L70.23 69.4367C69.7961 69.0029 69.0928 69.0029 68.6589 69.4367L63.8889 74.2067V60.2222H61.6667V61.3333H29.4444C28.651 61.3329 27.9179 60.9094 27.5211 60.2222H60.5556V58H33.8889V22.4444C33.8889 21.2171 34.8837 20.2222 36.1111 20.2222H83.3955C82.9957 20.8949 82.7824 21.6619 82.7778 22.4444ZM85.2989 21.3333C85.9136 20.2711 87.273 19.9083 88.3354 20.5232C88.6717 20.7178 88.951 20.9972 89.1455 21.3333H85.2989Z" fill="url(#paint0_linear)"/>
<path d="M79.9189 52.7722L78.4955 50.2222L79.9244 47.6744C80.2255 47.1397 80.0362 46.4622 79.5017 46.1611C79.4747 46.146 79.4471 46.1318 79.4189 46.1189L76.7667 44.9044L76.4244 42.0044C76.3521 41.3951 75.7993 40.9598 75.19 41.0322C75.1617 41.0355 75.1335 41.04 75.1055 41.0455L72.2411 41.6133L70.26 39.4678C69.8165 39.0173 69.0919 39.0116 68.6415 39.4551C68.6372 39.4593 68.633 39.4636 68.6289 39.4678L66.6478 41.6133L63.7833 41.0455C63.1814 40.9265 62.5968 41.318 62.4778 41.92C62.4722 41.9479 62.4678 41.9761 62.4644 42.0044L62.1222 44.9044L59.47 46.1211C58.9121 46.3765 58.6668 47.036 58.9222 47.5939C58.9351 47.6221 58.9492 47.6497 58.9644 47.6766L60.3933 50.2222L58.9644 52.77C58.6633 53.3047 58.8526 53.9822 59.3872 54.2833C59.4142 54.2985 59.4418 54.3126 59.47 54.3255L62.1222 55.5422L62.4644 58.4444C62.5368 59.0537 63.0896 59.489 63.6989 59.4166C63.7272 59.4133 63.7554 59.4089 63.7833 59.4033L66.6478 58.8355L68.6289 60.9811C69.0457 61.4315 69.7486 61.4587 70.199 61.0421C70.2201 61.0225 70.2404 61.0022 70.26 60.9811L72.2411 58.8355L75.1055 59.4033C75.4092 59.4654 75.7248 59.396 75.9744 59.2122C76.2228 59.0291 76.3837 58.751 76.4189 58.4444L76.7611 55.5444L79.4133 54.3278C79.9712 54.0723 80.2165 53.4129 79.9611 52.855C79.9482 52.8268 79.934 52.7991 79.9189 52.7722ZM76.2533 50.7644L77.3967 52.8044L75.2722 53.7789C74.92 53.9405 74.6775 54.274 74.6322 54.6589L74.3589 56.9844L72.0622 56.53C71.6837 56.4514 71.2919 56.578 71.0311 56.8633L69.4444 58.5833L67.8578 56.8655C67.6475 56.6382 67.3519 56.5089 67.0422 56.5089C66.9697 56.5085 66.8975 56.516 66.8267 56.5311L64.53 56.9855L64.2567 54.66C64.2114 54.2751 63.9689 53.9416 63.6167 53.78L61.4922 52.8055L62.6355 50.7655C62.8267 50.4266 62.8312 50.0151 62.6355 49.6789V49.6833L61.4922 47.6433L63.6167 46.6689C63.9689 46.5072 64.2114 46.1737 64.2567 45.7889L64.53 43.4633L66.8267 43.9178C67.205 43.9954 67.5964 43.8689 67.8578 43.5844L69.4444 41.8611L71.0311 43.5789C71.2918 43.8643 71.6837 43.991 72.0622 43.9122L74.3589 43.4578L74.6322 45.7833C74.6775 46.1682 74.92 46.5016 75.2722 46.6633L77.3967 47.6378L76.2533 49.6778C76.0642 50.0153 76.0642 50.4269 76.2533 50.7644Z" fill="url(#paint1_linear)"/>
<path d="M69.4444 44.6666C66.3762 44.6666 63.8889 47.154 63.8889 50.2222C63.8925 53.2889 66.3777 55.774 69.4444 55.7778C72.5126 55.7778 75 53.2904 75 50.2222C75 47.154 72.5126 44.6666 69.4444 44.6666ZM69.4444 53.5555C67.6034 53.5555 66.1111 52.0632 66.1111 50.2222C66.1111 48.3812 67.6034 46.8889 69.4444 46.8889C71.2854 46.8889 72.7777 48.3812 72.7777 50.2222C72.7777 52.0632 71.2854 53.5555 69.4444 53.5555Z" fill="url(#paint2_linear)"/>
<path d="M67.2222 24.6666H49.4444V26.8889H67.2222V24.6666Z" fill="url(#paint3_linear)"/>
<path d="M78.3334 31.3333H38.3334V33.5555H78.3334V31.3333Z" fill="url(#paint4_linear)"/>
<path d="M78.3334 35.7778H38.3334V38H78.3334V35.7778Z" fill="url(#paint5_linear)"/>
<path d="M53.8889 50.2222H39.4444V52.4444H53.8889V50.2222Z" fill="url(#paint6_linear)"/>
</g>
<defs>
<filter id="filter0_d" x="0" y="0" width="116.667" height="110" filterUnits="userSpaceOnUse" color-interpolation-filters="sRGB">
<feFlood flood-opacity="0" result="BackgroundImageFix"/>
<feColorMatrix in="SourceAlpha" type="matrix" values="0 0 0 0 0 0 0 0 0 0 0 0 0 0 0 0 0 0 127 0"/>
<feOffset dy="7"/>
<feGaussianBlur stdDeviation="12.5"/>
<feColorMatrix type="matrix" values="0 0 0 0 0.973799 0 0 0 0 0.813345 0 0 0 0 0.535802 0 0 0 0.59 0"/>
<feBlend mode="normal" in2="BackgroundImageFix" result="effect1_dropShadow"/>
<feBlend mode="normal" in="SourceGraphic" in2="effect1_dropShadow" result="shape"/>
</filter>
<linearGradient id="paint0_linear" x1="24.1497" y1="-12.7827" x2="99.38" y2="-7.93824" gradientUnits="userSpaceOnUse">
<stop stop-color="#DBB777"/>
<stop offset="1" stop-color="#A98341"/>
</linearGradient>
<linearGradient id="paint1_linear" x1="24.1497" y1="-12.7827" x2="99.38" y2="-7.93824" gradientUnits="userSpaceOnUse">
<stop stop-color="#DBB777"/>
<stop offset="1" stop-color="#A98341"/>
</linearGradient>
<linearGradient id="paint2_linear" x1="24.1497" y1="-12.7827" x2="99.38" y2="-7.93824" gradientUnits="userSpaceOnUse">
<stop stop-color="#DBB777"/>
<stop offset="1" stop-color="#A98341"/>
</linearGradient>
<linearGradient id="paint3_linear" x1="24.1497" y1="-12.7827" x2="99.38" y2="-7.93824" gradientUnits="userSpaceOnUse">
<stop stop-color="#DBB777"/>
<stop offset="1" stop-color="#A98341"/>
</linearGradient>
<linearGradient id="paint4_linear" x1="24.1497" y1="-12.7827" x2="99.38" y2="-7.93824" gradientUnits="userSpaceOnUse">
<stop stop-color="#DBB777"/>
<stop offset="1" stop-color="#A98341"/>
</linearGradient>
<linearGradient id="paint5_linear" x1="24.1497" y1="-12.7827" x2="99.38" y2="-7.93824" gradientUnits="userSpaceOnUse">
<stop stop-color="#DBB777"/>
<stop offset="1" stop-color="#A98341"/>
</linearGradient>
<linearGradient id="paint6_linear" x1="24.1497" y1="-12.7827" x2="99.38" y2="-7.93824" gradientUnits="userSpaceOnUse">
<stop stop-color="#DBB777"/>
<stop offset="1" stop-color="#A98341"/>
</linearGradient>
</defs>
</svg>
