<svg width="56" height="34" viewBox="0 0 56 34" fill="none" xmlns="http://www.w3.org/2000/svg">
<path fill-rule="evenodd" clip-rule="evenodd" d="M55.689 0L36.2646 31.9628L35.0265 34L33.8277 31.9403L27.9243 21.7976L21.762 31.9616L20.5482 33.9635L19.3363 31.9605L-0.000228882 0H3.28371L20.5508 28.5399L26.7335 18.3423L30.8741 11.3734L32.0879 9.33066L33.3092 11.3691L35.0649 14.2992L43.8037 0H47.0964L36.2628 17.7268L35.0408 19.7263L33.8366 17.7164L32.0981 14.8148L29.5792 19.054L35.0791 28.5034L52.4012 0H55.689ZM32.593 0L21.7594 17.7268L20.5415 19.7198L19.3353 17.7199L8.64848 0H11.9297L20.5575 14.3058L29.3004 0H32.593Z" fill="url(#paint0_linear)"/>
<defs>
<linearGradient id="paint0_linear" x1="49.888" y1="-5.40909" x2="22.0829" y2="42.5229" gradientUnits="userSpaceOnUse">
<stop stop-color="#6ED5FF"/>
<stop offset="1" stop-color="#0392CC"/>
</linearGradient>
</defs>
</svg>
