<svg width="34" height="35" viewBox="0 0 34 35" fill="none" xmlns="http://www.w3.org/2000/svg">
<g clip-path="url(#clip0)">
<path d="M0.307129 34.6122L2.62586 26.2067C1.11872 23.5981 0.307129 20.6997 0.307129 17.6852C0.307129 8.52622 7.84311 0.990234 17.0601 0.990234C26.2771 0.990234 33.9291 8.52622 33.9291 17.6852C33.9291 26.8443 26.2772 34.6122 17.0601 34.6122C14.1617 34.6122 11.3792 33.6847 8.88651 32.2935L0.307129 34.6122Z" fill="white"/>
<path d="M9.35024 29.279L9.87198 29.5689C12.0168 30.9022 14.5095 31.7137 17.1181 31.7137C24.712 31.7137 31.0306 25.3951 31.0306 17.6852C31.0306 9.97536 24.712 3.88867 17.0601 3.88867C9.40823 3.88867 3.20557 10.0333 3.20557 17.6852C3.20557 20.3518 3.95917 22.9604 5.35041 25.1632L5.69825 25.685L4.365 30.5544L9.35024 29.279Z" fill="#54CC61"/>
<path d="M12.5964 9.91736L11.495 9.85938C11.1471 9.85938 10.7994 9.97534 10.5675 10.2072C10.0457 10.671 9.17624 11.5405 8.94436 12.6999C8.5386 14.439 9.17624 16.5258 10.6834 18.6127C12.1907 20.6996 15.0891 24.0618 20.1903 25.511C21.8134 25.9747 23.0888 25.6849 24.1322 25.0472C24.9438 24.5255 25.4655 23.714 25.6395 22.8444L25.8133 22.0328C25.8713 21.8009 25.7554 21.5111 25.5235 21.3952L21.8714 19.7141C21.6396 19.5981 21.3497 19.6561 21.1758 19.888L19.7266 21.743C19.6106 21.8589 19.4367 21.9168 19.2628 21.8589C18.2774 21.5111 14.9731 20.1198 13.1761 16.6417C13.1181 16.4679 13.1181 16.2939 13.2341 16.178L14.6253 14.6129C14.7413 14.439 14.7992 14.2071 14.7413 14.0332L13.0602 10.2652C13.0021 10.0912 12.8282 9.91736 12.5964 9.91736Z" fill="#FEFEFE"/>
</g>
<defs>
<clipPath id="clip0">
<rect width="33.622" height="33.622" fill="white" transform="translate(0.307129 0.990234)"/>
</clipPath>
</defs>
</svg>
