<svg width="23" height="23" viewBox="0 0 23 23" fill="none" xmlns="http://www.w3.org/2000/svg">
<path fill-rule="evenodd" clip-rule="evenodd" d="M19.1273 3.84108C17.11 1.82144 14.4272 0.708704 11.5691 0.70752C5.67968 0.70752 0.886549 5.50052 0.88418 11.3915C0.88339 13.2747 1.37534 15.113 2.31041 16.7333L0.794556 22.27L6.45879 20.7842C8.01952 21.6355 9.7766 22.0842 11.5647 22.0847H11.5692C17.458 22.0847 22.2516 17.2913 22.2539 11.4001C22.2551 8.54498 21.1447 5.86059 19.1273 3.84108ZM11.5691 20.2803H11.5654C9.97191 20.2796 8.40907 19.8513 7.04536 19.0424L6.72121 18.8498L3.35997 19.7316L4.25714 16.4544L4.04591 16.1184C3.1569 14.7045 2.68746 13.0702 2.68825 11.3922C2.69009 6.49573 6.6741 2.51212 11.5726 2.51212C13.9447 2.5129 16.1745 3.43784 17.8512 5.11649C19.5279 6.79514 20.4507 9.0264 20.4499 11.3994C20.4478 16.2962 16.4641 20.2803 11.5691 20.2803ZM16.4404 13.629C16.1735 13.4952 14.8608 12.8496 14.6161 12.7604C14.3715 12.6713 14.1933 12.6269 14.0155 12.8941C13.8375 13.1612 13.3259 13.7627 13.1701 13.9407C13.0143 14.1189 12.8587 14.1413 12.5917 14.0076C12.3246 13.874 11.4645 13.592 10.4446 12.6824C9.65105 11.9745 9.11528 11.1003 8.95946 10.8331C8.8039 10.5657 8.95814 10.4351 9.07659 10.2882C9.36559 9.92936 9.655 9.55309 9.74397 9.37503C9.83306 9.19683 9.78845 9.04088 9.72159 8.9073C9.655 8.77372 9.12107 7.45962 8.89865 6.9249C8.68176 6.40453 8.46185 6.4748 8.29787 6.46664C8.14231 6.45888 7.96424 6.4573 7.78618 6.4573C7.60825 6.4573 7.31897 6.52402 7.07418 6.79145C6.82953 7.05874 6.13991 7.70454 6.13991 9.01864C6.13991 10.3327 7.09656 11.6022 7.23001 11.7804C7.36346 11.9586 9.11265 14.6552 11.7907 15.8115C12.4277 16.0869 12.9249 16.251 13.3128 16.374C13.9524 16.5772 14.5342 16.5485 14.9943 16.4798C15.5073 16.4031 16.5737 15.8339 16.7964 15.2104C17.0188 14.5867 17.0188 14.0522 16.952 13.9407C16.8854 13.8294 16.7073 13.7627 16.4404 13.629Z" fill="white"/>
</svg>
